<?xml version="1.0" encoding="UTF-8" standalone="no"?>
<svg
   xmlns:dc="http://purl.org/dc/elements/1.1/"
   xmlns:cc="http://creativecommons.org/ns#"
   xmlns:rdf="http://www.w3.org/1999/02/22-rdf-syntax-ns#"
   xmlns:svg="http://www.w3.org/2000/svg"
   xmlns="http://www.w3.org/2000/svg"
   xmlns:sodipodi="http://sodipodi.sourceforge.net/DTD/sodipodi-0.dtd"
   xmlns:inkscape="http://www.inkscape.org/namespaces/inkscape"
   version="1.1"
   id="svg2"
   xml:space="preserve"
   width="4000"
   height="3200"
   viewBox="0 0 4000 3200"
   sodipodi:docname="vecteezy_clothing-donation-illustration_6916012.eps"><metadata
     id="metadata8"><rdf:RDF><cc:Work
         rdf:about=""><dc:format>image/svg+xml</dc:format><dc:type
           rdf:resource="http://purl.org/dc/dcmitype/StillImage" /></cc:Work></rdf:RDF></metadata><defs
     id="defs6" /><sodipodi:namedview
     pagecolor="#ffffff"
     bordercolor="#666666"
     borderopacity="1"
     objecttolerance="10"
     gridtolerance="10"
     guidetolerance="10"
     inkscape:pageopacity="0"
     inkscape:pageshadow="2"
     inkscape:window-width="640"
     inkscape:window-height="480"
     id="namedview4" /><g
     id="g10"
     inkscape:groupmode="layer"
     inkscape:label="ink_ext_XXXXXX"
     transform="matrix(1.3333333,0,0,-1.3333333,0,3200)"><g
       id="g12"
       transform="scale(0.1)"><path
         d="M 30000,0 H 0 V 24000 H 30000 V 0"
         style="fill:#ffffff;fill-opacity:1;fill-rule:nonzero;stroke:none"
         id="path14" /><path
         d="m 26068.5,6695.5 c 0,0 1524.7,2439.1 -1077.2,5911.5 -2246.3,2998 -1998.9,6958.8 -5231.8,7279.8 -3232.8,321 -3869.2,-2338.5 -6468.9,-2857.5 -3098,-618.6 -6563.81,1779.3 -7746.23,-467 C 4361.94,14315.9 5324.94,12061.1 4329.19,10558.4 2846.54,8320.8 3931.51,6695.5 3931.51,6695.5 H 26068.5"
         style="fill:#f2f9f8;fill-opacity:1;fill-rule:nonzero;stroke:none"
         id="path16" /><path
         d="m 16220.8,9258.2 c 0,0 -566.7,-807.7 -594.1,-1795.8 -27.4,-988.1 0,-1474.5 0,-1474.5 h 3271.6 l -270.9,3270.3 h -2406.6"
         style="fill:#342d66;fill-opacity:1;fill-rule:nonzero;stroke:none"
         id="path18" /><path
         d="m 16702.9,15160.1 c 0,0 -264.2,196.6 -450.2,547.2 -185.9,350.6 -148.7,1030.6 313.5,1221.9 0,0 -414.4,510 244.3,648.1 658.8,138.1 541.9,-366.6 541.9,-366.6 0,0 494,-5.3 844.7,-541.8 350.6,-536.6 80.1,-961.8 80.1,-961.8 l -1408.2,-963.7 -166.1,416.7"
         style="fill:#252549;fill-opacity:1;fill-rule:nonzero;stroke:none"
         id="path20" /><path
         d="m 16611,14219.8 c 0,0 91.9,99.6 91.9,334.7 0,235.1 0,605.6 0,605.6 0,0 59.8,-179.3 115.6,0 55.8,179.3 15.6,159.4 -103.8,330.7 -119.3,171.4 -143.2,573.8 75.9,398.5 219.1,-175.4 239.1,-207.2 290.9,-59.8 51.8,147.4 0,474.1 386.4,545.9 386.5,71.7 609.6,39.8 717.2,-147.5 107.6,-187.2 171.3,-757 -95.6,-1191.3 -267,-434.3 -514,-466.2 -514,-466.2 0,0 -16.6,-295 135.8,-327 152.4,-32 607.9,-533.6 225.5,-788.6 -382.5,-255 -568.5,-547.1 -919.1,-260.3 -350.6,286.9 -755,626.9 -406.7,1025.3"
         style="fill:#d66863;fill-opacity:1;fill-rule:nonzero;stroke:none"
         id="path22" /><path
         d="m 20412.3,10522.4 c -167.6,-255 -406,-589.7 -406,-589.7 h -645.8 c 0,0 87.3,219.3 191.2,549.5 103.9,330.9 175.3,378.7 175.3,378.7 l -808.9,916.7 c 0,0 -127.5,-884.8 -175.3,-1263.5 -14.1,-107.1 -25.5,-200.2 -35.1,-278.6 -24.2,-198.2 -36.3,-302.8 -36.3,-302.8 0,0 -20.4,-796.8 75.2,-924.3 10.2,-13.4 -12.1,-26.8 -58.7,-40.2 -208.4,-58.7 -914.1,-112.8 -1553.5,-116.7 -602.5,-4.4 -1146.9,35.7 -1160.9,156.9 -31.9,279.2 144.1,963.8 103.9,1641.5 -40.2,677.6 -292.6,1100.9 -292.6,1100.9 l -158.1,810.9 -202.7,1036.6 c 0,0 83.5,195.1 382.5,354.4 299,159.4 804.5,267.1 804.5,267.1 0,0 167.7,-968.3 793,-852.3 626,115.4 307.3,875.9 307.3,875.9 0,0 928.2,-182.9 1071.6,-330.2 143.5,-147.9 1470.1,-2315.4 1629.4,-2697.9 159.4,-382.4 167.7,-437.9 0,-692.9"
         style="fill:#82cc52;fill-opacity:1;fill-rule:nonzero;stroke:none"
         id="path24" /><path
         d="m 18687.9,8968.2 c -228.8,209.1 -717.8,633 -1011.7,720.4 -392.7,116.6 -360.8,-20.4 -796.8,-116.7 -435.4,-96.3 -870.8,-393.3 -605.6,-415 265.8,-21 786,-74 786,-74 0,0 41.4,-97.5 74.6,-231.4 -602.5,-4.4 -1146.9,35.7 -1160.9,156.9 -31.9,279.2 144.1,963.8 103.9,1641.5 -40.2,677.6 -292.6,1100.9 -292.6,1100.9 l -158.1,810.9 c 114.1,209.8 242.9,335.3 383.1,331.5 0,0 158.1,-378.7 126.3,-984.3 -31.9,-605.6 63.7,-1147.5 626.6,-1168.5 562.9,-21.7 520.8,-244.8 924.4,-265.8 403.5,-21.1 637.5,-306.6 824.9,-307.9 72,-0.7 139.6,30.6 195.7,68.8 -24.2,-198.2 -36.3,-302.8 -36.3,-302.8 0,0 -20.4,-796.8 75.2,-924.3 10.2,-13.4 -12.1,-26.8 -58.7,-40.2"
         style="fill:#53a83f;fill-opacity:1;fill-rule:nonzero;stroke:none"
         id="path26" /><path
         d="m 15424,13598.3 c 0,0 786.2,-138.1 541.8,-1136.9 -244.3,-998.7 -568.4,-2082.4 -483.4,-2077.1 85,5.3 1492.8,116.8 1530,-0.1 37.2,-116.8 85,-435.5 0,-488.7 -85,-53.1 -1673.4,-396.1 -1891.2,-309.6 -217.8,86.5 -499.4,144.9 -472.8,692.1 26.5,547.2 191.2,1301.6 382.5,2087.8 191.2,786.2 393.1,1232.5 393.1,1232.5"
         style="fill:#82cc52;fill-opacity:1;fill-rule:nonzero;stroke:none"
         id="path28" /><path
         d="m 18918.2,11777.5 c 0,0 43.9,79.6 -59.7,334.6 -103.6,255 -346.7,781 -346.7,781 0,0 370.6,-431.7 583.1,-899.2 212.5,-467.5 301.1,-757.7 301.1,-757.7 l -477.8,541.3"
         style="fill:#53a83f;fill-opacity:1;fill-rule:nonzero;stroke:none"
         id="path30" /><path
         d="m 17029.2,10320 c 0,0 232.9,-4.8 355.1,51 122.2,55.8 268.2,-1.3 425,-51.1 156.7,-49.8 247,-174.7 318.7,-230.5 71.7,-55.7 140.8,-156.7 140.8,-156.7 H 17958 l -126.7,-65.2 c 0,0 -146.9,65.2 -218.6,65.2 -71.7,0 -209.8,31.9 -278.9,63.8 -69.1,31.8 -273.9,15.9 -273.9,15.9 0,0 -20.6,266 -30.7,307.6"
         style="fill:#d66863;fill-opacity:1;fill-rule:nonzero;stroke:none"
         id="path32" /><path
         d="m 17575.5,14570.4 c 0,0 -286.6,-21.2 -387.6,53.2 -101.1,74.3 -196.8,217.8 -196.8,217.8 0,0 316.5,-823.4 386.7,-796.9 70.2,26.6 197.7,525.9 197.7,525.9"
         style="fill:#b23d3d;fill-opacity:1;fill-rule:nonzero;stroke:none"
         id="path34" /><path
         d="m 10676.7,14294.2 c 0,0 -310.1,286.9 -118.9,589.7 191.3,302.8 201.9,451.5 74.4,658.7 -127.5,207.2 -324.1,1535.3 249.7,1715.9 0,0 515.3,451.6 1152.8,196.6 637.4,-255 839.3,-791.6 812.8,-1429 -26.6,-637.5 -334.7,-897.8 -122.2,-1126.3 212.5,-228.4 334.7,-552.5 79.7,-733.1 -255,-180.6 -1976.6,-101.1 -2128.3,127.5"
         style="fill:#252549;fill-opacity:1;fill-rule:nonzero;stroke:none"
         id="path36" /><path
         d="m 10838,15933.1 c 0,0 -107.5,127.5 -143.4,-51.8 -35.9,-179.3 -27.9,-255 119.5,-322.7 147.5,-67.8 127.5,-127.5 171.4,-235.1 43.8,-107.6 139.4,-255 195.2,-294.8 55.8,-39.9 55.8,-39.9 55.8,-39.9 0,0 51.8,-418.4 -55.8,-502 -107.6,-83.7 -289.8,-510 68.2,-729.1 358.1,-219.2 780.4,-290.9 943.8,-139.5 163.4,151.4 342.7,284.7 231.1,435.2 -111.6,150.5 -402.7,517 -402.7,517 0,0 12.2,386.5 40.1,450.3 27.9,63.7 162.1,168.7 196.6,298.8 34.5,130.2 92.9,188.6 151.4,223.1 58.4,34.6 111.5,193.9 77,305.5 -34.5,111.6 -69,53.1 -159.4,69.1 -90.3,15.9 -334.6,98.2 -494,262.9 -159.4,164.7 -321.4,446.3 -433,504.7 -111.5,58.4 -316.1,50.5 -366.5,0 -50.5,-50.5 -103.6,-852.6 -148.8,-826.1 -45.1,26.6 -46.5,74.4 -46.5,74.4"
         style="fill:#ffbf9f;fill-opacity:1;fill-rule:nonzero;stroke:none"
         id="path38" /><path
         d="m 13134.1,10431.9 c 79.7,-605.6 239.1,-1423.5 239.1,-1423.5 h -3133.9 c 0,0 0,0 164.5,323.8 20.4,40.2 38.8,93.7 55.4,156.8 33.2,124.3 58.7,286.3 79.7,462.2 3.8,38.3 8.3,77.1 12.1,116 31.2,307.9 47.2,638.2 54.8,862.5 2.6,85.5 4.5,155.6 5.1,203.4 1.3,84.8 -21,207.8 -53.5,340.4 -81.6,333.4 -228.2,727.4 -228.2,727.4 0,0 -223.2,-807.1 -244.2,-1025.1 -2.5,-23.6 0,-53.5 7,-88.6 51.7,-285.6 359.6,-896.3 359.6,-958.1 0,-10.2 -8.3,-19.2 -22.4,-26.8 -78.4,-42.1 -345.5,-47.2 -439.82,-105.8 -2.55,-1.3 -5.1,-2.6 -7.65,-2.6 -100.08,-24.8 -448.79,492.8 -635.58,807.1 -48.44,80.3 -85.42,147.2 -105.82,188.7 -100.73,207.2 -52.91,525.9 74.58,876.5 44.63,123.1 128.14,387.6 226.31,691.1 181.05,563.5 410.55,1261.6 527.88,1434.3 180.4,265.2 1147.4,578.8 1147.4,578.8 71.4,-127.5 -159.3,-214.8 -95.6,-414.3 63.8,-199.6 191.3,-446.3 701.3,-358.9 510,88 198.9,773.2 198.9,773.2 0,0 135.7,0 566.1,-119.1 430.3,-119.9 786,-399.1 786,-399.1 0,0 -435.4,-382.5 -435.4,-716.6 0,-138.9 29.9,-255.6 73.3,-372.9 59.9,-165.1 145.3,-331.5 205.9,-561.6 103.3,-392.1 7.6,-412.5 -16.6,-731.2 -23.6,-319.4 -146,-632.4 -66.3,-1238"
         style="fill:#ffa942;fill-opacity:1;fill-rule:nonzero;stroke:none"
         id="path40" /><path
         d="m 10570.1,13111.2 c -10.2,-19.7 -151.7,-279.8 -189.9,-508.7 -40.2,-239.7 -51,-401.6 -51,-401.6 0,0 -223.2,-807.1 -244.2,-1025.1 -2.5,-23.6 0,-53.5 7,-88.6 -98.8,25.5 -210.99,49.1 -288.77,49.1 -169.57,0 -188.06,-176 -395.88,-303.4 -20.4,-12.8 -40.8,-23 -61.2,-31.9 -48.44,80.3 -85.42,147.2 -105.82,188.7 -100.73,207.2 -52.91,525.9 74.58,876.5 44.63,123.1 128.14,387.6 226.31,691.1 124.95,-5.1 271.57,-4.5 392.7,13.4 261.98,38.2 614.58,510.6 636.18,540.5"
         style="fill:#ff8243;fill-opacity:1;fill-rule:nonzero;stroke:none"
         id="path42" /><path
         d="m 13373.2,9008.4 h -3133.9 c 0,0 0,0 164.5,323.8 69.4,136.4 116,424.6 147.2,735 0,0 522.1,-445.6 824.9,-429 302.8,15.3 1402.5,796.2 1306.9,1099 -77.8,246.7 -1533.8,213.6 -2077,192.5 2.6,85.5 4.5,155.6 5.1,203.4 1.3,84.8 -21,207.8 -53.5,340.4 405.4,-4.4 1500,3.2 1886.3,196.4 478.1,238.4 492.2,1348.3 492.2,1348.3 0,0 29.3,-19.8 75.2,-55.5 59.9,-165.1 145.3,-331.5 205.9,-561.6 103.3,-392.1 7.6,-412.5 -16.6,-731.2 -23.6,-319.4 -146,-632.4 -66.3,-1238 79.7,-605.6 239.1,-1423.5 239.1,-1423.5"
         style="fill:#ff8243;fill-opacity:1;fill-rule:nonzero;stroke:none"
         id="path44" /><path
         d="M 13208.7,9736.6 H 9017.21 l 1593.69,-382.5 h 4191.5 l -1593.7,382.5"
         style="fill:#874331;fill-opacity:1;fill-rule:nonzero;stroke:none"
         id="path46" /><path
         d="m 14260.6,10920.8 c -151.1,-247.3 -1593.8,-1338.7 -1665.8,-1334.9 -9.6,0.7 -21.7,5.1 -37,13.4 -87.3,47.2 -253.1,209.7 -272.8,303.5 -2.6,10.8 -2.6,21 -0.7,29.9 23.6,95.6 1291,1203.6 1227.2,1282.6 -63.7,80.4 -534.2,1633.9 -621.5,1968.6 -87.4,334.7 369.1,899.5 483.2,868.3 0,0 177.8,-129.4 441.1,-941 263.3,-812.1 597.4,-1943 446.3,-2190.4"
         style="fill:#ffa942;fill-opacity:1;fill-rule:nonzero;stroke:none"
         id="path48" /><path
         d="M 12557.8,9599.3 12312.4,9359 h -809 c 0,0 56.1,51.6 143.5,107.7 87.3,55.5 214.8,83.5 306.6,119.2 69.5,26.8 248.6,223.1 331.5,316.9 19.7,-93.8 185.5,-256.3 272.8,-303.5"
         style="fill:#ffbf9f;fill-opacity:1;fill-rule:nonzero;stroke:none"
         id="path50" /><path
         d="m 10878,9656 c -72,109.7 -135.7,177.3 -267.1,241 -24.8,12.1 -49.1,31.3 -72,54.2 -42.7,43.4 -81,100.7 -109.7,151.1 -78.4,-42.1 -345.5,-47.2 -439.82,-105.8 -2.55,-1.3 -5.1,-2.6 -7.65,-2.6 27.37,-57.4 81.57,-164.5 138.97,-252.4 83.5,-127.5 231.4,-198.9 314.9,-239.1 8.3,-3.8 16,-8.3 23.6,-13.4 72,-45.9 123.7,-130 123.7,-130 h 418.2 c 0,0 -51.7,187.4 -123.1,297"
         style="fill:#ffbf9f;fill-opacity:1;fill-rule:nonzero;stroke:none"
         id="path52" /><path
         d="m 11236.5,14988.8 c 0,0 207.2,-235.1 390.4,-223.1 183.3,11.9 434.3,255 434.3,255 0,0 -350.6,-697.3 -506,-637.5 -155.4,59.7 -318.7,605.6 -318.7,605.6"
         style="fill:#ff9b80;fill-opacity:1;fill-rule:nonzero;stroke:none"
         id="path54" /><path
         d="m 5755.59,15104 c 0,0 -265.83,21.3 -345.52,409.1 -79.68,387.8 -424.99,1365.3 658.74,1413.1 1083.74,47.8 1174.05,249.7 1359.98,-90.3 185.94,-340 -87.81,-473.7 -228.43,-512.7 -140.62,-38.9 -508.67,-459.5 -913.07,-852.6 -404.41,-393.1 -414.62,-446.2 -531.7,-366.6"
         style="fill:#252549;fill-opacity:1;fill-rule:nonzero;stroke:none"
         id="path56" /><path
         d="m 5729.03,14312.3 c 0,0 56.9,82.5 52.91,401.3 -3.98,318.7 -26.35,390.4 -26.35,390.4 0,0 193.7,111.6 62.21,282.9 -131.48,171.3 -83.67,633.5 83.67,426.3 167.34,-207.1 199.22,-143.4 203.2,95.7 3.99,239 -23.9,422.3 418.36,366.5 442.25,-55.8 677.33,47.8 677.33,47.8 0,0 75.7,-1012 -127.5,-1390.5 -203.2,-378.5 -529.91,-354.6 -529.91,-354.6 0,0 -18.74,-191.3 56.89,-207.2 75.64,-15.8 441.15,-164.7 233.96,-515.3 -207.18,-350.6 -339.99,-478.1 -674.67,-260.3 -334.69,217.8 -430.1,717 -430.1,717"
         style="fill:#ff9b80;fill-opacity:1;fill-rule:nonzero;stroke:none"
         id="path58" /><path
         d="M 8284.09,5987.9 H 4985.08 c 0,0 -55.46,1498.1 0,2255.5 55.46,756.7 199.53,1306.8 199.53,1306.8 l 1239.29,-82.2 1535.71,-101.4 271.57,-2825.3 52.91,-553.4"
         style="fill:#342d66;fill-opacity:1;fill-rule:nonzero;stroke:none"
         id="path60" /><path
         d="m 6897.55,9135.2 c 0,0 -1115.61,-119.2 -1442.64,-47.8 -326.39,72 -270.3,-2222.9 -270.3,-2629 0,-172.1 40.81,-332.1 112.21,-470.5 h -311.74 c 0,0 -55.46,1498.1 0,2255.5 55.46,756.7 199.53,1306.8 199.53,1306.8 L 6423.9,9468 c 279.22,-172.8 473.65,-332.8 473.65,-332.8"
         style="fill:#4f4a96;fill-opacity:1;fill-rule:nonzero;stroke:none"
         id="path62" /><path
         d="M 8284.09,5987.9 H 6929.43 c 0,0 -103.91,2470.3 -55.47,2326.9 47.18,-143.5 246.71,-1745.5 613.27,-1785 191.89,-20.4 496.6,-6.4 743.95,11.5 l 52.91,-553.4"
         style="fill:#1f1c47;fill-opacity:1;fill-rule:nonzero;stroke:none"
         id="path64" /><path
         d="m 8073.11,12665.6 c 0,0 298.64,-1004 398.25,-1191.3 99.6,-187.2 167.34,-227.1 466.16,-239 298.82,-12 860.61,-43.5 860.61,-43.5 0,0 -749.05,-582.1 -1047.87,-669.7 -298.82,-87.7 -616.54,11.9 -746.54,219.1 -130.01,207.2 -313.17,677.3 -313.17,677.3 l -242.84,795.6 c 0,0 313.48,674.7 625.4,451.5"
         style="fill:#f48e76;fill-opacity:1;fill-rule:nonzero;stroke:none"
         id="path66" /><path
         d="m 8104.8,12004.2 c 0,0 -294.84,215.2 0,235.1 294.84,19.9 856.63,12 1139.51,-35.8 282.89,-47.9 581.71,47.8 713.19,23.9 131.5,-23.9 191.3,35.8 294.8,-43.9 103.6,-79.7 43.9,-183.2 -59.7,-203.2 -103.6,-19.9 -2015.78,-39.3 -2087.8,23.9"
         style="fill:#82cc52;fill-opacity:1;fill-rule:nonzero;stroke:none"
         id="path68" /><path
         d="m 8160.58,11752.8 c 0,0 -191.25,16.4 -151.41,163.8 39.85,147.4 151.41,151.4 366.56,127.5 215.15,-23.9 326.72,-43.8 494.06,-12 167.34,31.9 247.03,109.7 442.26,23 195.23,-86.7 410.38,-3 593.66,0.9 183.29,4 239.09,-37.4 239.09,-132.2 0,-94.9 -8,-194.5 -75.7,-210.4 -67.8,-16 -1705.32,-24.8 -1908.52,39.4"
         style="fill:#342d66;fill-opacity:1;fill-rule:nonzero;stroke:none"
         id="path70" /><path
         d="m 8144.78,11410.6 c 0,0 -99.37,143.4 -71.67,294.8 27.71,151.4 179.11,127.5 350.43,83.7 171.33,-43.8 342.66,-72.6 553.82,-36.3 211.17,36.3 367.02,84.1 562.02,36.3 195,-47.8 406.17,-28.8 497.82,-36.3 91.6,-7.5 155.4,-50.1 155.4,-136.4 0,-86.3 -47.8,-173.9 -119.5,-205.8 -71.8,-31.9 -1840.53,-75.7 -1928.32,0"
         style="fill:#896dcc;fill-opacity:1;fill-rule:nonzero;stroke:none"
         id="path72" /><path
         d="m 8193.78,11167.5 c 0,0 -172.65,267 -104.92,330.7 67.74,63.8 601.63,-47.8 836.71,-47.8 235.07,0 633.5,47.8 844.67,43.8 211.17,-3.9 374.56,-3.9 410.36,-111.5 35.9,-107.6 83.7,-207.2 -51.8,-239.1 -135.44,-31.9 -1386.51,8 -1517.99,0 -131.48,-7.9 -353.21,-22.1 -417.03,23.9"
         style="fill:#ea3f50;fill-opacity:1;fill-rule:nonzero;stroke:none"
         id="path74" /><path
         d="m 7902.24,12501.8 c -137.7,-37 -282.41,-70.1 -282.41,-70.1 0,0 57.37,-467.9 127.5,-1007.3 51.63,-393.9 109.64,-826.8 158.09,-1143 7.65,-53.5 15.3,-103.9 22.95,-149.8 63.11,-389.5 100.73,-623.5 98.18,-759.2 -1.28,-105.2 -26.78,-151.1 -82.24,-165.2 -127.5,-31.8 -527.2,-15.9 -678.28,-58.6 -150.46,-42.1 -1510.86,15.9 -1813.67,106.5 -302.8,90.5 -451.34,-37 -458.99,207.1 -8.29,244.2 98.17,2534.1 98.17,2534.1 l -269.66,1036.5 -130.68,503 c 0,0 196.34,309.2 555.89,532.3 359.55,223.1 481.94,244.2 481.94,244.2 0,0 265.2,-562.9 770.09,-573.8 504.89,-10.2 100.72,632.4 100.72,632.4 0,0 919.27,-180.4 1019.99,-382.5 101.36,-202.1 573.74,-1354.6 520.83,-1402.5 -22.95,-21.6 -128.78,-54.1 -238.42,-84.1"
         style="fill:#ea3f50;fill-opacity:1;fill-rule:nonzero;stroke:none"
         id="path76" /><path
         d="m 8026.55,9372.4 c -1.28,-105.2 -26.78,-151.1 -82.24,-165.2 -127.5,-31.8 -527.2,-15.9 -678.28,-58.6 -150.46,-42.1 -1510.86,15.9 -1813.67,106.5 -302.8,90.5 -451.34,-37 -458.99,207.1 -8.29,244.2 98.17,2534.1 98.17,2534.1 l -269.66,1036.5 c 200.82,139 448.16,219.3 752.24,216.1 0,0 212.93,-248.6 404.17,-981.7 191.25,-733.1 865.08,-871.4 1287.74,-871.4 165.1,0 335.31,12.7 481.3,28.6 51.63,-393.9 109.64,-826.8 158.09,-1143 -585.21,-99.4 -2060.37,-334 -2331.3,-224.4 -339.14,138.4 -463.46,-233.3 -327.03,-467.3 136.42,-233.9 890.58,-255 1889.52,-255 377.39,0 670.64,16.6 889.94,37.7"
         style="fill:#c92d61;fill-opacity:1;fill-rule:nonzero;stroke:none"
         id="path78" /><path
         d="m 4993.05,11605.8 c 0,0 95.62,-1227.2 685.3,-1227.2 589.68,0 2318.87,482.1 2597.77,418.4 278.9,-63.8 751.05,-99.6 1018,-29.9 266.94,69.7 296.83,326.7 181.28,364.6 -115.54,37.8 -753.03,-2 -725.14,59.7 27.89,61.8 137.45,388.5 17.93,356.6 -119.53,-31.8 -117.54,-139.4 -201.21,-187.2 -83.67,-47.8 -304.8,-125.5 -517.96,-163.4 -213.16,-37.8 -1243.11,-9.9 -1454.27,-9.9 -211.18,0 -549.84,0 -561.8,35.8 -11.95,35.9 -207.18,565.8 -207.18,565.8 l -832.72,-183.3"
         style="fill:#ff9b80;fill-opacity:1;fill-rule:nonzero;stroke:none"
         id="path80" /><path
         d="m 4761.96,13598 c 0,0 509.99,318.7 788.89,-294.9 278.91,-613.6 368.73,-1429.7 337.34,-1514 -31.39,-84.3 -972.17,-329.4 -1030.61,-170 -58.43,159.4 -154.05,632.2 -207.18,1030.6 -53.12,398.4 -116.87,807.5 111.56,948.3"
         style="fill:#ea3f50;fill-opacity:1;fill-rule:nonzero;stroke:none"
         id="path82" /><path
         d="m 7902.24,12501.8 c -137.7,-37 -282.41,-70.1 -282.41,-70.1 l -172.12,998.9 454.53,-928.8"
         style="fill:#c92d61;fill-opacity:1;fill-rule:nonzero;stroke:none"
         id="path84" /><path
         d="m 6542.95,14578.1 c 0,0 -192.58,-15.9 -341.32,132.8 -148.75,148.8 -170,194.8 -170,194.8 0,0 407.13,-779.1 439.97,-699.5 32.83,79.7 71.35,371.9 71.35,371.9"
         style="fill:#d66863;fill-opacity:1;fill-rule:nonzero;stroke:none"
         id="path86" /><path
         d="m 21437.8,10860.2 c 0,0 -105.1,-106.7 -252.5,-170.5 -147.4,-63.7 -207.2,-75.5 -159.4,-131.3 47.8,-55.9 59.8,-171.5 111.6,-175.5 51.8,-3.9 350.6,298.9 350.6,298.9 l -50.3,178.4"
         style="fill:#d78560;fill-opacity:1;fill-rule:nonzero;stroke:none"
         id="path88" /><path
         d="m 21735.1,11028.4 322.8,-103.6 c 0,0 179.3,-255 0,-601.6 -179.3,-346.7 -267,-346.7 -267,-346.7 l -302.8,103.6 c 0,0 247,278.9 306.8,486.1 59.8,207.2 -59.8,462.2 -59.8,462.2"
         style="fill:#f9e1a2;fill-opacity:1;fill-rule:nonzero;stroke:none"
         id="path90" /><path
         d="m 21735.1,11028.4 c 0,0 -247,95.6 -358.6,-334.7 -111.5,-430.3 -47.8,-629.5 111.6,-613.6 159.4,16 577.7,737.1 247,948.3"
         style="fill:#ffbb8d;fill-opacity:1;fill-rule:nonzero;stroke:none"
         id="path92" /><path
         d="m 21659.6,10816.1 c 0,0 -118.7,52.4 -172.4,-183.5 -53.6,-236 -23,-345.2 53.7,-336.5 76.6,8.8 277.7,404.2 118.7,520"
         style="fill:#d78560;fill-opacity:1;fill-rule:nonzero;stroke:none"
         id="path94" /><path
         d="m 23205.5,13174.9 c 0,0 -78.5,49.3 -195.4,0 -116.9,-49.4 -286.9,94 -387.8,343.7 -100.9,249.7 -302.8,127.5 -324,483.4 -21.3,356 132.8,738.4 -31.9,1051.9 -164.7,313.4 -191.3,887.2 308.1,1110.3 0,0 302.8,711.8 1110.3,419.7 807.5,-292.2 972.2,-1073.1 1025.3,-1498.1 53.1,-425 497.5,-765 223.1,-1333.2 -274.4,-568.3 -1727.7,-577.7 -1727.7,-577.7"
         style="fill:#252549;fill-opacity:1;fill-rule:nonzero;stroke:none"
         id="path96" /><path
         d="m 22858.7,15957 c 0,0 -337.3,-1391.9 13.3,-1668.1 350.6,-276.2 557.8,-85 557.8,-85 0,0 56.8,-588.8 -101.7,-807 -158.6,-218.3 -105.5,-584.9 186.7,-446.7 292.2,138.1 187.1,385.1 187.1,385.1 0,0 136.7,618.9 107.6,985.5 -29.1,366.5 -98.1,621.5 -246.9,759.6 -148.7,138.2 -189.9,456.9 -299.5,626.9 -109.5,170 -290.2,286.9 -404.4,249.7"
         style="fill:#ffbf9f;fill-opacity:1;fill-rule:nonzero;stroke:none"
         id="path98" /><path
         d="m 25815.1,5987.9 h -3084.2 l 160.6,3227 1999.2,232 c 0,0 94.4,-200.1 219.9,-523.3 133.9,-342.4 302.9,-821.8 433.5,-1349.6 255,-1027.6 271,-1586.1 271,-1586.1"
         style="fill:#342d66;fill-opacity:1;fill-rule:nonzero;stroke:none"
         id="path100" /><path
         d="m 25110.6,8923.6 c -670,-137.1 -1586.7,-422.1 -1661.9,-956.3 -58.6,-415.6 -88.6,-1243.1 -103.9,-1979.4 h -613.9 l 160.6,3227 1999.2,232 c 0,0 94.4,-200.1 219.9,-523.3"
         style="fill:#1f1c47;fill-opacity:1;fill-rule:nonzero;stroke:none"
         id="path102" /><path
         d="m 24733.9,12185.6 c -9.6,-594.8 9.5,-1584.8 29.3,-1822.6 26.8,-323.8 286.9,-897.6 281.8,-1072.9 -5.8,-175.3 -1785,-255 -2034.9,-255 -229.5,0 -189.3,4.5 -190,190.6 0,16 -0.6,34.5 -1.2,53.6 -5.8,130 -17.9,332.1 -38.9,569.3 -17.9,199.5 -41.5,424.5 -72.7,652.8 -17.8,129.4 -38.9,260 -60.6,386.3 -61.2,360.2 -125.5,685.9 -125.5,851 0,213 752.8,1561.9 823.6,1688.1 -19.8,-42.1 -83.5,-203.4 106.5,-184.2 217.3,21 956.2,510 1019.9,510 63.8,0 286.9,-106.5 408.7,-281.8 122.4,-175.3 218,-350.6 218,-350.6 0,0 -292,-286.9 -339.8,-499.2 -12.7,-56.7 -20.4,-219.9 -24.2,-435.4"
         style="fill:#896dcc;fill-opacity:1;fill-rule:nonzero;stroke:none"
         id="path104" /><path
         d="m 25045,9290.1 c -5.8,-175.3 -1785,-255 -2034.9,-255 -229.5,0 -189.3,4.5 -190,190.6 271.6,-59.9 935.9,51 1433.8,154.3 563.5,117.3 498.5,234 -160.1,249.9 -423.2,10.2 -974.7,132.6 -1313.8,218.7 -17.9,199.5 -41.5,424.5 -72.7,652.8 -17.8,129.4 -38.9,260 -60.6,386.3 441.8,-14 1378.3,14.6 1362.4,506.1 -21.7,642.6 244.8,1213.2 244.8,1213.2 0,0 204.6,-170.9 480,-421.4 -9.6,-594.8 9.5,-1584.8 29.3,-1822.6 26.8,-323.8 286.9,-897.6 281.8,-1072.9"
         style="fill:#615ebc;fill-opacity:1;fill-rule:nonzero;stroke:none"
         id="path106" /><path
         d="m 25400.7,10820.1 c -3.8,-14 -20.4,-24.9 -45.3,-32.5 -163.8,-51 -708.2,21.7 -772.6,53.5 -74.6,37 -255,594.8 -361.5,1301.8 -106.4,706.3 502.4,1088.8 502.4,1088.8 0,0 230.8,148.6 374.2,-111.5 143.4,-260.1 334.7,-2194.3 302.8,-2300.1"
         style="fill:#af88e2;fill-opacity:1;fill-rule:nonzero;stroke:none"
         id="path108" /><path
         d="m 25355.4,10787.6 c -9.5,-256.3 -53.5,-819.2 -257.5,-945.4 -265.8,-164.5 -1365.5,10.8 -1593.7,58.6 -228.3,47.9 -1072.9,154.3 -1222.1,186.2 -148.5,31.9 -536.1,100.7 -642.6,159.4 -106.4,58 -119.8,188.7 -67.6,311.7 51.7,123.7 87.4,183.6 179.2,115.4 91.8,-67.6 131.3,-35.7 231.4,-43.4 99.4,-8.3 211,-59.9 266.5,-99.4 56,-40.2 386.3,-75.9 518.2,-75.9 131.4,0 705.1,59.3 1123.3,35.7 418.8,-23.6 645.8,-47.8 673.8,19.8 27.4,67.6 18.5,330.8 18.5,330.8 64.4,-31.8 608.8,-104.5 772.6,-53.5"
         style="fill:#ffbf9f;fill-opacity:1;fill-rule:nonzero;stroke:none"
         id="path110" /><path
         d="M 2773.66,4942.4 H 27226.3 L 26068.5,6695.5 H 3931.51 L 2773.66,4942.4"
         style="fill:#cccccc;fill-opacity:1;fill-rule:nonzero;stroke:none"
         id="path112" /><path
         d="M 2773.66,4942.4 H 27226.3 v -856 H 2773.66 v 856"
         style="fill:#e6e6e6;fill-opacity:1;fill-rule:nonzero;stroke:none"
         id="path114" /><path
         d="m 8900.33,5843 c 0,-165.7 -817.83,-300 -1826.67,-300 -1008.85,0 -1826.68,134.3 -1826.68,300 0,165.7 817.83,300.1 1826.68,300.1 1008.84,0 1826.67,-134.4 1826.67,-300.1"
         style="fill:#b3b3b3;fill-opacity:1;fill-rule:nonzero;stroke:none"
         id="path116" /><path
         d="m 15020.2,5886.3 c 0,-260.1 -1405.1,-470.8 -3138.4,-470.8 -1733.2,0 -3138.34,210.7 -3138.34,470.8 0,260 1405.14,470.8 3138.34,470.8 1733.3,0 3138.4,-210.8 3138.4,-470.8"
         style="fill:#b3b3b3;fill-opacity:1;fill-rule:nonzero;stroke:none"
         id="path118" /><path
         d="m 23031.4,5797 c 0,-309.4 -1516.4,-560.2 -3386.9,-560.2 -1870.6,0 -3386.9,250.8 -3386.9,560.2 0,309.3 1516.3,560.1 3386.9,560.1 1870.5,0 3386.9,-250.8 3386.9,-560.1"
         style="fill:#b3b3b3;fill-opacity:1;fill-rule:nonzero;stroke:none"
         id="path120" /><path
         d="M 10610.9,9354.1 V 5664.3 l -1614.73,311.1 v 3378.7 h 1614.73"
         style="fill:#b26249;fill-opacity:1;fill-rule:nonzero;stroke:none"
         id="path122" /><path
         d="M 14754.6,9354.1 V 5664.3 h -4143.7 v 3689.8 h 4143.7"
         style="fill:#d78560;fill-opacity:1;fill-rule:nonzero;stroke:none"
         id="path124" /><path
         d="m 10610.9,9354.1 749.1,-892.5 h 4191.5 l -749.1,892.5 h -4191.5"
         style="fill:#ffbb8d;fill-opacity:1;fill-rule:nonzero;stroke:none"
         id="path126" /><path
         d="m 10610.9,9354.1 -581.7,-892.5 -1745.11,486.1 733.12,788.9 1593.69,-382.5"
         style="fill:#d78560;fill-opacity:1;fill-rule:nonzero;stroke:none"
         id="path128" /><path
         d="M 14754.6,8461.6 V 8111 h -4143.7 v 1243.1 l 749.1,-892.5 h 3394.6"
         style="fill:#b26249;fill-opacity:1;fill-rule:nonzero;stroke:none"
         id="path130" /><path
         d="m 10610.9,9354.1 v -446.3 l -541.8,-733.1 -1072.93,329.6 v 228.2 l 1033.33,-270.9 581.4,892.5"
         style="fill:#874331;fill-opacity:1;fill-rule:nonzero;stroke:none"
         id="path132" /><path
         d="m 14754.6,5964.6 v -300.3 h -4143.7 v 300.3 h 4143.7"
         style="fill:#b26249;fill-opacity:1;fill-rule:nonzero;stroke:none"
         id="path134" /><path
         d="m 10610.9,5964.6 v -300.3 l -1614.73,311.1 v 339.8 l 1614.73,-350.6"
         style="fill:#874331;fill-opacity:1;fill-rule:nonzero;stroke:none"
         id="path136" /><path
         d="m 14068.2,7213.2 h -858.3 c -71.1,0 -128.7,-57.6 -128.7,-128.7 v -571.6 c 0,-71.1 57.6,-128.7 128.7,-128.7 h 858.3 c 71,0 128.6,57.6 128.6,128.7 v 571.6 c 0,71.1 -57.6,128.7 -128.6,128.7"
         style="fill:#ffbb8d;fill-opacity:1;fill-rule:nonzero;stroke:none"
         id="path138" /><path
         d="m 14065.3,7122.9 h -852.5 c -25.8,0 -46.6,-20.9 -46.6,-46.6 v -555.2 c 0,-25.7 20.8,-46.6 46.6,-46.6 h 852.5 c 25.7,0 46.5,20.9 46.5,46.6 v 555.2 c 0,25.7 -20.8,46.6 -46.5,46.6"
         style="fill:#f3a277;fill-opacity:1;fill-rule:nonzero;stroke:none"
         id="path140" /><path
         d="m 16611.3,5513.2 v 3721.4 h 4167.6 V 5513.2 h -4167.6"
         style="fill:#d78560;fill-opacity:1;fill-rule:nonzero;stroke:none"
         id="path142" /><path
         d="m 20778.9,5513.2 1641.5,382.5 V 9625 L 20778.9,9234.6 V 5513.2"
         style="fill:#b26249;fill-opacity:1;fill-rule:nonzero;stroke:none"
         id="path144" /><path
         d="m 16611.3,9234.6 1346.7,693.2 h 3737.3 l -916.4,-693.2 h -4167.6"
         style="fill:#ffbb8d;fill-opacity:1;fill-rule:nonzero;stroke:none"
         id="path146" /><path
         d="m 22420.4,9625 -942.5,138.4 -699,-528.8 z"
         style="fill:#874331;fill-opacity:1;fill-rule:nonzero;stroke:none"
         id="path148" /><path
         d="m 18047.9,7373.9 h -938 c -71,0 -128.6,-57.6 -128.6,-128.7 V 6077.3 c 0,-71 57.6,-128.6 128.6,-128.6 h 938 c 71.1,0 128.7,57.6 128.7,128.6 v 1167.9 c 0,71.1 -57.6,128.7 -128.7,128.7"
         style="fill:#ffbb8d;fill-opacity:1;fill-rule:nonzero;stroke:none"
         id="path150" /><path
         d="m 18018.6,7218.6 h -879.3 c -15,0 -27.1,-12.1 -27.1,-27.1 V 6131 c 0,-14.9 12.1,-27.1 27.1,-27.1 h 879.3 c 14.9,0 27.1,12.2 27.1,27.1 v 1060.5 c 0,15 -12.2,27.1 -27.1,27.1"
         style="fill:#f3a277;fill-opacity:1;fill-rule:nonzero;stroke:none"
         id="path152" /><path
         d="m 5825.77,6210.5 c 0,0 -207.45,207.1 -77.83,302.8 129.63,95.6 269.08,11.9 508.14,0 239.06,-12 745.06,67.7 996.08,15.9 251.01,-51.8 354.6,-75.7 541.86,-19.9 187.26,55.8 561.79,39.8 657.42,-75.7 95.62,-115.6 11.95,-227.1 -290.86,-223.1 -302.81,3.9 -2334.81,0 -2334.81,0"
         style="fill:#ffa942;fill-opacity:1;fill-rule:nonzero;stroke:none"
         id="path154" /><path
         d="m 5865.62,5862.6 c 0,0 -207.19,232.3 -71.72,391.7 135.47,159.4 410.38,22.1 780.92,60.9 370.55,38.7 581.71,85.5 820.77,18.2 239.06,-67.2 394.45,-59.2 621.55,-51.2 227.11,7.9 423.22,-10.8 414.37,-167.2 -8.84,-156.4 -864.59,-257.6 -1382.55,-252.4 -517.96,5.2 -1095.49,-139 -1183.34,0"
         style="fill:#896dcc;fill-opacity:1;fill-rule:nonzero;stroke:none"
         id="path156" /><path
         d="m 6010.38,5699.1 c 0,0 -248.36,-42.5 -292.19,116.9 -43.82,159.4 322.73,127.5 1063.82,139.5 741.08,11.9 1298.88,123.5 1502.08,79.6 203.2,-43.8 294.84,-295.8 47.81,-341.1 -247.02,-45.3 -2144.88,35.7 -2321.52,5.1"
         style="fill:#ea3f50;fill-opacity:1;fill-rule:nonzero;stroke:none"
         id="path158" /></g></g></svg>
