<?xml version="1.0" encoding="UTF-8" standalone="no"?>
<svg
   xmlns:dc="http://purl.org/dc/elements/1.1/"
   xmlns:cc="http://creativecommons.org/ns#"
   xmlns:rdf="http://www.w3.org/1999/02/22-rdf-syntax-ns#"
   xmlns:svg="http://www.w3.org/2000/svg"
   xmlns="http://www.w3.org/2000/svg"
   xmlns:sodipodi="http://sodipodi.sourceforge.net/DTD/sodipodi-0.dtd"
   xmlns:inkscape="http://www.inkscape.org/namespaces/inkscape"
   version="1.1"
   id="svg2"
   xml:space="preserve"
   width="3179.3333"
   height="2246"
   viewBox="0 0 3179.3333 2246"
   sodipodi:docname="vecteezy_volunteers-stylish-and-abstract-team-help-charity-and-share_5611304.eps"><metadata
     id="metadata8"><rdf:RDF><cc:Work
         rdf:about=""><dc:format>image/svg+xml</dc:format><dc:type
           rdf:resource="http://purl.org/dc/dcmitype/StillImage" /></cc:Work></rdf:RDF></metadata><defs
     id="defs6" /><sodipodi:namedview
     pagecolor="#ffffff"
     bordercolor="#666666"
     borderopacity="1"
     objecttolerance="10"
     gridtolerance="10"
     guidetolerance="10"
     inkscape:pageopacity="0"
     inkscape:pageshadow="2"
     inkscape:window-width="640"
     inkscape:window-height="480"
     id="namedview4" /><g
     id="g10"
     inkscape:groupmode="layer"
     inkscape:label="ink_ext_XXXXXX"
     transform="matrix(1.3333333,0,0,-1.3333333,0,2246)"><g
       id="g12"
       transform="scale(0.1)"><path
         d="m 9759.07,14320.2 c -201.81,-421 -125.15,-834.7 -559.94,-1345.2 -466.29,-547.5 -999.77,-733.7 -1854.09,-941.2 C 6449.57,11816.3 5583.23,11400.7 4949.78,10731.4 3850.14,9569.63 3749.98,7329.93 4259.07,5952 5631.06,2238.5 12836.7,-45.1992 17299.4,2786.5 c 2725.6,1729.4 4589.4,5469.28 3742.3,7562.3 -203.6,503.1 -754.8,1382.9 -1205.9,2017.1 -179.3,252.1 -1003.8,1411.3 -1779.5,2072.7 -2499.1,2130.7 -7461.1,1625.7 -8297.23,-118.4"
         style="fill:#dcf9f8;fill-opacity:1;fill-rule:nonzero;stroke:none"
         id="path14" /><path
         d="m 11164.8,6969.2 c 27,-28.9 0.7,-104.1 -60.2,-207.6 C 10912,6434.5 10373.9,5824.3 10085.3,5497.1 9022.46,4292.1 8988.96,4172.5 8233.2,3851 7781.91,3659 7371.61,3612.5 7113.1,3601 l -184,319.4 -981.2,1702.8 c 0,0 1240.8,3277.6 1758.7,3039.61 C 8221.8,8426 7517.9,6887.2 7510.6,6871.2 7533,6891.8 10533.3,9646.8 10752,9396.8 10971.5,9146 8998.2,7417.1 8998.2,7417.1 c 18.9,-31.3 46.4,-63.61 84.7,-70.59 83,-15.21 166.9,96.79 190.6,126.99 242.3,308 1856.3,1794.1 2098.9,1626.01 18.6,-12.91 28.9,-35.21 34.8,-76.51 102.1,-716.2 -1857.2,-2024.39 -1787.8,-2121.21 5.8,-8.09 29.3,-12.59 138.9,38.91 735.8,680.29 1562.6,1377.2 1745.1,1225.69 26.3,-21.79 31.7,-54.48 34,-73.19 60.4,-505.1 -1789.1,-1901.5 -1789.1,-1901.5 -3.7,-24.8 -4.2,-54.3 12.3,-66.4 66.1,-48.7 317.5,246.3 663.5,494.1 234.6,167.9 669.2,426.3 740.7,349.8"
         style="fill:#f7b9a6;fill-opacity:1;fill-rule:nonzero;stroke:none"
         id="path16" /><path
         d="m 13985.7,12444.4 c 39.2,-568.6 1745.1,-451 1745.1,-451 0,0 -3666.6,-1843.1 -3509.8,-2137.25 156.9,-294.12 2078.5,450.95 2078.5,450.95 0,0 -2490.2,-921.54 -1960.8,-1196.05 529.4,-274.51 2568.6,823.53 2568.6,823.53 0,0 -2196.1,-1039.21 -1745.1,-1274.51 451,-235.29 2411.8,1000 2411.8,1000 0,0 -1823.6,-1098.04 -1039.3,-1117.65 784.4,-19.6 3333.4,1117.65 3764.8,1705.88 431.3,588.2 684.3,893.2 684.3,893.2 L 17451.1,13013 c 0,0 -3504.6,0 -3465.4,-568.6"
         style="fill:#f7b9a6;fill-opacity:1;fill-rule:nonzero;stroke:none"
         id="path18" /><path
         d="m 23840,16840 v -3020.6 l -4253.5,-2194 -1291.8,2003.4 3335.3,3211.2 h 2210"
         style="fill:#0071bc;fill-opacity:1;fill-rule:nonzero;stroke:none"
         id="path20" /><path
         d="m 23840,16840 h -5 V 13822.5 L 19588.2,11632 18301.1,13628.1 21632,16835 h 2208 v 5 h -5 5 v 5 h -2212 l -3339.7,-3215.4 1296.4,-2010.7 4260.3,2197.5 V 16845 h -5 v -5"
         style="fill:#000000;fill-opacity:1;fill-rule:nonzero;stroke:none"
         id="path22" /><path
         d="M 7113.1,3601 3259.8,0 H 0 v 2391.2 l 5947.9,3232 356.5,-618.7 0.2,-0.4 365.7,-634.6 0.4,-0.7 258.4,-448.4 184,-319.4"
         style="fill:#d4145a;fill-opacity:1;fill-rule:nonzero;stroke:none"
         id="path24" /><path
         d="m 16854.7,6470.1 c -2198.3,-504.6 -5459.5,-120.8 -6056.2,457.4 -28,27.1 -55.4,81 -81.6,158.2 -331.3,975.8 -459.3,5672.1 1203.1,6924.3 961.6,724.3 2439.7,761.6 3388.8,-232.9 737.2,-772.5 1041.7,-1918.3 71.6,-3217.7 20.5,10.2 41,20.2 61.5,30 1429.5,682.7 2670.4,229.3 3267.3,-654 749.6,-1109.1 -562.7,-3168.9 -1854.5,-3465.3"
         style="fill:#ed1c24;fill-opacity:1;fill-rule:nonzero;stroke:none"
         id="path26" /><path
         d="m 16883,12994.5 c 0,0 -3162.3,27.3 -2738.8,-452.7 423.5,-480 2230.6,-705.9 2230.6,-705.9 l 508.2,1158.6"
         style="fill:#f7b9a6;fill-opacity:1;fill-rule:nonzero;stroke:none"
         id="path28" /><path
         d="m 16787.6,11376.3 c -68.3,0 -136.7,1.6 -204.8,4.4 -106.7,4.2 -217.4,12.2 -310.7,64.1 -83.3,46.4 -309.7,283.8 -236.8,395.9 14.6,22.5 41.8,32.4 76.6,33.7 49.3,-7.8 93,-14.5 130,-20 131.9,-36.4 285.2,-111.1 341.8,-130.9 223.6,-78.4 462.9,-121.4 700.3,-121.4 294.4,0 585.8,66.2 840.1,213.2 -194.6,-194.1 -453.5,-315 -721.2,-377.1 -201.4,-46.8 -408.3,-61.9 -615.3,-61.9"
         style="fill:#dfa796;fill-opacity:1;fill-rule:nonzero;stroke:none"
         id="path30" /><path
         d="m 16241.9,11854.4 c -37,5.5 -80.7,12.2 -130,20 2.7,0.2 5.5,0.2 8.3,0.2 35.1,0 77.2,-7.9 121.7,-20.2"
         style="fill:#dfa796;fill-opacity:1;fill-rule:nonzero;stroke:none"
         id="path32" /><path
         d="m 14500,6235.8 c -1404.9,0 -2762.3,210 -3407.1,506.2 -98.4,45.2 -180,92.3 -242.9,141.06 -18.8,14.66 -36.1,29.51 -51.5,44.44 -19.5,18.9 -38.8,50.84 -57.5,94.63 -8.1,18.99 -16.2,40.21 -24.1,63.57 823.2,-290 1704.3,-416.2 2590.5,-416.2 657.3,0 1317.4,69.4 1958.9,192.9 540.2,104 1080.4,246.7 1559.3,517.2 479,270.4 895.7,681.2 1084.8,1197.7 181,494.3 127.1,1096.2 -215.7,1509.4 -285.4,344.2 -689.3,472.7 -1127.8,472.7 -4,0 -8.1,0 -12.2,0 -0.1,0 -0.3,0 -0.4,0 -46.8,0 -50.9,40.9 -82.7,81.9 -31.8,40.9 -91.3,81.9 -248.9,81.9 -145.7,0 -375.3,-35 -744.3,-137.3 -19.7,-5.5 -32.4,-8 -38.9,-8 -8.4,0 -6.9,4.1 2.4,11.5 479.4,229 937.8,330.2 1357.6,330.2 832,0 1513,-397.2 1909.7,-984.2 151.9,-224.75 219.1,-488.53 219,-768.76 C 18927.8,8063.93 17884.7,6706.4 16854.7,6470.1 16139.6,6305.9 15311.8,6235.8 14500,6235.8"
         style="fill:#d61920;fill-opacity:1;fill-rule:nonzero;stroke:none"
         id="path34" /><path
         d="M 3259.8,0 H 856.402 C 2770.2,928 4613.9,2000.6 6366.6,3205.6 c 103.5,71.2 502.8,247.2 511.9,522.6 0.6,19.3 -1.2,35.7 -5,67.7 -29.4,251.6 -131,441.6 -202.8,572.9 L 6929.1,3920.4 7113.1,3601 6678.96,3195.3 3259.8,0"
         style="fill:#bf1251;fill-opacity:1;fill-rule:nonzero;stroke:none"
         id="path36" /><path
         d="m 17451.1,13013 936,472.5 1063.7,-1649.6 -467,-694.4 -1532.7,1871.5"
         style="fill:#f7b9a6;fill-opacity:1;fill-rule:nonzero;stroke:none"
         id="path38" /><path
         d="m 19426.1,11799.2 c -109.5,76.7 -221.9,195.2 -312.6,297.9 -133.6,151.3 -279.3,335.1 -351.4,523.6 245.7,-251.3 520.8,-573 664,-821.5 v 0"
         style="fill:#dfa796;fill-opacity:1;fill-rule:nonzero;stroke:none"
         id="path40" /><path
         d="m 9773,5608.5 c -49.54,170.1 -102.15,337.8 -167.8,499.6 -65.19,161.9 -142.47,318.2 -235.46,464.3 -92.94,145.9 -202.19,281.45 -327.51,401.39 -125.08,120.27 -266.83,223.67 -423.04,307.25 169.53,-52.88 326.97,-145.68 464.81,-260.5 137.86,-115.35 256.55,-253.54 353.2,-405.14 96.68,-151.7 171.63,-316.2 227.1,-485.7 55.08,-169.9 92.06,-344.7 108.7,-521.2"
         style="fill:#dfa796;fill-opacity:1;fill-rule:nonzero;stroke:none"
         id="path42" /><path
         d="m 7145.62,4783.1 c 20.64,25.7 43.71,48.4 68.69,68.8 -21.85,-23.9 -44.74,-46.8 -68.69,-68.8 m 68.69,68.8 c 179.24,195.7 288.46,451.5 339.87,713.1 57.66,293.5 47.61,596 22.29,894 -10.9,128.1 -39.98,138.5 72.55,146.9 2.38,0.2 4.8,0.2 7.29,0.2 65.12,0 166.59,-59.1 222.81,-84.1 145.44,-64.7 282.19,-148.8 406.18,-248.5 247.81,-199.4 445.54,-462.8 558.6,-760.8 20.95,-55.2 36.82,-124.2 -3.08,-167.7 -22.1,-24.1 -55.77,-33.1 -87.52,-41.1 -372.62,-92.7 -745.24,-185.5 -1117.86,-278.3 -148.18,-36.9 -305.27,-79.3 -421.13,-173.7"
         style="fill:#eab09e;fill-opacity:1;fill-rule:nonzero;stroke:none"
         id="path44" /><path
         d="m 6729.08,12206 c 0,-59.3 -48.13,-107.4 -107.49,-107.4 -59.37,0 -107.5,48.1 -107.5,107.4 0,59.4 48.13,107.5 107.5,107.5 59.36,0 107.49,-48.1 107.49,-107.5"
         style="fill:#65c8d0;fill-opacity:1;fill-rule:nonzero;stroke:none"
         id="path46" /><path
         d="m 6729.08,12206 h -5 c 0,-28.3 -11.46,-53.9 -30.02,-72.4 -18.56,-18.6 -44.16,-30 -72.47,-30 -28.32,0 -53.92,11.4 -72.48,30 -18.56,18.5 -30.02,44.1 -30.02,72.4 0,28.4 11.46,54 30.02,72.5 18.56,18.6 44.16,30 72.48,30 28.31,0 53.91,-11.4 72.47,-30 18.56,-18.5 30.02,-44.1 30.02,-72.5 h 5 5 c 0,62.2 -50.36,112.5 -112.49,112.5 -62.14,0 -112.5,-50.3 -112.5,-112.5 0,-62.1 50.36,-112.4 112.5,-112.4 62.13,0 112.49,50.3 112.49,112.4 h -5"
         style="fill:#e6e6e6;fill-opacity:1;fill-rule:nonzero;stroke:none"
         id="path48" /><path
         d="m 6944.07,14427 c 0,-59.3 -48.13,-107.5 -107.49,-107.5 -59.37,0 -107.5,48.2 -107.5,107.5 0,59.4 48.13,107.5 107.5,107.5 59.36,0 107.49,-48.1 107.49,-107.5"
         style="fill:#65c8d0;fill-opacity:1;fill-rule:nonzero;stroke:none"
         id="path50" /><path
         d="m 6944.07,14427 h -5 c 0,-28.3 -11.46,-53.9 -30.02,-72.4 -18.56,-18.6 -44.16,-30.1 -72.47,-30.1 -28.32,0 -53.92,11.5 -72.48,30.1 -18.55,18.5 -30.02,44.1 -30.02,72.4 0,28.4 11.47,53.9 30.02,72.5 18.56,18.6 44.16,30 72.48,30 28.31,0 53.91,-11.4 72.47,-30 18.56,-18.6 30.02,-44.1 30.02,-72.5 h 5 5 c 0,62.2 -50.36,112.5 -112.49,112.5 -62.14,0 -112.49,-50.3 -112.5,-112.5 0.01,-62.1 50.36,-112.5 112.5,-112.5 62.13,0 112.49,50.4 112.49,112.5 h -5"
         style="fill:#e6e6e6;fill-opacity:1;fill-rule:nonzero;stroke:none"
         id="path52" /><path
         d="m 9451.58,15232.2 c 0,-30 -24.3,-54.3 -54.28,-54.3 -29.98,0 -54.29,24.3 -54.29,54.3 0,30 24.31,54.3 54.29,54.3 29.98,0 54.28,-24.3 54.28,-54.3"
         style="fill:#65c8d0;fill-opacity:1;fill-rule:nonzero;stroke:none"
         id="path54" /><path
         d="m 9451.58,15232.2 h -5 c 0,-13.6 -5.51,-25.9 -14.43,-34.8 -8.94,-9 -21.23,-14.5 -34.85,-14.5 -13.63,0 -25.92,5.5 -34.85,14.5 -8.93,8.9 -14.43,21.2 -14.44,34.8 0.01,13.6 5.51,25.9 14.44,34.9 8.93,8.9 21.22,14.4 34.85,14.4 13.62,0 25.91,-5.5 34.85,-14.4 8.92,-9 14.43,-21.3 14.43,-34.9 h 5 5 c 0,32.8 -26.54,59.3 -59.28,59.3 -32.74,0 -59.28,-26.5 -59.29,-59.3 0.01,-32.7 26.55,-59.3 59.29,-59.3 32.74,0 59.28,26.6 59.28,59.3 h -5"
         style="fill:#e6e6e6;fill-opacity:1;fill-rule:nonzero;stroke:none"
         id="path56" /><path
         d="m 7392.61,13180.9 c 0,-30 -24.3,-54.3 -54.28,-54.3 -29.99,0 -54.29,24.3 -54.29,54.3 0,30 24.3,54.3 54.29,54.3 29.98,0 54.28,-24.3 54.28,-54.3"
         style="fill:#65c8d0;fill-opacity:1;fill-rule:nonzero;stroke:none"
         id="path58" /><path
         d="m 7392.61,13180.9 h -5 c 0,-13.7 -5.51,-26 -14.43,-34.9 -8.94,-8.9 -21.23,-14.4 -34.85,-14.4 -13.63,0 -25.92,5.5 -34.85,14.4 -8.93,8.9 -14.43,21.2 -14.44,34.9 0.01,13.6 5.51,25.9 14.44,34.8 8.93,8.9 21.22,14.5 34.85,14.5 13.62,0 25.91,-5.6 34.85,-14.5 8.92,-8.9 14.43,-21.2 14.43,-34.8 h 5 5 c 0,32.7 -26.54,59.3 -59.28,59.3 -32.75,0 -59.28,-26.6 -59.29,-59.3 0.01,-32.8 26.54,-59.3 59.29,-59.3 32.74,0 59.28,26.5 59.28,59.3 h -5"
         style="fill:#e6e6e6;fill-opacity:1;fill-rule:nonzero;stroke:none"
         id="path60" /><path
         d="m 5690.83,15232.2 c 0,-118.7 -96.26,-215 -215,-215 -118.73,0 -214.99,96.3 -214.99,215 0,118.7 96.26,215 214.99,215 118.74,0 215,-96.3 215,-215"
         style="fill:#65c8d0;fill-opacity:1;fill-rule:nonzero;stroke:none"
         id="path62" /><path
         d="m 5690.83,15232.2 h -5 c -0.01,-58 -23.5,-110.4 -61.51,-148.5 -38.02,-38 -90.48,-61.5 -148.49,-61.5 -58,0 -110.46,23.5 -148.48,61.5 -38.01,38.1 -61.5,90.5 -61.51,148.5 0.01,58 23.5,110.5 61.51,148.5 38.02,38 90.48,61.5 148.48,61.5 58.01,0 110.47,-23.5 148.49,-61.5 38.01,-38 61.5,-90.5 61.51,-148.5 h 5 4.99 c 0,121.5 -98.49,220 -219.99,220 -121.49,0 -219.98,-98.5 -219.99,-220 0.01,-121.5 98.5,-220 219.99,-220 121.5,0 219.99,98.5 219.99,220 h -4.99"
         style="fill:#e6e6e6;fill-opacity:1;fill-rule:nonzero;stroke:none"
         id="path64" /><path
         d="m 7736.59,15485.6 c 0,-109.9 -89.15,-199.1 -199.13,-199.1 -109.98,0 -199.13,89.2 -199.13,199.1 0,110 89.15,199.2 199.13,199.2 109.98,0 199.13,-89.2 199.13,-199.2"
         style="fill:#fcd2d8;fill-opacity:1;fill-rule:nonzero;stroke:none"
         id="path66" /><path
         d="m 7736.59,15485.6 h -5 c 0,-53.6 -21.72,-102.1 -56.86,-137.2 -35.15,-35.2 -83.65,-56.9 -137.27,-56.9 -53.62,0 -102.13,21.7 -137.27,56.9 -35.14,35.1 -56.86,83.6 -56.87,137.2 0.01,53.7 21.73,102.2 56.87,137.3 35.14,35.1 83.64,56.9 137.27,56.9 53.62,0 102.12,-21.8 137.27,-56.9 35.14,-35.1 56.86,-83.6 56.86,-137.3 h 5 5 c 0,112.8 -91.39,204.2 -204.13,204.2 -112.74,0 -204.13,-91.4 -204.13,-204.2 0,-112.7 91.39,-204.1 204.13,-204.1 112.74,0 204.13,91.4 204.13,204.1 h -5"
         style="fill:#e6e6e6;fill-opacity:1;fill-rule:nonzero;stroke:none"
         id="path68" /><path
         d="m 8547.77,14536.2 c 0,-60.3 -48.85,-109.2 -109.13,-109.2 -60.27,0 -109.13,48.9 -109.13,109.2 0,60.2 48.86,109.1 109.13,109.1 60.28,0 109.13,-48.9 109.13,-109.1"
         style="fill:#fcd2d8;fill-opacity:1;fill-rule:nonzero;stroke:none"
         id="path70" /><path
         d="m 8547.77,14536.2 h -5 c 0,-28.8 -11.64,-54.8 -30.5,-73.7 -18.85,-18.8 -44.86,-30.5 -73.63,-30.5 -28.77,0 -54.77,11.7 -73.63,30.5 -18.85,18.9 -30.5,44.9 -30.5,73.7 0,28.7 11.65,54.7 30.5,73.6 18.86,18.9 44.86,30.5 73.63,30.5 28.77,0 54.78,-11.6 73.63,-30.5 18.86,-18.9 30.5,-44.9 30.5,-73.6 h 5 5 c 0,63 -51.09,114.1 -114.13,114.1 -63.03,0 -114.13,-51.1 -114.13,-114.1 0,-63.1 51.1,-114.2 114.13,-114.2 63.04,0 114.13,51.1 114.13,114.2 h -5"
         style="fill:#e6e6e6;fill-opacity:1;fill-rule:nonzero;stroke:none"
         id="path72" /><path
         d="m 5069.72,13290 c 0,-60.3 -48.86,-109.1 -109.13,-109.1 -60.27,0 -109.13,48.8 -109.13,109.1 0,60.3 48.86,109.1 109.13,109.1 60.27,0 109.13,-48.8 109.13,-109.1"
         style="fill:#fcd2d8;fill-opacity:1;fill-rule:nonzero;stroke:none"
         id="path74" /><path
         d="m 5069.72,13290 h -5 c 0,-28.8 -11.65,-54.8 -30.5,-73.6 -18.86,-18.9 -44.86,-30.5 -73.63,-30.5 -28.77,0 -54.77,11.6 -73.63,30.5 -18.86,18.8 -30.5,44.8 -30.51,73.6 0.01,28.8 11.65,54.8 30.51,73.6 18.86,18.9 44.86,30.5 73.63,30.5 28.77,0 54.77,-11.6 73.63,-30.5 18.85,-18.8 30.5,-44.8 30.5,-73.6 h 5 5 c 0,63 -51.1,114.1 -114.13,114.1 -63.04,0 -114.13,-51.1 -114.13,-114.1 0,-63 51.09,-114.1 114.13,-114.1 63.03,0 114.13,51.1 114.13,114.1 h -5"
         style="fill:#e6e6e6;fill-opacity:1;fill-rule:nonzero;stroke:none"
         id="path76" /><path
         d="m 8547.77,13013 c 0,-60.3 -48.85,-109.1 -109.13,-109.1 -60.27,0 -109.13,48.8 -109.13,109.1 0,60.3 48.86,109.1 109.13,109.1 60.28,0 109.13,-48.8 109.13,-109.1"
         style="fill:#fcd2d8;fill-opacity:1;fill-rule:nonzero;stroke:none"
         id="path78" /><path
         d="m 8547.77,13013 h -5 c 0,-28.8 -11.64,-54.8 -30.5,-73.6 -18.86,-18.9 -44.86,-30.5 -73.63,-30.5 -28.77,0 -54.77,11.6 -73.63,30.5 -18.85,18.8 -30.5,44.8 -30.5,73.6 0,28.8 11.65,54.8 30.5,73.6 18.86,18.9 44.86,30.5 73.63,30.5 28.77,0 54.77,-11.6 73.63,-30.5 18.86,-18.8 30.5,-44.8 30.5,-73.6 h 5 5 c 0,63 -51.09,114.1 -114.13,114.1 -63.03,0 -114.13,-51.1 -114.13,-114.1 0,-63 51.1,-114.1 114.13,-114.1 63.04,0 114.13,51.1 114.13,114.1 h -5"
         style="fill:#e6e6e6;fill-opacity:1;fill-rule:nonzero;stroke:none"
         id="path80" /><path
         d="m 21020.8,2944.3 c 0,-59.4 -48.1,-107.5 -107.5,-107.5 -59.3,0 -107.5,48.1 -107.5,107.5 0,59.4 48.2,107.5 107.5,107.5 59.4,0 107.5,-48.1 107.5,-107.5"
         style="fill:#65c8d0;fill-opacity:1;fill-rule:nonzero;stroke:none"
         id="path82" /><path
         d="m 21020.8,2944.3 h -5 c 0,-28.3 -11.4,-53.9 -30,-72.5 -18.6,-18.5 -44.1,-30 -72.5,-30 -28.3,0 -53.9,11.5 -72.4,30 -18.6,18.6 -30.1,44.2 -30.1,72.5 0,28.3 11.5,53.9 30.1,72.5 18.5,18.5 44.1,30 72.4,30 28.4,0 53.9,-11.5 72.5,-30 18.6,-18.6 30,-44.2 30,-72.5 h 5 5 c 0,62.1 -50.3,112.5 -112.5,112.5 -62.1,0 -112.5,-50.4 -112.5,-112.5 0,-62.1 50.4,-112.5 112.5,-112.5 62.2,0 112.5,50.4 112.5,112.5 h -5"
         style="fill:#e6e6e6;fill-opacity:1;fill-rule:nonzero;stroke:none"
         id="path84" /><path
         d="m 21469.4,1698.1 c 0,-29.9 -24.3,-54.2 -54.3,-54.2 -30,0 -54.3,24.3 -54.3,54.2 0,30 24.3,54.3 54.3,54.3 30,0 54.3,-24.3 54.3,-54.3"
         style="fill:#65c8d0;fill-opacity:1;fill-rule:nonzero;stroke:none"
         id="path86" /><path
         d="m 21469.4,1698.1 h -5 c 0,-13.6 -5.5,-25.9 -14.5,-34.8 -8.9,-8.9 -21.2,-14.4 -34.8,-14.4 -13.6,0 -25.9,5.5 -34.9,14.4 -8.9,8.9 -14.4,21.2 -14.4,34.8 0,13.7 5.5,26 14.4,34.9 9,8.9 21.3,14.4 34.9,14.4 13.6,0 25.9,-5.5 34.8,-14.4 9,-8.9 14.5,-21.2 14.5,-34.9 h 5 5 c 0,32.8 -26.6,59.3 -59.3,59.3 -32.8,0 -59.3,-26.5 -59.3,-59.3 0,-32.7 26.5,-59.2 59.3,-59.2 32.7,0 59.3,26.5 59.3,59.2 h -5"
         style="fill:#e6e6e6;fill-opacity:1;fill-rule:nonzero;stroke:none"
         id="path88" /><path
         d="m 19767.6,3749.5 c 0,-118.7 -96.3,-215 -215,-215 -118.7,0 -215,96.3 -215,215 0,118.7 96.3,215 215,215 118.7,0 215,-96.3 215,-215"
         style="fill:#65c8d0;fill-opacity:1;fill-rule:nonzero;stroke:none"
         id="path90" /><path
         d="m 19767.6,3749.5 h -5 c 0,-58 -23.5,-110.5 -61.5,-148.5 -38,-38 -90.5,-61.5 -148.5,-61.5 -58,0 -110.5,23.5 -148.5,61.5 -38,38 -61.5,90.5 -61.5,148.5 0,58 23.5,110.5 61.5,148.5 38,38 90.5,61.5 148.5,61.5 58,0 110.5,-23.5 148.5,-61.5 38,-38 61.5,-90.5 61.5,-148.5 h 5 5 c 0,121.5 -98.5,220 -220,220 -121.5,0 -220,-98.5 -220,-220 0,-121.5 98.5,-220 220,-220 121.5,0 220,98.5 220,220 h -5"
         style="fill:#e6e6e6;fill-opacity:1;fill-rule:nonzero;stroke:none"
         id="path92" /><path
         d="m 21813.4,4002.9 c 0,-110 -89.2,-199.1 -199.2,-199.1 -110,0 -199.1,89.1 -199.1,199.1 0,110 89.1,199.1 199.1,199.1 110,0 199.2,-89.1 199.2,-199.1"
         style="fill:#fcd2d8;fill-opacity:1;fill-rule:nonzero;stroke:none"
         id="path94" /><path
         d="m 21813.4,4002.9 h -5 c 0,-53.6 -21.8,-102.1 -56.9,-137.3 -35.1,-35.1 -83.7,-56.8 -137.3,-56.8 -53.6,0 -102.1,21.7 -137.2,56.8 -35.2,35.2 -56.9,83.7 -56.9,137.3 0,53.6 21.7,102.1 56.9,137.3 35.1,35.1 83.6,56.8 137.2,56.8 53.6,0 102.2,-21.7 137.3,-56.8 35.1,-35.2 56.9,-83.7 56.9,-137.3 h 5 5 c 0,112.8 -91.4,204.1 -204.2,204.1 -112.7,0 -204.1,-91.3 -204.1,-204.1 0,-112.7 91.4,-204.1 204.1,-204.1 112.8,0 204.2,91.4 204.2,204.1 h -5"
         style="fill:#e6e6e6;fill-opacity:1;fill-rule:nonzero;stroke:none"
         id="path96" /><path
         d="m 22624.5,3053.4 c 0,-60.2 -48.8,-109.1 -109.1,-109.1 -60.3,0 -109.1,48.9 -109.1,109.1 0,60.3 48.8,109.2 109.1,109.2 60.3,0 109.1,-48.9 109.1,-109.2"
         style="fill:#fcd2d8;fill-opacity:1;fill-rule:nonzero;stroke:none"
         id="path98" /><path
         d="m 22624.5,3053.4 h -5 c 0,-28.7 -11.6,-54.7 -30.5,-73.6 -18.8,-18.8 -44.8,-30.5 -73.6,-30.5 -28.8,0 -54.8,11.7 -73.6,30.5 -18.9,18.9 -30.5,44.9 -30.5,73.6 0,28.8 11.6,54.8 30.5,73.7 18.8,18.8 44.8,30.5 73.6,30.5 28.8,0 54.8,-11.7 73.6,-30.5 18.9,-18.9 30.5,-44.9 30.5,-73.7 h 5 5 c 0,63.1 -51.1,114.2 -114.1,114.2 -63,0 -114.1,-51.1 -114.1,-114.2 0,-63 51.1,-114.1 114.1,-114.1 63,0 114.1,51.1 114.1,114.1 h -5"
         style="fill:#e6e6e6;fill-opacity:1;fill-rule:nonzero;stroke:none"
         id="path100" /><path
         d="m 19146.5,1807.3 c 0,-60.3 -48.9,-109.2 -109.1,-109.2 -60.3,0 -109.2,48.9 -109.2,109.2 0,60.2 48.9,109.1 109.2,109.1 60.2,0 109.1,-48.9 109.1,-109.1"
         style="fill:#fcd2d8;fill-opacity:1;fill-rule:nonzero;stroke:none"
         id="path102" /><path
         d="m 19146.5,1807.3 h -5 c 0,-28.8 -11.7,-54.8 -30.5,-73.7 -18.9,-18.8 -44.9,-30.5 -73.6,-30.5 -28.8,0 -54.8,11.7 -73.7,30.5 -18.8,18.9 -30.5,44.9 -30.5,73.7 0,28.7 11.7,54.7 30.5,73.6 18.9,18.9 44.9,30.5 73.7,30.5 28.7,0 54.7,-11.6 73.6,-30.5 18.8,-18.9 30.5,-44.9 30.5,-73.6 h 5 5 c 0,63 -51.1,114.1 -114.1,114.1 -63.1,0 -114.2,-51.1 -114.2,-114.1 0,-63.1 51.1,-114.2 114.2,-114.2 63,0 114.1,51.1 114.1,114.2 h -5"
         style="fill:#e6e6e6;fill-opacity:1;fill-rule:nonzero;stroke:none"
         id="path104" /><path
         d="m 22624.5,1530.3 c 0,-60.3 -48.8,-109.1 -109.1,-109.1 -60.3,0 -109.1,48.8 -109.1,109.1 0,60.3 48.8,109.1 109.1,109.1 60.3,0 109.1,-48.8 109.1,-109.1"
         style="fill:#fcd2d8;fill-opacity:1;fill-rule:nonzero;stroke:none"
         id="path106" /><path
         d="m 22624.5,1530.3 h -5 c 0,-28.8 -11.6,-54.8 -30.5,-73.6 -18.8,-18.9 -44.8,-30.5 -73.6,-30.5 -28.8,0 -54.8,11.6 -73.6,30.5 -18.9,18.8 -30.5,44.8 -30.5,73.6 0,28.8 11.6,54.8 30.5,73.6 18.8,18.9 44.8,30.5 73.6,30.5 28.8,0 54.8,-11.6 73.6,-30.5 18.9,-18.8 30.5,-44.8 30.5,-73.6 h 5 5 c 0,63 -51.1,114.1 -114.1,114.1 -63,0 -114.1,-51.1 -114.1,-114.1 0,-63 51.1,-114.1 114.1,-114.1 63,0 114.1,51.1 114.1,114.1 h -5"
         style="fill:#e6e6e6;fill-opacity:1;fill-rule:nonzero;stroke:none"
         id="path108" /></g></g></svg>
