<?xml version="1.0" encoding="UTF-8" standalone="no"?>
<svg
   xmlns:dc="http://purl.org/dc/elements/1.1/"
   xmlns:cc="http://creativecommons.org/ns#"
   xmlns:rdf="http://www.w3.org/1999/02/22-rdf-syntax-ns#"
   xmlns:svg="http://www.w3.org/2000/svg"
   xmlns="http://www.w3.org/2000/svg"
   viewBox="0 0 4000 3200"
   height="3200"
   width="4000"
   xml:space="preserve"
   id="svg2"
   version="1.1"><metadata
     id="metadata8"><rdf:RDF><cc:Work
         rdf:about=""><dc:format>image/svg+xml</dc:format><dc:type
           rdf:resource="http://purl.org/dc/dcmitype/StillImage" /></cc:Work></rdf:RDF></metadata><defs
     id="defs6" /><g
     transform="matrix(1.3333333,0,0,-1.3333333,0,3200)"
     id="g10"><g
       transform="scale(0.1)"
       id="g12"><g
         transform="scale(1.84049)"
         id="g14"><path
           id="path16"
           style="fill:none;fill-opacity:1;fill-rule:nonzero;stroke:none"
           d="M 16300,0 H 0 V 13040 H 16300 V 0" /></g><g
         transform="scale(1.69919)"
         id="g18"><path
           id="path20"
           style="fill:#e9f2f2;fill-opacity:1;fill-rule:nonzero;stroke:none"
           d="M 12678.9,8499.55 C 11926.2,9919.14 10074,11953.7 8749.05,10283.7 6349.49,7259.34 4647.36,10499.5 4026.54,8499.55 3090.07,5482.61 1432.45,5986.79 1355.45,3826.18 H 16300 c -826.8,3689.22 -2868.3,3253.78 -3621.1,4673.37" /></g><g
         transform="scale(1.69919)"
         id="g22"><path
           id="path24"
           style="fill:#cadddd;fill-opacity:1;fill-rule:nonzero;stroke:none"
           d="m 16300,3826.18 c 0,-338.64 -3345.4,-613.12 -7472.27,-613.12 -4126.83,0 -7472.28,274.48 -7472.28,613.12 0,338.63 3345.45,613.11 7472.28,613.11 4126.87,0 7472.27,-274.48 7472.27,-613.11" /></g><g
         transform="scale(1.14289)"
         id="g26"><path
           id="path28"
           style="fill:#799cad;fill-opacity:1;fill-rule:nonzero;stroke:none"
           d="m 16300,5764.77 c 0,-196.6 -1710.6,-356.02 -3820.7,-356.02 -2110,0 -3820.51,159.42 -3820.51,356.02 0,196.7 1710.51,356.03 3820.51,356.03 2110.1,0 3820.7,-159.33 3820.7,-356.03" /></g><g
         transform="scale(1.357)"
         id="g30"><path
           id="path32"
           style="fill:#799cad;fill-opacity:1;fill-rule:nonzero;stroke:none"
           d="m 16300,4855.19 c 0,-145.91 -770.7,-264.18 -1721.4,-264.18 -950.8,0 -1721.5,118.27 -1721.5,264.18 0,145.91 770.7,264.19 1721.5,264.19 950.7,0 1721.4,-118.28 1721.4,-264.19" /></g><g
         transform="scale(1.65936)"
         id="g34"><path
           id="path36"
           style="fill:#799cad;fill-opacity:1;fill-rule:nonzero;stroke:none"
           d="m 16300,4078.74 c 0,-119.33 -630.2,-216.11 -1407.8,-216.11 -777.4,0 -1407.7,96.78 -1407.7,216.11 0,119.32 630.3,216.04 1407.7,216.04 777.6,0 1407.8,-96.72 1407.8,-216.04" /></g><path
         id="path38"
         style="fill:#799cad;fill-opacity:1;fill-rule:nonzero;stroke:none"
         d="m 11450.9,6588.5 c 0,-198 -1933.24,-358.5 -4318,-358.5 -2384.76,0 -4317.99,160.5 -4317.99,358.5 0,198 1933.23,358.5 4317.99,358.5 2384.76,0 4318,-160.5 4318,-358.5" /><path
         id="path40"
         style="fill:#ff9b80;fill-opacity:1;fill-rule:nonzero;stroke:none"
         d="m 9565.7,12158.7 c 0,0 58.22,-255 -29.11,-438 -87.33,-183 -160.11,-292.1 -194.07,-235.1 -33.96,57 -354.17,673.1 223.18,673.1" /><path
         id="path42"
         style="fill:#6f6f87;fill-opacity:1;fill-rule:nonzero;stroke:none"
         d="m 9620.69,7387.9 c 0,0 45.28,-116.4 22.64,-284.6 -22.64,-168.2 -61.45,-381.7 171.43,-388.1 232.84,-6.5 773.04,-77.7 811.84,48.5 38.8,126.1 -310.5,223.2 -391.4,258.7 -80.8,35.6 -245.79,210.3 -245.79,252.3 0,42.1 -197.3,216.7 -368.72,113.2" /><path
         id="path44"
         style="fill:#6f6f87;fill-opacity:1;fill-rule:nonzero;stroke:none"
         d="m 6727.47,8078.5 c 0,0 -111.59,-208.6 -242.58,-262 -131,-53.4 -160.11,-203.8 72.77,-426.9 232.88,-223.2 562.8,-485.2 621.02,-436.7 58.22,48.5 -19.41,313.7 -155.26,467.3 -135.84,153.7 -24.25,454.5 -24.25,454.5 l -271.7,203.8" /><path
         id="path46"
         style="fill:#342d66;fill-opacity:1;fill-rule:nonzero;stroke:none"
         d="m 10093.2,7310.6 c 0,-181.7 -446.38,0 -576.02,0 -129.63,0 -368.72,1746.6 -446.35,2088.9 -77.63,343.1 -426.95,1546.3 -426.95,1546.3 0,0 -281.78,-792.5 -464.98,-1286.2 -40.37,-109.5 -76.07,-204.2 -102.47,-272.5 -147.49,-375.7 -998.28,-1624 -1068.92,-1637.2 -71.42,-12.4 -298.09,168.5 -381.92,252.3 -83.84,84.6 659.83,1229.6 782.48,1462.5 98.58,186.3 227.44,1141.1 317.49,1784.7 0,0.7 0,0.7 0,0.7 23.28,161.5 43.47,303.5 59.77,409.1 82.29,524 291.1,805 291.1,805 189.41,108.7 1261.44,-77.6 1261.44,-77.6 l 62.87,-388.2 c 0,0 246.08,-1266 267.82,-1401.9 20.18,-121.9 344.64,-2514.3 412.24,-3143.9 7.7,-73.7 12.4,-123.4 12.4,-142" /><path
         id="path48"
         style="fill:#252549;fill-opacity:1;fill-rule:nonzero;stroke:none"
         d="m 8427.98,15089.2 c 0,0 -189.21,4.8 -271.69,177.1 -82.48,172.2 -189.21,504.5 147.98,606.4 337.19,101.9 460.91,274.5 528.83,210 67.92,-64.4 123.72,-178.5 77.62,-277.9 -46.09,-99.5 -223.17,-618.6 -327.48,-672 -104.31,-53.4 -155.26,-43.6 -155.26,-43.6" /><path
         id="path50"
         style="fill:#ff9b80;fill-opacity:1;fill-rule:nonzero;stroke:none"
         d="m 8445.16,14827.2 c 0,0 33.77,21.8 11.93,147.9 -21.83,126.2 -29.11,114.1 -29.11,114.1 0,0 101.89,43.6 80.06,114 -21.84,70.3 -138.27,63.1 -138.27,133.4 0,70.3 46.27,101.9 97.12,63.1 50.85,-38.8 66.69,-31.6 44.21,33.9 -22.47,65.5 -102.53,184.4 30.9,208.7 133.42,24.2 196.49,55.7 266.84,89.7 70.35,34 101.88,72.8 101.88,72.8 0,0 208.63,-570.1 140.71,-722.9 -67.93,-152.8 -274.13,-97 -274.13,-97 0,0 38.66,-129.1 104.23,-167.7 65.58,-38.5 114.1,-303 -29.03,-322.4 -143.12,-19.4 -422.8,207.3 -407.34,332.4" /><path
         id="path52"
         style="fill:#ffa942;fill-opacity:1;fill-rule:nonzero;stroke:none"
         d="m 9653.03,12095.5 c -6.21,-11.7 -13.97,-21.8 -23.28,-31.1 -72.98,-69.8 -229.01,-66 -229.01,-66 l -62.87,388.2 c 0,0 -204.16,-38.8 -499.92,-19.4 -69.86,4.6 -129.63,3.9 -183.2,0 -172.33,-12.4 -278.68,-56.7 -452.56,-52.8 -228.23,4.6 -319.83,130.4 -281.01,397.4 38.81,267.1 67.53,873.3 67.53,873.3 -6.99,-10.1 -13.19,-20.1 -19.4,-31 -43.48,-69.9 -145.94,-239.1 -166.13,-303.5 -24.06,-77.7 -209.59,-1148.9 -246.07,-1331.3 -1.56,-10.9 -3.88,-18.7 -4.66,-22.5 -19.41,-77.7 -223.56,-53.6 -354.75,0 -130.41,53.5 131.19,1227.2 155.25,1474.9 24.84,247.6 281.79,694 514.67,1043.3 232.87,349.3 577.54,412.2 577.54,412.2 5.43,-12.4 13.19,-24.9 21.73,-37.3 69.09,-89.3 225.12,-159.1 366.4,-142 152.93,18.6 30.28,166.1 20.19,178.5 23.28,-7 389.68,-128.1 460.32,-203.4 72.2,-77.6 183.98,-625.7 183.98,-863.2 0,-237.5 34.15,-325.3 72.97,-567.5 38.81,-242.9 135.84,-994.4 82.28,-1096.8" /><path
         id="path54"
         style="fill:#ff8243;fill-opacity:1;fill-rule:nonzero;stroke:none"
         d="m 8246.44,12493.7 c 83.83,-43.5 243.75,-89.3 408.31,-126.5 -172.33,-12.4 -278.68,-56.7 -452.56,-52.8 -228.23,4.6 -319.83,130.4 -281.01,397.4 38.81,267.1 67.53,873.3 67.53,873.3 0,0 72.97,48.9 135.85,198.8 63.65,150.6 121.1,364 121.1,364 0,0 10.09,-344.6 -101.7,-713.4 -111,-368.7 -91.59,-839.1 102.48,-940.8" /><path
         id="path56"
         style="fill:#ff8243;fill-opacity:1;fill-rule:nonzero;stroke:none"
         d="m 9629.75,12064.4 c -72.98,-69.8 -229.01,-66 -229.01,-66 l -62.87,388.2 c 0,0 125.75,145.9 86.94,426.9 -38.81,281.8 -116.44,756.9 -131.19,926.9 -13.97,170 -13.97,567.4 -13.97,567.4 0,0 130.41,-1004.4 179.31,-1237.3 48.91,-232.9 116.45,-427 58.22,-669.2 -45.8,-189.4 -25.61,-314.4 112.57,-336.9" /><path
         id="path58"
         style="fill:#ffc043;fill-opacity:1;fill-rule:nonzero;stroke:none"
         d="m 8466.89,14789.9 c -138.95,-75.3 -445.58,-255.4 -554.25,-433.1 -142.06,-232.9 -200.28,-427 -292.65,-616.4 -91.6,-189.4 -111.79,-136.6 -189.41,-587.6 -77.63,-450.3 -208.05,-1120.2 -145.16,-1193.2 30.27,-34.9 111,-43.4 187.07,-43.4 h 2.33 c 29.5,0 58.22,1.5 82.29,3.1 -1.56,-10.9 -3.88,-18.7 -4.66,-22.5 -6.99,-30.3 -41.92,-45.1 -90.04,-48.2 -63.66,-5.4 -151.38,9.3 -225.12,33.4 -13.97,4.7 -27.17,9.3 -39.59,14.8 -130.41,53.5 131.19,1227.2 155.25,1474.9 24.84,247.6 281.79,694 514.67,1043.3 232.87,349.3 577.54,412.2 577.54,412.2 5.43,-12.4 13.19,-24.9 21.73,-37.3" /><path
         id="path60"
         style="fill:#d66863;fill-opacity:1;fill-rule:nonzero;stroke:none"
         d="m 8777.3,14984.9 -194.06,41.2 c 0,0 179.51,-349.3 194.06,-279 14.56,70.4 0,237.8 0,237.8" /><path
         id="path62"
         style="fill:#1f1c47;fill-opacity:1;fill-rule:nonzero;stroke:none"
         d="m 10093.2,7310.6 c 0,-181.7 -446.38,0 -576.02,0 -129.63,0 -368.72,1746.6 -446.35,2088.9 -77.63,343.1 -426.95,1546.3 -426.95,1546.3 0,0 200.28,808.9 200.28,666.1 0,-142.1 -31.83,-873.3 201.05,-1222.7 232.88,-349.3 97.04,-569 245.31,-905.1 149.04,-336.9 239.86,-1889.4 621.01,-2012.1 55.11,-17.8 112.57,-22.5 169.27,-19.4 7.7,-73.7 12.4,-123.4 12.4,-142" /><path
         id="path64"
         style="fill:#1f1c47;fill-opacity:1;fill-rule:nonzero;stroke:none"
         d="m 8178.9,9659.6 c -40.37,-109.5 -76.07,-204.2 -102.47,-272.5 -147.49,-375.7 -998.28,-1624 -1068.92,-1637.2 -71.42,-12.4 -298.09,168.5 -381.92,252.3 -83.84,84.6 659.83,1229.6 782.48,1462.5 98.58,186.3 227.44,1141.1 317.49,1784.7 77.62,-208.1 192.52,-546.5 326.03,-1041 54.34,-198.8 95.48,-382.7 127.31,-548.8" /><path
         id="path66"
         style="fill:#ffbb8d;fill-opacity:1;fill-rule:nonzero;stroke:none"
         d="m 7979.4,8709.4 c -256.95,-451.8 -1353.81,-707.2 -2023.73,-174.7 -668.37,531 -122.66,1094.6 213.47,1531.6 0.78,0.8 0.78,1.6 0.78,1.6 334.57,436.2 1149.65,1207.8 1149.65,1251.3 0,11.7 -4.66,28 -13.19,44.3 -22.52,44.2 -73.75,89.2 -137.41,56.6 -87.72,-44.2 -82.28,-192.5 -135.84,-231.3 -53.56,-38.8 -29.5,33.4 -55.89,96.3 -27.18,63.6 -55.9,-38.9 -138.18,-145.2 -82.28,-106.4 -68.31,232.9 24.07,441.7 92.37,208 305.84,121.1 305.84,121.1 0,0 97.04,-53.6 140.51,-101.7 8.54,-10.1 17.85,-19.4 28.72,-29.5 40.37,-40.4 93.93,-76.9 156.03,-72.2 77.63,4.7 121.1,-141.3 140.51,-249.9 19.4,-108.7 601.6,-2089 344.66,-2540" /><path
         id="path68"
         style="fill:#ff9b80;fill-opacity:1;fill-rule:nonzero;stroke:none"
         d="m 7537.7,11484.6 c 0,0 -121.1,12.4 -179.32,-48.9 -24.06,-25.7 -39.59,-51.3 -52,-72.2 -17.08,-29.5 -28.73,-49.7 -49.69,-44.3 -36.48,10.1 -124.2,135.9 -131.19,206.5 -7.76,69.9 82.29,213.5 94.71,239.9 8.54,19.4 14.75,81.5 17.08,116.4 73.74,-24.1 161.46,-38.8 225.12,-33.4 -4.67,-45 -0.78,-104.8 36.48,-148.2 68.31,-80 38.81,-215.8 38.81,-215.8" /><path
         id="path70"
         style="fill:#d78560;fill-opacity:1;fill-rule:nonzero;stroke:none"
         d="m 7979.4,8709.4 c -256.95,-451.8 -1353.81,-707.2 -2023.73,-174.7 -668.37,531 -122.66,1094.6 213.47,1531.6 -19.41,-52.8 -419.96,-1153.5 -154.48,-1342.9 271.7,-194.1 1173.72,-300.4 1474.92,330.7 300.41,630.3 77.62,1911.1 54.33,2124.6 -22.51,213.5 -237.53,184.8 -237.53,184.8 12.41,20.9 27.94,46.5 52,72.2 58.22,61.3 179.32,48.9 179.32,48.9 51.23,-38.9 81.51,-148.3 97.04,-235.2 19.4,-108.7 601.6,-2089 344.66,-2540" /><path
         id="path72"
         style="fill:#d78560;fill-opacity:1;fill-rule:nonzero;stroke:none"
         d="m 6409.89,9727.3 c 47.53,-24 97.23,-42.9 150.57,-53.2 -17.84,-108.2 -26.66,-216.8 -25.91,-326 -58.24,13.2 -116.04,28.6 -173.31,47 10.13,111.4 26.27,222.2 48.65,332.2 z m 334.08,-64.6 c -21.3,-114.4 -34.58,-229.5 -30.97,-346.7 -40.36,5.4 -80.51,11.7 -120.37,19.4 -1.5,111.1 7.3,221.4 25.57,331.3 41.71,-3.7 83.66,-4.9 125.77,-4 z m 259.81,-364.2 c -78.45,-1.1 -155.78,2.7 -232.24,10.6 -4.19,119.9 9.9,237.8 32.19,355.1 34.1,0.8 68.16,1.2 101.97,-0.2 37.46,-1.7 37.38,56.5 0,58.2 -30.07,1.3 -60.22,0.9 -90.39,0.2 12.09,57.1 25.69,114.1 39.82,171.1 9.01,36.4 -47.12,51.9 -56.15,15.5 -15.52,-62.7 -30.33,-125.3 -43.37,-187.9 -42.49,-1.1 -84.94,-1.4 -127.16,2.2 2.98,15 4.8,30 8.16,45 8.18,36.5 -47.94,52.1 -56.14,15.5 -3.76,-16.8 -5.89,-33.6 -9.19,-50.3 -52.42,11.1 -101.57,30.1 -148.59,54.4 22.62,100.6 49.88,200.6 83.19,299.9 11.95,35.5 -44.26,50.8 -56.14,15.4 -31.87,-94.9 -57.95,-190.5 -80.17,-286.5 -20.64,12.2 -41.17,24.7 -61.6,37.7 -31.66,20.3 -60.89,-30.1 -29.39,-50.2 25.51,-16.4 51.25,-32.2 77.29,-47.4 -23.86,-113.4 -40.98,-227.4 -51.91,-342.2 -43.01,15.2 -85.86,31.3 -128.38,49.3 -34.09,14.5 -63.8,-35.6 -29.38,-50.3 50.75,-21.5 101.88,-40.5 153.21,-58.2 -14.89,-195.4 -12.66,-392.8 7.86,-592.3 3.8,-36.9 62.07,-37.3 58.22,0 -19.8,192.5 -22.35,383.5 -8.77,572.8 59.21,-18.6 118.97,-34 179.14,-47.3 1.59,-42.3 3.59,-84.7 7.92,-127.2 3.77,-36.9 62.03,-37.3 58.23,0 -3.93,38.5 -5.63,76.8 -7.31,115.1 40.48,-7.7 81.23,-14 122.22,-19.3 0.82,-10.2 1.02,-20.3 2.12,-30.5 3.95,-36.9 62.21,-37.3 58.22,0 -0.84,7.8 -0.96,15.5 -1.62,23.3 75.08,-7.4 151.05,-10.8 228.14,-9.7 37.44,0.5 37.54,58.7 0,58.2" /><path
         id="path74"
         style="fill:#d78560;fill-opacity:1;fill-rule:nonzero;stroke:none"
         d="m 7145.67,10867.5 c 9.24,-30.9 21.85,-59.1 40.18,-82.9 -59.5,-64.8 -115.26,-132.8 -167.17,-204.3 -19.08,27.2 -36.88,55.7 -53.05,86 57.68,69.4 117.68,136.5 180.04,201.2 z m 114.73,-148.9 c -64,-67.9 -124.81,-138.7 -179.27,-216.3 -15.04,16.4 -29.53,33.4 -43.19,51.2 52.43,72.8 109.03,142 169.56,207.9 16.41,-15.8 34.13,-29.9 52.9,-42.8 z m -60.92,-320.6 c -34.7,24.4 -66.58,51.6 -96.18,81.1 55.54,79.6 118.06,152 183.82,221.3 15.25,-10.4 30.33,-20.9 44.36,-32.7 15.55,-13 43.35,25 27.84,38 -12.47,10.4 -25.8,19.8 -39.28,29 32.57,33.4 65.74,66.2 99.16,98.9 21.32,20.8 4.27,48.9 -17.07,28 -36.74,-35.9 -73.11,-72 -108.76,-108.7 -19.02,12.9 -37.68,26.3 -54.37,42.1 8.47,8.8 16.46,18 25.1,26.8 21.01,21.1 4.01,49.2 -17.07,28 -9.65,-9.7 -18.62,-20 -28.08,-29.9 -17.5,24 -29.87,52.1 -38.73,83 57.95,58.3 117.67,114.9 179.64,169 22.22,19.4 5.03,47.3 -17.07,28 -59.31,-51.8 -116.38,-105.8 -171.97,-161.3 -3.16,14.6 -6.13,29.3 -8.79,44.3 -4.11,23.3 -40.94,-0.2 -36.84,-23.4 3.31,-18.8 6.95,-37.3 11.04,-55.6 -64.6,-66.3 -126.61,-135.2 -186.25,-206.6 -11.49,23.7 -22.48,47.8 -32.38,73.2 -7.93,20.3 -44.85,-2.9 -36.84,-23.4 11.81,-30.3 25.03,-59 38.95,-86.9 -99.96,-122.7 -193.37,-252.2 -279.8,-388.9 -15.99,-25.2 9.22,-44.1 25.37,-18.6 83.39,131.9 173.62,257.3 270.08,376.5 16.92,-31.1 35.56,-60.3 55.44,-88.2 -19.55,-28.1 -38.92,-56.3 -57.37,-85.5 -16.01,-25.2 9.19,-44.1 25.37,-18.6 16.69,26.4 34.27,51.9 51.86,77.5 13.95,-18 28.69,-35.2 44.04,-51.7 -4.51,-6.9 -9.25,-13.5 -13.66,-20.6 -15.9,-25.3 9.3,-44.1 25.38,-18.6 3.37,5.4 7.01,10.5 10.44,15.8 29.19,-28.8 60.68,-55.3 94.79,-79.3 16.56,-11.6 44.44,26.3 27.83,38" /><path
         id="path76"
         style="fill:#d78560;fill-opacity:1;fill-rule:nonzero;stroke:none"
         d="m 14831.8,8481.2 h -2762.2 v 1397.3 h 2762.2 V 8481.2" /><path
         id="path78"
         style="fill:#b26249;fill-opacity:1;fill-rule:nonzero;stroke:none"
         d="M 15067.5,8478.1 V 6579.3 h -3192 v 1898.8 h 3192" /><path
         id="path80"
         style="fill:#f3a277;fill-opacity:1;fill-rule:nonzero;stroke:none"
         d="m 14184.9,7111.4 h -1449 v 834.5 h 1449 v -834.5" /><path
         id="path82"
         style="fill:#d78560;fill-opacity:1;fill-rule:nonzero;stroke:none"
         d="m 14068.5,7216.5 h -1216.2 v 624.3 h 1216.2 v -624.3" /><path
         id="path84"
         style="fill:#874331;fill-opacity:1;fill-rule:nonzero;stroke:none"
         d="M 15067.5,8478.1 V 6579.3 h -558.9 v 1898.8 h 558.9" /><g
         transform="scale(1.12225)"
         id="g86"><path
           id="path88"
           style="fill:#f3a277;fill-opacity:1;fill-rule:nonzero;stroke:none"
           d="m 16300,7632.25 h -3372.1 v 253.6 H 16300 v -253.6" /></g><g
         transform="scale(1.11312)"
         id="g90"><path
           id="path92"
           style="fill:#d78560;fill-opacity:1;fill-rule:nonzero;stroke:none"
           d="M 16300,5858.38 H 13167.6 V 7694.84 H 16300 V 5858.38" /></g><g
         transform="scale(1.0536)"
         id="g94"><path
           id="path96"
           style="fill:#ffbb8d;fill-opacity:1;fill-rule:nonzero;stroke:none"
           d="m 16300,6969.09 h -1823.6 v 792.05 H 16300 v -792.05" /></g><g
         transform="scale(1.04764)"
         id="g98"><path
           id="path100"
           style="fill:#f3a277;fill-opacity:1;fill-rule:nonzero;stroke:none"
           d="m 16300,7095.2 h -1648.7 v 623.69 H 16300 V 7095.2" /></g><g
         transform="scale(1.11312)"
         id="g102"><path
           id="path104"
           style="fill:#b26249;fill-opacity:1;fill-rule:nonzero;stroke:none"
           d="m 16300,7537.89 h -3132.4 v 156.95 H 16300 v -156.95" /></g><g
         transform="scale(1.11312)"
         id="g106"><path
           id="path108"
           style="fill:#b26249;fill-opacity:1;fill-rule:nonzero;stroke:none"
           d="m 16300,5858.38 h -3132.4 v 156.95 H 16300 v -156.95" /></g><path
         id="path110"
         style="fill:#b26249;fill-opacity:1;fill-rule:nonzero;stroke:none"
         d="M 11875.5,8209.5 H 10445.9 V 6579.3 h 1429.6 v 1630.2" /><path
         id="path112"
         style="fill:#d78560;fill-opacity:1;fill-rule:nonzero;stroke:none"
         d="m 11875.5,8209.5 v 207 l -1429.6,336.4 -38.8,-187.6 1468.4,-355.8" /><path
         id="path114"
         style="fill:#ffbb8d;fill-opacity:1;fill-rule:nonzero;stroke:none"
         d="m 13450.7,9063.4 h -1141.8 v 608.1 h 1141.8 v -608.1" /><path
         id="path116"
         style="fill:#b26249;fill-opacity:1;fill-rule:nonzero;stroke:none"
         d="m 15931.5,8849.9 h -752 v 1513.7 h 752 V 8849.9" /><g
         transform="scale(1.11312)"
         id="g118"><path
           id="path120"
           style="fill:#d78560;fill-opacity:1;fill-rule:nonzero;stroke:none"
           d="M 16300,7950.52 H 14024.8 V 9310.38 H 16300 V 7950.52" /></g><g
         transform="scale(1.14289)"
         id="g122"><path
           id="path124"
           style="fill:#ffbb8d;fill-opacity:1;fill-rule:nonzero;stroke:none"
           d="m 13659.5,9067.89 373.6,-386.3 H 16300 l -424.5,386.3 h -2216" /></g><g
         transform="scale(1.11312)"
         id="g126"><path
           id="path128"
           style="fill:#c17252;fill-opacity:1;fill-rule:nonzero;stroke:none"
           d="M 14024.8,8769.92 H 16300 v 143.83 h -1891.6 l -383.6,396.63 v -540.46" /></g><path
         id="path130"
         style="fill:#874331;fill-opacity:1;fill-rule:nonzero;stroke:none"
         d="m 11565,6579.3 h 310.5 V 8209.5 H 11565 V 6579.3" /><path
         id="path132"
         style="fill:#ffbf9f;fill-opacity:1;fill-rule:nonzero;stroke:none"
         d="m 3943.07,6510.9 c -68.28,-105.6 -593.38,-14.6 -768.18,58.7 -163.66,69.9 -171.57,157.7 -94.65,336.2 5.37,12.2 10.97,25.1 16.79,38.7 93.77,204.3 184.58,1572.5 184.58,1572.5 l 477.74,-81.3 c 0,0 -324.21,-1448.3 -286.12,-1556.7 17.85,-50.2 136.38,-111 251.71,-171.7 129.76,-69.2 254.16,-140 218.13,-196.4" /><path
         id="path134"
         style="fill:#0f0f28;fill-opacity:1;fill-rule:nonzero;stroke:none"
         d="m 3943.07,6510.9 c -68.28,-105.6 -593.38,-14.6 -768.18,58.7 -163.66,69.9 -171.57,157.7 -94.65,336.2 54.28,-11 132.23,-37.4 200.93,-99.2 120.85,-108.7 259.36,-131.1 352.79,-136.3 48.91,-2.1 75.96,17.2 90.98,37 129.76,-69.2 254.16,-140 218.13,-196.4" /><path
         id="path136"
         style="fill:#ffbf9f;fill-opacity:1;fill-rule:nonzero;stroke:none"
         d="m 5944.05,6758.6 c -34.16,-121.1 -562.8,-188.6 -751.43,-170 -176.99,18.7 -210.37,100.2 -189.41,293.5 1.56,13.2 3.1,27.1 4.66,41.9 29.5,222.8 -286.44,1557.2 -286.44,1557.2 l 480.5,62.9 c 0,0 116.44,-1479.6 184.76,-1572 31.82,-42.7 163.01,-66 291.1,-90 144.38,-28 284.11,-59 266.26,-123.5" /><path
         id="path138"
         style="fill:#342d66;fill-opacity:1;fill-rule:nonzero;stroke:none"
         d="m 5236.09,8451.7 c -48.9,-38.8 -504.57,-106.4 -543.38,-62.9 -38.82,44.2 -92.38,495.3 -135.85,665.3 -42.69,165.3 -540.29,2147.1 -562.8,2195.3 0,-42 -121.1,-2462.4 -165.34,-2661.1 -43.48,-199.5 -4.66,-262.4 -82.28,-262.4 -31.83,0 -130.42,14.8 -234.44,38.1 -149.82,33.3 -313.61,84.6 -313.61,136.6 0,87.7 72.19,558.1 82.28,645.1 10.1,87.7 -145.16,1909.6 -121.09,2172.7 6.98,76.9 143.6,139 333.79,178.6 459.55,96.2 1237.37,66 1283.17,-178.6 0,0 381.93,-2012.8 430.05,-2317.9 18.63,-118.8 34.93,-222.8 44.25,-306.6 15.53,-132.8 14.75,-218.2 -14.75,-242.2" /><path
         id="path140"
         style="fill:#1f1c47;fill-opacity:1;fill-rule:nonzero;stroke:none"
         d="m 3891.6,11159.3 c 0,0 -106.36,-107.1 -426.95,-61.3 -319.83,45 -18.63,-899.7 0,-1119.4 20.18,-220.5 -77.63,-1002.2 -106.35,-1243.6 -17.07,-140.5 55.89,-276.3 153.7,-371 -149.82,33.3 -313.61,84.6 -313.61,136.6 0,87.7 72.19,558.1 82.28,645.1 10.1,87.7 -145.16,1909.6 -121.09,2172.7 6.98,76.9 143.6,139 333.79,178.6 223.56,-149.1 398.23,-337.7 398.23,-337.7" /><path
         id="path142"
         style="fill:#1f1c47;fill-opacity:1;fill-rule:nonzero;stroke:none"
         d="m 5236.09,8451.7 c -48.9,-38.8 -504.57,-106.4 -543.38,-62.9 -38.82,44.2 -92.38,495.3 -135.85,665.3 -42.69,165.3 -540.29,2147.1 -562.8,2195.3 l 142.06,181.6 c 0,0 250.74,-801.9 435.49,-1570.4 183.97,-767.7 305.07,-1124.8 494.48,-1166 46.57,-10 111.78,-8.5 184.75,-0.7 15.53,-132.8 14.75,-218.2 -14.75,-242.2" /><path
         id="path144"
         style="fill:#252549;fill-opacity:1;fill-rule:nonzero;stroke:none"
         d="m 3657.49,14620.2 c 0,0 -260.38,12.9 -354.17,239.3 -93.8,226.4 147.83,524 147.83,524 0,0 -322.5,122.9 -96.09,313.7 226.41,190.9 320.21,110 355.79,42.1 35.59,-67.9 16.18,-106.8 16.18,-106.8 0,0 239.35,61.5 368.72,-25.8 129.38,-87.4 132.61,-194.1 132.61,-194.1 0,0 113.21,0 122.91,-168.2 9.71,-168.2 -171.42,-359 -171.42,-359 0,0 -391.37,-274.9 -522.36,-265.2" /><path
         id="path146"
         style="fill:#ffbf9f;fill-opacity:1;fill-rule:nonzero;stroke:none"
         d="m 3568.54,14350.1 c 0,0 109.97,32.3 129.38,85.7 19.4,53.4 -40.43,184.4 -40.43,184.4 0,0 56.6,84.1 14.55,169.8 -42.04,85.7 -77.63,32.3 -82.48,119.6 -4.85,87.4 23.92,123 112.23,98.7 88.31,-24.3 199.89,30.7 287.23,111.6 87.33,80.9 135.84,213.5 205.38,163.3 69.55,-50.1 71.16,-114.8 67.93,-287.8 -3.24,-173.1 -19.41,-344.5 -92.18,-393 -72.78,-48.5 -152.02,-35.6 -152.02,-35.6 0,0 6.46,-98.7 56.6,-114.8 50.13,-16.2 174.66,-37.2 174.66,-37.2 0,0 82.48,-258.8 -106.74,-372 -189.21,-113.2 -457.67,-14.5 -502.95,40.4 -45.29,55 -128.14,244.3 -71.16,266.9" /><path
         id="path148"
         style="fill:#896dcc;fill-opacity:1;fill-rule:nonzero;stroke:none"
         d="m 4667.86,12214.3 c 62.88,-364.1 245.3,-978.9 141.29,-1040.2 -8.54,-4.7 -19.41,-10.1 -32.61,-14.8 -155.25,-55.9 -624.12,-95.5 -1088.33,-19.4 -504.57,82.3 -601.6,82.3 -582.2,281.8 19.41,198.7 226.67,1264.5 242.2,1626.3 7.76,193.2 -61.33,526.3 -127.31,795.6 -59,236.8 -114.89,423.9 -114.89,423.9 0,0 13.2,41.9 194.07,87.7 180.87,45 281.01,31.8 281.01,31.8 0,0 77.63,-303.5 385.03,-287.2 307.4,15.5 178.54,339.2 291.1,342.3 113.33,3.1 368.73,-25.6 456.45,-155.2 86.94,-129.6 454.11,-682.4 454.11,-682.4 l -442.63,-17.6 c 0,0 -101.08,197.7 -77.02,124.8 24.07,-73 117.54,-267.1 88.05,-504.6 -10.87,-86.2 -31.06,-189.4 -49.69,-302.7 -32.6,-200.3 -60.54,-434 -23.29,-663 1.56,-8.5 3.11,-17.8 4.66,-27.1" /><path
         id="path150"
         style="fill:#615ebc;fill-opacity:1;fill-rule:nonzero;stroke:none"
         d="m 4776.54,11159.3 c -155.25,-55.9 -624.12,-95.5 -1088.33,-19.4 -504.57,82.3 -601.6,82.3 -582.2,281.8 19.41,198.7 226.67,1264.5 242.2,1626.3 7.76,193.2 -61.33,526.3 -127.31,795.6 68.31,74.6 137.4,116.5 204.93,116.5 0,0 97.81,-200.3 116.45,-520.1 20.18,-320.6 58.99,-416.9 301.19,-434 236.76,-17 815.86,-97.8 843.02,-101.6 -32.6,-200.3 -60.54,-434 -23.29,-663 1.56,-8.5 3.11,-17.8 4.66,-27.1 -131.96,-49 -324.48,-102.5 -402.1,-89.3 -116.44,19.4 -446.36,-68.3 -568.23,-34.2 -121.1,34.2 -106.35,281 -203.38,315.2 -97.04,34.1 -145.94,-67.5 -155.26,-295.8 -9.31,-228.2 -155.25,-775.5 140.5,-860.8 295.77,-85.4 756.09,-154.5 1297.15,-90.1" /><path
         id="path152"
         style="fill:#af88e2;fill-opacity:1;fill-rule:nonzero;stroke:none"
         d="m 3106.01,14267.6 c 0,0 281.4,42.1 320.21,-307.3 38.81,-349.3 36.11,-860.2 -35.31,-895.8 -71.42,-35.7 -304.3,-74.5 -339.88,-51.9 -35.58,22.7 -171.43,1145 54.98,1255" /><path
         id="path154"
         style="fill:#ffbb8d;fill-opacity:1;fill-rule:nonzero;stroke:none"
         d="m 5934.73,12498.4 -1540.12,-159.9 -614.8,-63.7 -115.66,1189.2 601.61,69.9 1533.13,177.8 135.84,-1213.3" /><path
         id="path156"
         style="fill:#ffbb8d;fill-opacity:1;fill-rule:nonzero;stroke:none"
         d="m 4265.88,13533.6 358.7,-283.2 1610.76,198.9 -436.65,262 -1532.81,-177.7" /><path
         id="path158"
         style="fill:#d78560;fill-opacity:1;fill-rule:nonzero;stroke:none"
         d="m 4394.61,12338.5 -614.8,-63.7 -115.66,1189.2 601.61,69.9 128.85,-1195.4" /><path
         id="path160"
         style="fill:#ffbf9f;fill-opacity:1;fill-rule:nonzero;stroke:none"
         d="m 3073.67,13019.1 c 0,0 25.87,-252.3 210.24,-333.1 184.36,-80.9 714.81,-177.9 769.8,-242.6 54.98,-64.7 135.84,-171.4 284.63,-168.2 148.78,3.2 174.66,55 122.91,74.4 -51.75,19.4 -219.95,116.4 -171.43,132.6 48.52,16.2 87.33,45.3 -3.23,71.1 -90.57,25.9 -129.38,12.9 -287.87,93.8 -158.49,80.9 -381.66,226.5 -481.93,304.1 -100.27,77.6 -145.55,135.8 -145.55,135.8 0,0 -158.49,-100.2 -297.57,-67.9" /><path
         id="path162"
         style="fill:#eda677;fill-opacity:1;fill-rule:nonzero;stroke:none"
         d="m 4313.93,13087 1536.6,163.4 -16.72,149.3 -1209.23,-149.3 -358.82,283.5 48.17,-446.9" /><path
         id="path164"
         style="fill:#ff9b80;fill-opacity:1;fill-rule:nonzero;stroke:none"
         d="m 4018.13,14566.8 -11.33,2 -202.15,35.2 c 0,0 200.54,-287.9 213.48,-245.8 12.93,42 0,208.6 0,208.6" /><path
         id="path166"
         style="fill:#0f0f28;fill-opacity:1;fill-rule:nonzero;stroke:none"
         d="m 5944.05,6758.6 c -34.16,-121.1 -562.8,-188.6 -751.43,-170 -176.99,18.7 -210.37,100.2 -189.41,293.5 55.12,5.4 137.4,3.1 221.23,-35.7 147.5,-68.4 286.45,-48.9 377.27,-26.4 47.36,12.4 67.54,38.8 76.08,62.1 144.38,-28 284.11,-59 266.26,-123.5" /><path
         id="path168"
         style="fill:#615ebc;fill-opacity:1;fill-rule:nonzero;stroke:none"
         d="m 4799.44,13595.8 -151.31,115.9 46,-128.4 z" /><g
         transform="scale(1.6494)"
         id="g170"><path
           id="path172"
           style="fill:#6f6f87;fill-opacity:1;fill-rule:nonzero;stroke:none"
           d="m 16188.2,4573.3 c 0,0 -5.6,-129.44 27.6,-192.19 33.2,-62.75 84.2,-194.13 23.4,-237.3 -60.8,-43.1 -586.3,-50.99 -647.1,-27.4 -60.8,23.52 -117.7,88.21 94.1,154.91 211.8,66.69 239.2,152.65 254.9,205.77 15.7,53.05 23.6,78.57 23.6,78.57 l 223.5,17.64" /></g><g
         transform="scale(1.48745)"
         id="g174"><path
           id="path176"
           style="fill:#6f6f87;fill-opacity:1;fill-rule:nonzero;stroke:none"
           d="m 16248.4,5092.59 c 0,0 -29.8,-140.5 -4.9,-215.26 24.8,-74.69 56.5,-227.71 -17.9,-263.74 -74.3,-36.1 -650.5,51.43 -712.7,88.27 -62.2,36.84 -112.6,118.05 131.2,152.21 243.9,34.22 289.6,123.23 316.5,178.42 26.9,55.2 40.1,81.69 40.1,81.69 l 247.7,-21.59" /></g><g
         transform="scale(1.64245)"
         id="g178"><path
           id="path180"
           style="fill:#342d66;fill-opacity:1;fill-rule:nonzero;stroke:none"
           d="m 16264.6,4553.06 c -35.5,-19.35 -299.2,-118.11 -342.7,0 -43.5,118.18 -271.8,1230.73 -299.2,1421.23 -27.9,189.96 -78.9,867.24 -78.9,867.24 0,0 -354.5,-807.2 -401.8,-945.23 -47.2,-138.03 -342.6,-1338.97 -413.5,-1358.82 -70.9,-19.85 -366.3,-27.4 -366.3,129.99 0,13.7 1.9,34.03 5.2,60.03 35.9,271.3 244.8,1147.06 305.8,1330.45 67.1,200.86 539.8,1618.73 539.8,1618.73 l 913.5,-224.48 c 0,0 31.7,-271.79 31.7,-748.63 0,-476.42 90.7,-1504.4 106.4,-1732.65 15.6,-228.75 35.4,-398.01 0,-417.86" /></g><g
         transform="scale(1.56626)"
         id="g182"><path
           id="path184"
           style="fill:#1f1c47;fill-opacity:1;fill-rule:nonzero;stroke:none"
           d="m 16300,7174.36 c 0,0 -371.7,-846.47 -421.3,-991.22 -49.6,-144.73 -359.4,-1404.11 -433.7,-1424.92 -74.3,-20.81 -384.1,-28.73 -384.1,136.31 0,14.37 2,35.69 5.5,62.96 110,-37.67 233.4,-48.59 306.3,44.63 155.1,198.24 237.4,1090.3 361.3,1181.02 123.9,90.73 380.1,875.79 404.9,999.65 24.8,123.93 123.9,338.51 140.3,251.81 16.8,-86.77 20.8,-260.24 20.8,-260.24" /></g><g
         transform="scale(1.66388)"
         id="g186"><path
           id="path188"
           style="fill:#252549;fill-opacity:1;fill-rule:nonzero;stroke:none"
           d="m 15817.6,9333.98 c 0,0 -15.2,255.63 134.4,175.93 149.7,-79.7 320.8,-138.02 334.4,-332.41 13.6,-194.39 -213.8,-301.31 -272.2,-303.25 -58.3,-1.95 -196.6,459.73 -196.6,459.73" /></g><g
         transform="scale(1.64394)"
         id="g190"><path
           id="path192"
           style="fill:#ff9b80;fill-opacity:1;fill-rule:nonzero;stroke:none"
           d="m 16009.5,9447.22 c 0,0 -204.3,-319.72 -133.5,-402.35 70.9,-82.63 118.1,-80.67 118.1,-80.67 0,0 -35.4,-43.28 -95.5,-43.28 -59.9,0 -75.7,-190.85 50.2,-212.49 125.9,-21.64 295.2,0 314.8,41.32 19.7,41.31 -64.9,118.05 -64.9,118.05 0,0 -7.9,35.41 -5.9,62.96 2,27.54 15.7,51.15 15.7,51.15 0,0 -26.5,13.77 -31.4,50.17 -5,36.4 3.9,44.6 39.3,41.48 35.4,-3.11 83.6,25.42 83.6,68.7 0,43.29 -82.6,1.97 -81.6,34.43 0.9,32.47 21.6,113.13 0.9,145.6 -20.6,32.46 -181.5,96.41 -209.8,124.93" /></g><g
         transform="scale(1.67604)"
         id="g194"><path
           id="path196"
           style="fill:#ea3f50;fill-opacity:1;fill-rule:nonzero;stroke:none"
           d="m 15888.4,8697.94 c 0,0 104.2,-36.67 185.3,-162.11 81,-125.44 117.7,-268.26 150.5,-339.62 32.8,-71.42 75.8,-92.84 50.2,-131.26 -25.7,-38.42 -279.8,-156.32 -320.4,-148.57 -40.5,7.7 -79.1,71.36 -79.1,71.36 0,0 -42.4,-248.92 -50.2,-488.23 -7.7,-239.31 61.8,-308.76 -15.4,-335.79 -77.2,-27.03 -306.8,94.57 -411.1,108.11 -104.1,13.48 -561.5,42.42 -577,113.84 -15.4,71.42 160.2,1005.43 179.5,1078.76 19.3,73.33 270.2,285.61 339.7,285.61 69.4,0 253.7,0 253.7,0 0,0 -46.3,-111.92 89.7,-135.09 136.1,-23.15 213.3,12.55 217.2,29.92 3.8,17.37 -12.6,53.07 -12.6,53.07" /></g><g
         transform="scale(1.61944)"
         id="g198"><path
           id="path200"
           style="fill:#d78560;fill-opacity:1;fill-rule:nonzero;stroke:none"
           d="m 14298.7,8896.12 2001.3,-155.79 -79.9,-1054.57 -2001.3,87.88 79.9,1122.48" /></g><g
         transform="scale(1.69067)"
         id="g202"><path
           id="path204"
           style="fill:#ff9b80;fill-opacity:1;fill-rule:nonzero;stroke:none"
           d="m 16102,7972.2 c 0,0 198,-476.38 119.5,-585.39 -78.4,-109.07 -461,-89.96 -640.9,-74.64 -179.8,15.32 -300.3,21.06 -344.3,15.32 -44,-5.74 -258.3,-26.8 -306.1,-3.85 -47.9,22.95 -61.2,84.17 42,99.49 103.4,15.32 158.9,13.43 137.8,34.42 -21,21.06 -82.3,66.96 2,66.96 84.1,0 95.6,-11.47 166.4,-40.16 70.7,-28.69 160.7,-15.32 231.4,-1.89 70.8,13.36 256.4,49.74 350.1,61.22 93.8,11.47 114.8,7.62 114.8,19.1 0,11.47 -65,153.07 -91.8,204.71 -26.7,51.64 -37.3,84.35 -37.3,84.35 l 256.4,120.36" /></g><g
         transform="scale(1.64761)"
         id="g206"><path
           id="path208"
           style="fill:#ffbb8d;fill-opacity:1;fill-rule:nonzero;stroke:none"
           d="m 14647.7,8697.77 195.6,-472.05 1456.7,-76.54 -278.8,441.67 -1373.5,106.92" /></g><g
         transform="scale(1.4806)"
         id="g210"><path
           id="path212"
           style="fill:#b26249;fill-opacity:1;fill-rule:nonzero;stroke:none"
           d="m 16225.4,8473.04 74.6,1205.84 -660.5,51.42 -87.4,-1227.74 673.3,-29.52" /></g><g
         transform="scale(1.61618)"
         id="g214"><path
           id="path216"
           style="fill:#c17252;fill-opacity:1;fill-rule:nonzero;stroke:none"
           d="m 14898,8307.69 1394.6,-81.18 7.4,97.82 -1167.9,61.38 -199.5,481.23 -34.6,-559.25" /></g><g
         transform="scale(1.57727)"
         id="g218"><path
           id="path220"
           style="fill:#c92d61;fill-opacity:1;fill-rule:nonzero;stroke:none"
           d="m 16176.9,9016.03 123.1,92.28 -61.6,-95.61 -61.5,3.33" /></g><g
         transform="scale(1.6234)"
         id="g222"><path
           id="path224"
           style="fill:#d66863;fill-opacity:1;fill-rule:nonzero;stroke:none"
           d="m 16196.4,9077.59 h 103.6 c 0,0 -133.5,-125.52 -133.5,-97.62 0,27.89 29.9,97.62 29.9,97.62" /></g><g
         transform="scale(1.29598)"
         id="g226"><path
           id="path228"
           style="fill:#252549;fill-opacity:1;fill-rule:nonzero;stroke:none"
           d="m 15691.7,11933.2 c 0,0 -103.1,22.4 -93.6,151.6 9.3,129.1 46.7,102.9 177.7,116 131.1,13.1 280.8,15 342.6,-44.9 61.8,-59.9 61.8,-112.3 61.8,-112.3 0,0 93.6,-15 106.7,-164.7 13.1,-149.8 -166.6,-314.5 -166.6,-314.5 l -428.6,368.8" /></g><g
         transform="scale(1.28482)"
         id="g230"><path
           id="path232"
           style="fill:#d66863;fill-opacity:1;fill-rule:nonzero;stroke:none"
           d="m 15828,12036.9 c 0,0 -41.5,-368.2 26.4,-453.2 68,-84.9 136.7,-73.6 136.7,-73.6 0,0 5.4,-185.2 -67.1,-203.6 -72.5,-18.4 -216.8,-279.8 -35.6,-306.2 181.3,-26.4 364.3,306.2 364.3,306.2 0,0 -18.8,136 -15,211.3 3.8,75.4 22.7,147.1 22.7,147.1 0,0 -34,51 -15.1,83.1 18.8,32.1 54.7,105.7 28.3,141.6 -26.4,35.9 -77.4,-81.2 -96.3,-26.4 -18.9,54.7 20.7,132.1 -20.7,173.7 -41.6,41.5 -292.8,-3.8 -328.6,0" /></g><g
         transform="scale(1.27276)"
         id="g234"><path
           id="path236"
           style="fill:#b23d3d;fill-opacity:1;fill-rule:nonzero;stroke:none"
           d="m 16142.5,11619.1 c 0,0 58.4,7.6 108,32.4 49.5,24.8 49.5,24.8 49.5,24.8 0,0 -101,-173.4 -118.2,-167.7 -17.1,5.7 -39.3,110.5 -39.3,110.5" /></g><g
         transform="scale(1.3316)"
         id="g238"><path
           id="path240"
           style="fill:#874331;fill-opacity:1;fill-rule:nonzero;stroke:none"
           d="m 15720.5,5650.86 c 0,0 45,-198.1 -46.2,-330.57 -91.3,-132.55 -341,-176.93 -311.8,-267.05 29.2,-90.12 136.7,-170.77 318.7,-66.01 182.1,104.76 203.5,187.07 293.1,161.38 89.5,-25.6 70,-55.12 166.5,11.49 96.4,66.62 159.2,142.76 134.4,179.11 -24.7,36.35 -184.6,196.91 -213.3,249.1 -28.6,52.19 -57.3,171.52 -57.3,171.52 l -284.1,-108.97" /></g><g
         transform="scale(1.19686)"
         id="g242"><path
           id="path244"
           style="fill:#874331;fill-opacity:1;fill-rule:nonzero;stroke:none"
           d="m 15981.2,6202.48 c 0,0 -105.5,-199.93 -278.4,-245.89 -173,-45.95 -416.2,97.26 -456.7,0 -40.5,-97.34 -8.1,-243.22 221.6,-286.5 229.7,-43.19 307.3,10.86 364.4,-75.61 57.2,-86.48 19.3,-97.34 149.1,-110.88 129.6,-13.45 237.8,5.44 243.2,54.06 5.4,48.71 -13.6,300.04 0,364.87 13.5,64.84 75.6,186.49 75.6,186.49 l -318.8,113.46" /></g><g
         transform="scale(1.31137)"
         id="g246"><path
           id="path248"
           style="fill:#1f1c47;fill-opacity:1;fill-rule:nonzero;stroke:none"
           d="m 16300,5820.99 c 0,-23.1 -123.8,-95.32 -235.6,-144.43 -76.4,-33.78 -147.4,-56.27 -169.3,-45.6 -53.9,27.23 -463.5,915.15 -645.8,1314.73 -148.6,324.39 -287.1,709.79 -333.9,892.04 -10.7,41.49 -16.5,72.82 -16.5,89.98 0,90.59 251.5,1336.62 251.5,1336.62 0,0 444,-46.75 549.4,-84.04 95.8,-33.7 -82.9,-1291.62 -115.5,-1514.21 -2.9,-21.89 -4.7,-33.7 -4.7,-33.7 0,0 55.6,-136.73 136.1,-335.68 209,-516.18 584.3,-1447.26 584.3,-1475.71" /></g><g
         transform="scale(1.29242)"
         id="g250"><path
           id="path252"
           style="fill:#0f0f28;fill-opacity:1;fill-rule:nonzero;stroke:none"
           d="m 16300,5759.83 c -77.4,-34.28 -149.6,-57.1 -171.8,-46.27 -54.6,27.62 -470.2,928.57 -655.3,1334.01 -150.7,329.15 -291.3,720.2 -338.7,905.13 251.7,103.91 394,285.89 678.7,-174.17 -3,-22.21 -4.8,-34.2 -4.8,-34.2 0,0 56.4,-138.73 138.1,-340.61 -66,-101.51 -192.2,-323.11 -166.9,-506.33 23.4,-172.39 336.9,-787.37 520.7,-1137.56" /></g><g
         transform="scale(1.30542)"
         id="g254"><path
           id="path256"
           style="fill:#342d66;fill-opacity:1;fill-rule:nonzero;stroke:none"
           d="m 16151.4,8433.09 c -105.9,-193.27 -365.7,-545.88 -529.3,-811.08 -66,-107.09 -116.5,-199.78 -134.9,-262.83 -64.2,-218.25 -456.1,-1833.36 -579.9,-1848.22 -33.8,-4.14 -79.6,4.21 -127.8,18.46 -128.4,39.83 -274.1,127.85 -263.4,166.46 14.9,52.93 450.8,1797.05 450.8,1901.16 0,40.98 5.9,93.91 19.6,158.18 5.9,30.87 13.6,64.2 23.7,100.51 20.9,79.66 51.2,171.21 90.4,272.94 94,241.38 446,1130.97 446,1130.97 h 718.4 c 0,0 35,-555.37 -113.6,-826.55" /></g><g
         transform="scale(1.22977)"
         id="g258"><path
           id="path260"
           style="fill:#b26249;fill-opacity:1;fill-rule:nonzero;stroke:none"
           d="m 15986.4,9590.52 c -4.8,-24.48 -24.3,-41.88 -46.7,-45.7 -6.8,-1.22 -13.9,-1.14 -20.6,0.32 l -257.5,49.61 c -31.1,5.61 -51.6,36.02 -45.4,67.16 4.3,23.75 24.3,41.31 46.8,45.14 6.8,1.13 13.1,1.54 19.8,0.16 l 258.1,-49.53 c 31.2,-6.17 51,-36.1 45.5,-67.16 z m -591.4,238.58 -131.6,-227.36 1036.6,-198.58 -44.2,258.92 -860.8,167.02" /></g><g
         transform="scale(1.25804)"
         id="g262"><path
           id="path264"
           style="fill:#d78560;fill-opacity:1;fill-rule:nonzero;stroke:none"
           d="m 16300,9121.51 -207.4,-1032.88 -1461.7,290.62 -243.2,48.09 40.2,212.95 153.6,810.79 247.4,-47.54 668.3,-128.37 802.8,-153.66" /></g><g
         transform="scale(1.25804)"
         id="g266"><path
           id="path268"
           style="fill:#874331;fill-opacity:1;fill-rule:nonzero;stroke:none"
           d="m 16300,9121.51 -207.4,-1032.88 -1461.7,290.62 -243.2,48.09 40.2,212.95 783.6,-150.63 285.7,785.51 802.8,-153.66" /></g><g
         transform="scale(1.30833)"
         id="g270"><path
           id="path272"
           style="fill:#d78560;fill-opacity:1;fill-rule:nonzero;stroke:none"
           d="m 16039,8637.46 c -8.4,-21.94 -29.1,-35.01 -50.5,-35.01 -6.5,0 -13,1.14 -19,3.51 l -230.8,86.68 c -27.9,10.09 -42.1,41.5 -31.4,69.4 7.7,21.33 29.1,34.4 50.4,34.4 6.5,0 12.5,-0.61 18.4,-2.99 l 231.4,-86.59 c 27.9,-10.7 41.5,-41.51 31.5,-69.4 z m -510.3,314.44 -157.8,-189.86 929.1,-347.7 v 246.81 l -771.3,290.75" /></g><g
         transform="scale(1.31356)"
         id="g274"><path
           id="path276"
           style="fill:#82cc52;fill-opacity:1;fill-rule:nonzero;stroke:none"
           d="m 16300,10874.1 c 0,0 -20.7,-306.7 -39,-539 v -0.6 c -5.9,-77.4 -11.9,-146.6 -16.6,-192.6 -18.9,-186.17 -7.7,-911.29 -37.8,-981.63 -30.7,-70.35 -431.4,-55.58 -608.7,-44.31 -177.3,11.19 -377,40.73 -461.5,51.99 -61.5,7.69 -55.5,52 -39,156.6 6.5,40.81 14.2,90.44 20.7,150.74 21.8,215.67 73.2,783.61 73.2,783.61 0,0 -161.9,42.5 -202.6,75.6 -40.8,33.7 121.7,547.2 199.1,598.7 78,51.4 387.7,125.8 387.7,125.8 0,0 -136.5,-192.6 0,-210.9 137.1,-18.4 321.5,210.9 321.5,210.9 0,0 88.6,-18.9 185,-55.5 95.7,-37.2 218,-129.4 218,-129.4" /></g><g
         transform="scale(1.22841)"
         id="g278"><path
           id="path280"
           style="fill:#53a83f;fill-opacity:1;fill-rule:nonzero;stroke:none"
           d="m 16244.7,10970.2 55.3,507.6 -137.5,-483.6 82.2,-24" /></g><g
         transform="scale(1.31042)"
         id="g282"><path
           id="path284"
           style="fill:#53a83f;fill-opacity:1;fill-rule:nonzero;stroke:none"
           d="m 16300,10359.9 v -0.7 c -6,-77.5 -11.9,-146.9 -16.6,-193 -19,-186.6 -7.7,-913.47 -38,-983.98 -30.7,-70.51 -432.3,-55.7 -610.1,-44.41 -177.7,11.22 -377.9,40.83 -462.6,52.12 -61.6,7.71 -55.7,52.12 -39.1,156.97 122.6,-28.99 342.9,-66.92 483.3,-5.34 203.3,88.9 373.8,714.44 370.3,765.44 -3.6,50.9 99.5,518.9 99.5,518.9 l 213.3,-266" /></g><g
         transform="scale(1.32694)"
         id="g286"><path
           id="path288"
           style="fill:#82cc52;fill-opacity:1;fill-rule:nonzero;stroke:none"
           d="m 16201.1,10065.9 c -2.8,-10.5 -15.7,-17 -36.2,-21.6 -68.4,-14 -214.7,3.5 -276.7,15.2 -13.5,2.3 -23.4,4.7 -27,6.4 -25.6,11.2 0,204.8 25.2,427.7 25.8,223.4 249.2,270.8 249.2,270.8 164.4,-29.2 80.1,-643.5 65.5,-698.5" /></g><g
         transform="scale(1.31594)"
         id="g290"><path
           id="path292"
           style="fill:#d66863;fill-opacity:1;fill-rule:nonzero;stroke:none"
           d="m 16300,10128.2 c -6.5,-96.1 -24.8,-341.54 -51.9,-448.84 -34.2,-135.12 -263.1,-725.03 -280.2,-773.97 -17.1,-48.94 -10,-132.76 -2.3,-159.89 7,-27.12 -24.8,-115.58 -59.1,-137.39 -34.8,-22.42 -152.1,41.27 -176.9,56.01 -24.8,14.74 -34.3,20.06 -34.3,83.74 0,63.76 63.8,125.69 93.3,159.88 29.5,34.2 152.2,697.83 171.6,762.12 15.4,49.54 47.2,345.64 60.8,473.74 62.5,-11.8 210,-29.5 279,-15.4" /></g><g
         transform="scale(1.33528)"
         id="g294"><path
           id="path296"
           style="fill:#ffbb8d;fill-opacity:1;fill-rule:nonzero;stroke:none"
           d="m 16300,8121.21 -356.4,-926.63 -1311.5,501.69 -218,83.13 341.8,919.66 222.7,-83.13 1321.4,-494.72" /></g><g
         transform="scale(1.22703)"
         id="g298"><path
           id="path300"
           style="fill:#b26249;fill-opacity:1;fill-rule:nonzero;stroke:none"
           d="m 16300,9376.05 -377,-1000.79 -237.2,90.46 371.9,1000.79 242.3,-90.46" /></g><g
         transform="scale(1.30887)"
         id="g302"><path
           id="path304"
           style="fill:#d78560;fill-opacity:1;fill-rule:nonzero;stroke:none"
           d="m 15343.4,8766.45 -323.3,-844.7 1279.9,-492.03 -34.6,-89.93 -1338,511.82 353.5,938.22 62.5,-23.38" /></g><g
         transform="scale(1.22431)"
         id="g306"><path
           id="path308"
           style="fill:#d66863;fill-opacity:1;fill-rule:nonzero;stroke:none"
           d="m 16113,11131.9 c 0,0 -67.3,-453.1 -84.6,-532.3 -17.2,-79.4 -95.8,-337.5 -119.6,-442.6 -23.7,-105 -21.8,-174.37 -47.5,-227.87 -25.7,-53.5 -55.5,-43.54 -69.3,-118.84 l 236.4,-46.97 c 0,0 -5.2,124.24 0,146.04 5.2,21.73 220.6,555.44 220.6,555.44 l 51,549.6 -187,117.5" /></g><g
         transform="scale(1.20341)"
         id="g310"><path
           id="path312"
           style="fill:#d66863;fill-opacity:1;fill-rule:nonzero;stroke:none"
           d="m 16066.2,9896.62 c 0,0 -10.8,47.78 72.5,43.37 83.4,-4.4 161.3,-37.97 134.4,-72.95 -26.9,-34.9 -215,-38.98 -206.9,29.58" /></g><g
         transform="scale(1.25113)"
         id="g314"><path
           id="path316"
           style="fill:#1f1c47;fill-opacity:1;fill-rule:nonzero;stroke:none"
           d="m 16300,7952.74 c -68.9,-111.74 -121.6,-208.45 -140.8,-274.23 -67,-227.72 -475.9,-1912.92 -605,-1928.42 -35.3,-4.32 -83.1,4.39 -133.4,19.26 268.7,536.71 624.2,2031.36 598.7,2095.23 -21.6,54.67 -250.6,166.33 -382.7,227.15 6.1,32.21 14.2,66.98 24.7,104.87 l 638.5,-243.86" /></g></g></g></svg>