<?xml version="1.0" encoding="UTF-8" standalone="no"?>
<svg
   xmlns:dc="http://purl.org/dc/elements/1.1/"
   xmlns:cc="http://creativecommons.org/ns#"
   xmlns:rdf="http://www.w3.org/1999/02/22-rdf-syntax-ns#"
   xmlns:svg="http://www.w3.org/2000/svg"
   xmlns="http://www.w3.org/2000/svg"
   xmlns:sodipodi="http://sodipodi.sourceforge.net/DTD/sodipodi-0.dtd"
   xmlns:inkscape="http://www.inkscape.org/namespaces/inkscape"
   version="1.1"
   id="svg2"
   xml:space="preserve"
   width="4000"
   height="3200"
   viewBox="0 0 4000 3200"
   sodipodi:docname="vecteezy_food-and-groceries-donation-illustration_6916104.eps"><metadata
     id="metadata8"><rdf:RDF><cc:Work
         rdf:about=""><dc:format>image/svg+xml</dc:format><dc:type
           rdf:resource="http://purl.org/dc/dcmitype/StillImage" /></cc:Work></rdf:RDF></metadata><defs
     id="defs6"><clipPath
       clipPathUnits="userSpaceOnUse"
       id="clipPath26"><path
         d="m 24935,12349.5 c -114.9,-267.8 -243.9,-532.2 -385.1,-794.4 -386.8,-717.8 -830.1,-1382.8 -1314.1,-2009.4 -366,-473.9 -755.4,-925.8 -1161.2,-1361.6 -290.1,-311.8 -588.5,-615.6 -893.1,-913.3 C 19376.7,5506.7 17396,4010 15321.2,2657.6 c -110.6,-72.1 -207.8,-111.4 -304.8,-115.9 -12.7,-0.6 -25.5,-0.6 -38.4,0 -94.7,4.3 -190.8,41.9 -300.4,113.8 -2791.8,1834.7 -5436.56,3876.2 -7631.42,6544.5 -6.63,7.9 -13.27,16 -19.89,24 -7.16,8.5 -14.13,17.1 -21.11,25.6 -348.71,426.4 -680.33,865.2 -983.35,1323.4 -601.13,908.1 -1090.28,1892.5 -1378.64,3006.4 -139.56,539.5 -204.27,1087.2 -201.31,1629.4 14.65,2823.5 1859.41,5497.8 4466.67,6078.8 424.08,94.7 860.02,126.2 1087.15,158.2 1933.2,-29.5 3434.3,-706.4 4752.8,-1897 193.1,-174.4 297.6,-177.5 492.6,-0.9 1514.5,1371.9 3240.3,2073.8 5220.3,1878.7 1765.4,-173.6 3373.2,-1381.5 4289.8,-3042.5 343.1,-621.9 589.4,-1307.2 710.6,-2025.5 243.6,-1441.1 10.2,-2759.2 -526.8,-4009.1"
         id="path24" /></clipPath></defs><sodipodi:namedview
     pagecolor="#ffffff"
     bordercolor="#666666"
     borderopacity="1"
     objecttolerance="10"
     gridtolerance="10"
     guidetolerance="10"
     inkscape:pageopacity="0"
     inkscape:pageshadow="2"
     inkscape:window-width="640"
     inkscape:window-height="480"
     id="namedview4" /><g
     id="g10"
     inkscape:groupmode="layer"
     inkscape:label="ink_ext_XXXXXX"
     transform="matrix(1.3333333,0,0,-1.3333333,0,3200)"><g
       id="g12"
       transform="scale(0.1)"><path
         d="M 0,0 H 30000 V 24000 H 0 Z"
         style="fill:#ffffff;fill-opacity:1;fill-rule:nonzero;stroke:none"
         id="path14" /><path
         d="m 24935,12349.5 c -114.9,-267.8 -243.9,-532.2 -385.1,-794.4 -386.8,-717.8 -830.1,-1382.8 -1314.1,-2009.4 -366,-473.9 -755.4,-925.8 -1161.2,-1361.6 -290.1,-311.8 -588.5,-615.6 -893.1,-913.3 C 19376.7,5506.7 17396,4010 15321.2,2657.6 c -110.6,-72.1 -207.8,-111.4 -304.8,-115.9 -12.7,-0.6 -25.5,-0.6 -38.4,0 -94.7,4.3 -190.8,41.9 -300.4,113.8 -2791.8,1834.7 -5436.56,3876.2 -7631.42,6544.5 -6.63,7.9 -13.27,16 -19.89,24 -7.16,8.5 -14.13,17.1 -21.11,25.6 -348.71,426.4 -680.33,865.2 -983.35,1323.4 -601.13,908.1 -1090.28,1892.5 -1378.64,3006.4 -139.56,539.5 -204.27,1087.2 -201.31,1629.4 14.65,2823.5 1859.41,5497.8 4466.67,6078.8 424.08,94.7 860.02,126.2 1087.15,158.2 1933.2,-29.5 3434.3,-706.4 4752.8,-1897 193.1,-174.4 297.6,-177.5 492.6,-0.9 1514.5,1371.9 3240.3,2073.8 5220.3,1878.7 1765.4,-173.6 3373.2,-1381.5 4289.8,-3042.5 343.1,-621.9 589.4,-1307.2 710.6,-2025.5 243.6,-1441.1 10.2,-2759.2 -526.8,-4009.1"
         style="fill:#dcf4ef;fill-opacity:1;fill-rule:nonzero;stroke:none"
         id="path16" /><path
         d="m 23359,12266.1 c -96.8,-203.9 -205.2,-405.2 -324.1,-604.8 -325.4,-546.4 -698.4,-1052.6 -1105.6,-1529.6 -308,-360.7 -635.6,-704.7 -977,-1036.4 -244,-237.4 -495.2,-468.6 -751.4,-695.3 -1518.5,-1342.8 -3185,-2482.1 -4930.7,-3511.6 -93,-54.9 -174.8,-84.8 -256.4,-88.2 -10.7,-0.4 -21.4,-0.4 -32.3,0 -79.7,3.3 -160.6,31.9 -252.7,86.6 -2349,1396.6 -4574.2,2950.7 -6420.86,4981.8 -5.57,6 -11.15,12.2 -16.72,18.3 -6.03,6.4 -11.89,13 -17.77,19.5 -293.39,324.5 -572.41,658.5 -827.35,1007.4 -505.77,691.2 -917.32,1440.5 -1159.94,2288.5 -117.41,410.6 -171.87,827.5 -169.38,1240.3 12.34,2149.3 1564.45,4185 3758.1,4627.2 356.82,72.1 723.62,96.2 914.72,120.5 1626.5,-22.5 2889.5,-537.8 3998.8,-1444.1 162.4,-132.7 250.4,-135.1 414.4,-0.6 1274.3,1044.3 2726.3,1578.5 4392.2,1430.1 1485.3,-132.2 2838.1,-1051.7 3609.3,-2316 288.7,-473.4 495.9,-995.1 597.9,-1541.9 204.9,-1096.9 8.5,-2100.3 -443.2,-3051.7"
         style="fill:#d1ede6;fill-opacity:1;fill-rule:nonzero;stroke:none"
         id="path18" /><g
         id="g20"><g
           id="g22"
           clip-path="url(#clipPath26)"><path
             d="m 16097.1,15115.9 c 0,0 -60.8,51.5 -70,164.1 -9.2,112.7 -162.3,263.2 -79.6,251.6 82.6,-11.5 108.1,-45.1 108.1,-45.1 0,0 -146.5,226.2 -120.3,281.8 26.2,55.6 144.9,-38.1 144.9,-38.1 0,0 -116.9,172.2 -100.2,234.8 16.7,62.7 20.9,170 76.4,65.9 55.5,-104 39.9,-28.4 53.3,83.3 13.3,111.8 75.7,82.8 117.1,11.7 41.5,-71.1 -70.4,-485.3 10.2,-401 80.5,84.4 218.7,190 182.4,54 -36.4,-136 -174.8,-306.1 -89.6,-297.5 85.2,8.6 152.4,-18.9 64.6,-125.4 -87.7,-106.6 -78.6,-146.4 -37.6,-129.2 41.1,17.1 -10.1,-149.1 -78,-211.3 -67.8,-62.3 -181.7,100.4 -181.7,100.4"
             style="fill:#367756;fill-opacity:1;fill-rule:nonzero;stroke:none"
             id="path28" /><path
             d="m 16471.3,14785.8 c 10.7,-50.1 16.9,-105.4 16.9,-164.7 1,-42.8 -1.1,-87.7 -7.2,-134.3 -14.6,-118.9 -50.7,-248.2 -114.1,-375.9 -9.8,-20.8 -20.6,-40.7 -32,-60.9 -15.7,-28.7 -33.4,-57.6 -52.6,-85.8 -9.4,-14 -19,-27.4 -29.2,-41.1 -64,-88.6 -143,-173.6 -238.4,-253 -17.3,-14 -34.7,-28.1 -52.2,-41.6 -18.8,-15.3 -38,-29.5 -56.7,-43.5 -319.7,-234.4 -635.2,-344.4 -742,-376.7 -24.7,-7.8 -37.8,-11.4 -37.8,-11.4 0,0 595.2,914.3 615.7,1217.5 20.7,302.7 -71.4,647.8 189.6,699.9 3,0.6 5.5,1 8.6,1.7 256.9,49 469.8,-44 531.4,-330.2"
             style="fill:#f47f31;fill-opacity:1;fill-rule:nonzero;stroke:none"
             id="path30" /><path
             d="m 15962.5,13628.5 c -18.8,-15.3 -38,-29.5 -56.7,-43.5 -91.2,54.4 -209.2,127.9 -156.6,121.7 45.6,-5.2 132.5,-48 213.3,-78.2"
             style="fill:#d64f25;fill-opacity:1;fill-rule:nonzero;stroke:none"
             id="path32" /><path
             d="m 16020.7,14033.8 c 66.2,-17.7 177.9,-50 261.6,-69.6 -9.4,-14 -19,-27.4 -29.2,-41.1 -143.8,59.2 -307.3,130 -232.4,110.7"
             style="fill:#d64f25;fill-opacity:1;fill-rule:nonzero;stroke:none"
             id="path34" /><path
             d="m 15818.5,14273.3 c 53,-8.7 370.9,-122.8 548.4,-162.4 -9.8,-20.8 -20.6,-40.7 -32,-60.9 -189.4,73.7 -581.3,234.9 -516.4,223.3"
             style="fill:#d64f25;fill-opacity:1;fill-rule:nonzero;stroke:none"
             id="path36" /><path
             d="m 16488.2,14621.1 c 1,-42.8 -1.1,-87.7 -7.2,-134.3 -82.4,46.1 -180.2,85 -241.6,100.7 -106.3,27.3 -309.6,101.1 -217.3,79.9 72,-17.3 347.2,-37.7 466.1,-46.3"
             style="fill:#d64f25;fill-opacity:1;fill-rule:nonzero;stroke:none"
             id="path38" /><path
             d="m 15898,14997.2 c 0,0 144.9,50.8 181.6,-22.3 36.8,-73.2 -179.2,-165.4 -200.7,-141.2 -21.4,24.1 -43.3,149 19.1,163.5"
             style="fill:#ffa131;fill-opacity:1;fill-rule:nonzero;stroke:none"
             id="path40" /><path
             d="m 15939.9,15116 c -71,-99 -154.2,-239.7 -131.8,-332.8 37.4,-157.9 146,-268.8 86.7,-351.4 -58.5,-83 -196.4,-297 -215.9,-366.7 -19.9,-69.1 -92,-355.7 -207.1,-515.4 -56.4,-80.1 -189,-220.6 -308,-341.4 -24.7,-7.8 -37.8,-11.4 -37.8,-11.4 0,0 595.2,914.3 615.7,1217.5 20.7,302.7 -71.4,647.8 189.6,699.9 3,0.6 5.5,1 8.6,1.7"
             style="fill:#ffa131;fill-opacity:1;fill-rule:nonzero;stroke:none"
             id="path42" /><path
             d="m 8272.79,8443.9 h 8609.51 v 3908.4 H 8272.79 Z"
             style="fill:#d78560;fill-opacity:1;fill-rule:nonzero;stroke:none"
             id="path44" /><path
             d="m 16299.4,9116 h -2483.9 c -5.6,0 -10,4.4 -10,10 v 1597.6 c 0,5.5 4.4,10 10,10 h 2483.9 c 5.5,0 10,-4.5 10,-10 V 9126 c 0,-5.6 -4.5,-10 -10,-10"
             style="fill:#ffbb8d;fill-opacity:1;fill-rule:nonzero;stroke:none"
             id="path46" /><path
             d="m 13770,15339.6 c 0,0 -254.1,207.4 -265.6,463.7 -11.5,256.4 -126.4,352.1 -168.5,543.6 -42.2,191.5 -19.2,555.3 279.5,383 298.8,-172.4 317.9,-638.5 302.6,-826.7 -15.3,-188.2 60.1,-624.8 60.1,-624.8 0,0 -76.1,-79.2 -208.1,61.2"
             style="fill:#367756;fill-opacity:1;fill-rule:nonzero;stroke:none"
             id="path48" /><path
             d="m 14019.9,15187.6 c 0,0 -244.8,450.8 -249.9,806.9 -5.2,356.2 377.8,969 515.7,873.3 137.8,-95.8 225.9,-203 145.5,-605.2 -80.4,-402.1 -411.3,-1075 -411.3,-1075"
             style="fill:#a2c14d;fill-opacity:1;fill-rule:nonzero;stroke:none"
             id="path50" /><path
             d="m 14063.5,15117.5 c 0,0 -122.5,81.6 187.7,785.7 310.2,704.1 639.6,987.5 919.2,895.6 279.6,-91.9 -53.7,-715 -218.3,-895.6 -164.7,-180.6 -435.1,-270.4 -582.2,-349.1 -147,-78.7 -306.4,-436.6 -306.4,-436.6"
             style="fill:#66a542;fill-opacity:1;fill-rule:nonzero;stroke:none"
             id="path52" /><path
             d="m 13978.1,15094.5 c 0,0 288.4,513.7 702,708.8 413.7,195.1 635.8,155.3 563,-161.8 -72.7,-317.2 -622.3,-411.9 -823.4,-485.7 -201.1,-73.7 -441.6,-61.3 -441.6,-61.3"
             style="fill:#367756;fill-opacity:1;fill-rule:nonzero;stroke:none"
             id="path54" /><path
             d="m 13561.8,16457.9 c 0,0 34.5,-256.5 107.3,-605.1 72.7,-348.5 229.3,-548.9 229.3,-548.9 21.1,-58.9 50.7,-89.1 79.7,-104 -10.2,19.6 -41.2,79.4 -136.7,263.2 -141.7,272.8 -279.6,994.8 -279.6,994.8"
             style="fill:#2d6345;fill-opacity:1;fill-rule:nonzero;stroke:none"
             id="path56" /><path
             d="m 13983.1,15190.3 c 0,0 0,2.9 0,7.3 -1.6,0.8 -3.3,1.5 -5,2.3 4.9,-9.5 5,-9.6 5,-9.6"
             style="fill:#2d6345;fill-opacity:1;fill-rule:nonzero;stroke:none"
             id="path58" /><path
             d="m 14021.4,15155.8 c 0,0 2.9,11.1 9.9,31.2 -3.7,0 -7.5,0.2 -11.4,0.6 1.5,-31.5 1.5,-31.8 1.5,-31.8"
             style="fill:#2d6345;fill-opacity:1;fill-rule:nonzero;stroke:none"
             id="path60" /><path
             d="m 14186.1,16618.8 c 0,0 -72.8,-245.1 -137.9,-631.9 -60.2,-358 -64.7,-735 -65.1,-789.3 12.8,-5.8 25.3,-8.8 36.8,-10 -1.1,21.8 -2.9,58.6 -6,121.4 -7.5,153.2 172.2,1309.8 172.2,1309.8"
             style="fill:#2d6345;fill-opacity:1;fill-rule:nonzero;stroke:none"
             id="path62" /><path
             d="m 14684,15480.7 c -252.8,-107.8 -563,-183.2 -563,-183.2 0,0 53.6,103.4 176.2,298.7 122.5,195.4 631.9,823.5 631.9,823.5 0,0 -241.3,-279.6 -543.9,-651.1 -239.3,-293.9 -327.4,-505.7 -353.9,-581.6 25.5,-0.3 43.7,7.1 43.7,7.1 0,0 187.7,76.6 390.7,153.2 150.5,56.8 412.5,215.8 537.9,294.2 -64.7,-38.7 -171.9,-97.7 -319.6,-160.8"
             style="fill:#2d6345;fill-opacity:1;fill-rule:nonzero;stroke:none"
             id="path64" /><path
             d="m 15003.6,15641.5 c 45.9,27.5 71,45 71,45 0,0 -27.4,-17.7 -71,-45"
             style="fill:#2d6345;fill-opacity:1;fill-rule:nonzero;stroke:none"
             id="path66" /><path
             d="m 17250,14967.2 c 0,0 -35.8,71.2 0,178.4 35.7,107.2 -46,305.8 25.5,262.7 71.5,-43.1 81.7,-84 81.7,-84 0,0 -45.9,265.6 0,306.4 46,40.9 118.4,-91.9 118.4,-91.9 0,0 -40,204.3 0,255.3 39.9,51.1 85.9,148.1 96.1,30.7 10.2,-117.5 25.5,-41.9 81.7,55.6 56.2,97.5 102.1,46.5 112.3,-35.2 10.2,-81.7 -255.3,-418.8 -148.1,-372.8 107.3,46 275.8,88.9 189,-22 -86.8,-110.8 -280.9,-212.9 -199.2,-238.4 81.7,-25.6 132.8,-77.2 10.2,-140.8 -122.5,-63.5 -129.7,-103.7 -85.3,-104 44.5,-0.3 -67.8,-133.1 -154.7,-163.7 -86.8,-30.7 -127.6,163.7 -127.6,163.7"
             style="fill:#66a542;fill-opacity:1;fill-rule:nonzero;stroke:none"
             id="path68" /><path
             d="m 17464.5,14516.7 c -9.9,-50.3 -25.8,-103.6 -49.1,-158.1 -15.9,-39.8 -35.5,-80.3 -59.4,-120.7 -60.1,-103.6 -144,-208.4 -252.5,-300.9 -17.1,-15.3 -34.9,-29.4 -53.3,-43.5 -25.7,-20.2 -53.3,-39.8 -82.1,-58.2 -14.1,-9.2 -28.2,-17.8 -42.9,-26.4 -93.7,-56.4 -199.8,-103.5 -318.6,-139.1 -21.5,-6.1 -42.9,-12.2 -64.4,-17.7 -23.3,-6.8 -46.5,-12.3 -69.2,-17.8 -386.1,-90.1 -719.4,-67.4 -830.3,-55.2 -25.8,2.5 -39.3,4.3 -39.3,4.3 0,0 906.3,607.3 1044.2,878.1 137.9,270.3 188.8,623.8 449.2,569.3 3.1,-0.6 5.5,-1.2 8.6,-1.8 255.5,-55.8 414.8,-224.9 359.1,-512.3"
             style="fill:#ffa131;fill-opacity:1;fill-rule:nonzero;stroke:none"
             id="path70" /><path
             d="m 16542.2,13652.1 c -23.3,-6.8 -46.5,-12.3 -69.2,-17.8 -62.5,85.8 -142.2,199.7 -96.2,173.4 39.8,-22.7 102.9,-96.2 165.4,-155.6"
             style="fill:#ff5533;fill-opacity:1;fill-rule:nonzero;stroke:none"
             id="path72" /><path
             d="m 16754.9,14001.9 c 53.9,-42.2 144,-115.8 213.2,-166.6 -14.1,-9.2 -28.2,-17.8 -42.9,-26.4 -109.1,110.9 -231.6,240.2 -170.3,193"
             style="fill:#ff5533;fill-opacity:1;fill-rule:nonzero;stroke:none"
             id="path74" /><path
             d="m 16662.9,14301.6 c 45.4,-28.8 292.9,-258.6 440.6,-364.6 -17.1,-15.3 -34.9,-29.4 -53.3,-43.5 -145.2,142.2 -442.4,444.3 -387.3,408.1"
             style="fill:#ff5533;fill-opacity:1;fill-rule:nonzero;stroke:none"
             id="path76" /><path
             d="m 17415.4,14358.6 c -15.9,-39.8 -35.5,-80.3 -59.4,-120.7 -57.6,74.7 -132.4,148.9 -182.6,187.5 -87,66.8 -245.1,214.4 -168.5,158.7 59.4,-44.1 304.5,-171 410.5,-225.5"
             style="fill:#ff5533;fill-opacity:1;fill-rule:nonzero;stroke:none"
             id="path78" /><path
             d="m 17020.2,14936.2 c 0,0 153.2,-10.2 158.3,-91.9 5.1,-81.7 -229.8,-81.7 -240,-51.1 -10.2,30.7 18.6,154.1 81.7,143"
             style="fill:#ffc933;fill-opacity:1;fill-rule:nonzero;stroke:none"
             id="path80" /><path
             d="m 17105.4,15029 c -104.2,-63.2 -236,-160 -251.9,-254.3 -27.6,-160 28.8,-304.6 -58.2,-357.3 -86.4,-53.3 -297.2,-196.1 -342.5,-252.5 -45.4,-55.7 -224.3,-291 -392.8,-392.7 -83.4,-51.5 -260.5,-128.7 -417.3,-193.1 -25.8,2.5 -39.3,4.3 -39.3,4.3 0,0 906.3,607.3 1044.2,878.1 137.9,270.3 188.8,623.8 449.2,569.3 3.1,-0.6 5.5,-1.2 8.6,-1.8"
             style="fill:#ffc933;fill-opacity:1;fill-rule:nonzero;stroke:none"
             id="path82" /><path
             d="m 13593.5,14057.7 c 0,0 112.8,-142.8 15.4,-219.4 -30.1,-23.3 -66.2,-36.1 -103.6,-42.2 -83.3,-14.1 -166.7,4.2 -166.7,4.2 0,0 -9.8,-82.7 -86.4,-155.6 -19.6,-18.4 -42.9,-36.2 -72.3,-51.5 -69.2,-37.4 -430.8,-28.8 -783.7,-9.8 -273.9,14.7 -542.9,35.6 -664.9,45.4 -43.5,3.6 -68,5.5 -68,5.5 0,0 -70.5,1.2 -154.4,13.5 -6.8,0.6 -14.1,1.8 -21.5,3 -100.5,16.6 -213.2,49.7 -247.5,115.8 -66.8,128.1 0,291.1 0,291.1 0,0 -378.1,153.2 -444.3,306.4 -66.8,153.2 -56.4,286.2 -56.4,286.2 0,0 -26.3,23.9 -55.7,64.9 -41.7,57 -91.4,147.7 -85.8,251.9 8.5,178.3 141.5,272.7 141.5,272.7 0,0 13.5,80.2 44.8,151.3 11.6,26.4 25.7,52.1 42.2,71.1 l 0.7,0.6 c 17.1,19.6 37.3,33.1 60.6,34.9 16.6,1.9 32.5,1.9 46.6,1.3 76.6,-1.9 116.4,-29.4 116.4,-29.4 0,0 -0.6,7.3 -0.6,20.8 -0.6,32.5 0.6,99.3 14.1,169.7 15.9,87.7 52.1,181.4 127.4,223.7 115.9,64.3 276.4,35.5 356.1,14.7 30.6,-8 49.6,-14.7 49.6,-14.7 0,0 78.4,39.2 135.4,41 8,0 16,-0.6 22.7,-1.8 56.4,-11.6 117.7,-67.4 117.7,-67.4 0,0 41,107.2 163.6,101.7 122.5,-4.9 214.4,-129.3 214.4,-129.3 0,0 174.1,364.6 472.5,334 110.9,-11.6 182.6,-52.1 228.6,-99.9 79,-80.3 85.1,-178.3 85.1,-178.3 0,0 51.5,49.6 143.4,46.6 30.7,-0.7 66.8,-7.4 106.6,-24 87.1,-36.1 107.9,-136.6 109.1,-219.9 0.6,-68.7 -11.6,-125 -11.6,-125 0,0 15.9,1.8 37.4,-1.3 34.9,-6.1 85.1,-26.3 110.3,-90.6 41,-104.2 0,-277 0,-277 0,0 120.1,-53.9 158.7,-201.6 38.6,-147.7 -71.7,-376.3 -71.7,-376.3 0,0 131.7,-8.5 105.4,-254.9 -27,-246.9 -131.2,-302.1 -131.2,-302.1"
             style="fill:#66a542;fill-opacity:1;fill-rule:nonzero;stroke:none"
             id="path84" /><path
             d="m 12889.7,13567.2 c -142.3,0 -319,6.8 -493.5,16.2 -273.9,14.7 -542.9,35.6 -664.9,45.4 -43.5,3.6 -68,5.5 -68,5.5 0,0 -70.5,1.2 -154.4,13.5 -6.8,0.6 -14.1,1.8 -21.5,3 -100.5,16.6 -213.2,49.7 -247.5,115.8 -22.3,42.8 -29.8,89.5 -29.7,132.7 0,86.1 29.7,158.4 29.7,158.4 v 0 0 c 0,0 -378.1,153.2 -444.3,306.4 -50.9,116.7 -57,221.6 -57,265 0,13.6 0.6,21.2 0.6,21.2 v 0 0 c 0,0 -26.3,23.9 -55.7,64.9 6.7,13.5 14.1,27.6 22.6,41.1 15.4,24.5 33.1,47.8 52.1,64.3 l 0.6,0.6 c 18.7,15.3 38.9,25.4 60.3,25.4 1.7,0 3.5,-0.1 5.3,-0.2 16.5,0 31.9,-2.5 46,-5.6 75.3,-12.8 110.9,-45.9 110.9,-45.9 0,0 0.6,7.3 2.4,20.8 4.3,31.9 15.3,98.1 38.6,166.1 28.8,83.9 78.5,171.6 158.7,202.2 19.2,7.2 39,12 59.2,14.9 -0.1,-4.1 -0.3,-6.3 -0.3,-6.3 0,0 10.7,3.9 28.4,9.3 8.1,0.5 16.3,0.7 24.5,0.7 94.7,0 188.8,-32.8 243,-56 28.8,-12.2 46.6,-21.4 46.6,-21.4 0,0 13.6,4.4 33.6,9.2 2.7,-4.5 4.9,-8.9 6.8,-12.9 v 0 0 c -1.5,4.1 -3.2,8.5 -5.1,13.3 24.3,5.8 57.4,12.1 86.9,12.1 6.2,0 12.3,-0.3 18.1,-0.9 7.4,-1.2 15.3,-3.1 22.1,-5.5 53.9,-19.6 106.6,-84 106.6,-84 0,0 44.6,80.3 140.2,80.3 11.4,0 23.5,-1.1 36.3,-3.7 120.7,-22.6 193,-158.7 193,-158.7 0,0 182.9,271.8 431.7,271.8 27.6,0 55.9,-3.3 84.9,-10.7 107.8,-27.6 172.8,-78.5 211.4,-132.4 66.2,-90.7 58.2,-188.7 58.2,-188.7 0,0 40.5,29 106.6,29 13.2,0 27.3,-1.2 42.3,-3.9 30,-4.9 65,-17.2 101.7,-39.2 80.9,-48.4 87.1,-150.8 76,-233.5 -9.8,-68 -30,-121.9 -30,-121.9 0,0 15.9,-0.6 36.8,-6.8 33.7,-11 80.2,-38.6 96.2,-106 25.1,-109.1 -41.1,-273.9 -41.1,-273.9 0,0 111.5,-71.1 128.1,-222.4 4.9,-44.2 -3.7,-92.6 -18.4,-139.7 v 0 c -23.1,-4 -46.2,-5.4 -67.5,-5.4 -55.6,0 -99.2,9.6 -99.2,9.6 0,0 -9.8,-82.7 -86.4,-155.6 -19.6,-18.4 -42.9,-36.2 -72.3,-51.5 -35,-18.9 -144.7,-26 -290.2,-26 M 11632,15097.6 v 0 0 c -1.2,4.3 -3.6,11.6 -8.5,21.4 4.3,-10.4 6.7,-17.7 8.5,-21.4"
             style="fill:#4d8d4c;fill-opacity:1;fill-rule:nonzero;stroke:none"
             id="path86" /><path
             d="m 12432.9,14784.4 c 1,0.4 1.2,0.1 0,0"
             style="fill:#ffffff;fill-opacity:1;fill-rule:nonzero;stroke:none"
             id="path88" /><path
             d="m 13252.2,13644.7 c -19.6,-18.4 -42.9,-36.2 -72.3,-51.5 -69.2,-37.4 -430.8,-28.8 -783.7,-9.8 -273.9,14.7 -542.9,35.6 -664.9,45.4 -43.5,3.6 -68,5.5 -68,5.5 0,0 -82.7,1.2 -175.9,16.5 0,0 74.2,65 84,172.2 10.4,107.2 -41.7,173.4 -41.7,173.4 0,0 39.2,51.5 42.9,87 4.3,35.6 -85.2,316.9 -85.2,316.9 0,0 33.7,199.1 -17.7,260.4 0,0 127.4,-31.9 173.4,0 45.9,31.8 45.9,31.8 45.9,31.8 0,0 76.6,39.3 87,67.4 9.8,28.2 96.9,231.1 96.9,231.1 0,0 61.2,-228.6 107.2,-193.1 46,36.2 285.5,232.9 285.5,232.9 0,0 97.5,-209.6 148.3,-239 12.2,-6.9 17.3,-7.6 19,-7.4 -3.7,-2 -17.5,-20.3 17.2,-149.5 55.8,-209.5 120.1,-164.8 120.1,-164.8 0,0 -28.2,-222.4 88.9,-258.6 117.6,-36.1 117.6,-36.1 117.6,-36.1 l 130.5,-96.9 c 0,0 -43.5,-286.1 99.3,-332.1 91.9,-29.4 219.4,-48.4 245.7,-101.7"
             style="fill:#367756;fill-opacity:1;fill-rule:nonzero;stroke:none"
             id="path90" /><path
             d="m 12965.4,14063.2 c 0,0 -392.7,-189.3 -484.7,-291 -35.5,-39.9 -63.1,-113.4 -84.5,-188.8 -52.1,3.1 -103.6,5.5 -153.8,8.6 -20.3,1.2 -39.9,2.4 -59.5,3.7 -192.4,12.8 -362.1,25.7 -451.6,33.1 -5.5,117 -19,291 -52.7,490.2 -61.3,362.8 -208.9,541.7 -208.9,541.7 0,0 36.1,-17.2 73.5,-28.8 20.8,-6.8 42.9,-12.3 58.8,-12.3 46,0 87,72.9 87,72.9 0,0 15.3,-269 76.6,-457.1 36.2,-110.3 74.2,-183.8 98.1,-224.9 18.4,-28.8 29.4,-42.3 29.4,-42.3 0,0 36.1,278.9 0,437 -35.6,158.1 -55.8,470 -46,505.5 10.4,35.5 20.9,120.1 20.9,120.1 0,0 6.1,-74.2 28.8,-129.9 12.8,-33.1 31.2,-59.5 57.6,-61.9 71.7,-4.9 71.7,-4.9 71.7,-4.9 0,0 -66.2,-275.8 -41.1,-418.5 24.5,-137.3 58.2,-291.7 96.8,-247.6 1.9,1.9 3.7,4.3 5.5,7.4 41.1,66.1 58.9,417.3 75.4,517.1 16.5,100.5 103.6,378.7 103.6,378.7 0,0 -9.2,-92.5 28.8,-146.4 1.8,-3.1 4.3,-6.1 6.7,-9.2 46,-50.9 81.5,-86.4 81.5,-86.4 0,0 -137.9,-498.8 -153.2,-632.4 l -1.8,-12.9 c -17.8,-125 -77.2,-186.9 -13.5,-161.7 66.8,25.7 199.1,222.4 240.2,264.7 41.1,41.7 115.2,183.2 115.2,183.2 0,0 -1.8,-96.8 8,-150.1 3.6,-17.8 7.9,-31.3 14.7,-33.1 6.1,-2.5 12.8,-4.9 19,-8 19.6,-9.8 37.3,-22 37.3,-22 0,0 -204.6,-286.8 -148.2,-288.7 56.3,-2.4 406.2,228.6 406.2,228.6 v -77.8 l 58.2,-55.8"
             style="fill:#7a4d41;fill-opacity:1;fill-rule:nonzero;stroke:none"
             id="path92" /><path
             d="m 10826.9,15462.8 c 17.1,19.6 37.3,33.1 60.6,34.9 10.5,1.2 20.7,1.6 30.4,1.6 5.6,0 11,-0.1 16.2,-0.3 -35.6,-6.2 -72.3,-19 -107.2,-36.2"
             style="fill:#4d8d4c;fill-opacity:1;fill-rule:nonzero;stroke:none"
             id="path94" /><path
             d="m 11441.6,15662.4 c -1.7,0 -2.6,1.2 -2.6,3.9 0,25.1 55.2,144 108.5,232.2 30.6,-8 49.6,-14.7 49.6,-14.7 0,0 78.4,39.2 135.4,41 -142.6,-100.9 -271.2,-262.4 -290.9,-262.4"
             style="fill:#4d8d4c;fill-opacity:1;fill-rule:nonzero;stroke:none"
             id="path96" /><path
             d="m 11616,15134.4 c -15,25.8 -42.1,58.2 -90.6,82.7 -22.6,11.3 -51.3,15.5 -81.9,15.5 -64.3,0 -136.4,-18.9 -175.2,-30.7 -9.4,-0.6 -18.8,-1.6 -28.1,-3 0.6,29.6 -5.8,156.7 -153.5,270.7 -11.7,9.1 -23.9,15.9 -36.8,20.8 v 0 c -0.1,4 -0.1,8.6 -0.1,13.7 0,35.5 2.4,94.4 14.2,156 83.9,-17.1 27.6,-19 60.7,-64.9 33,-46 145.8,-296 145.8,-296 0,0 72.8,51.6 149.8,51.6 16.5,0 33.2,-2.4 49.4,-8.1 66.7,-23.4 122.8,-143.8 148,-207.9 -0.6,-0.1 -1.1,-0.2 -1.7,-0.4"
             style="fill:#4d8d4c;fill-opacity:1;fill-rule:nonzero;stroke:none"
             id="path98" /><path
             d="m 11622.8,15121.5 c -1.9,4 -4.1,8.4 -6.8,12.9 0.6,0.2 1.1,0.3 1.7,0.4 1.9,-4.8 3.6,-9.2 5.1,-13.3 m -382.9,71.1 c 0,0 0.2,2.2 0.3,6.3 9.3,1.4 18.7,2.4 28.1,3 -17.7,-5.4 -28.4,-9.3 -28.4,-9.3"
             style="fill:#418251;fill-opacity:1;fill-rule:nonzero;stroke:none"
             id="path100" /><path
             d="m 11632,15097.6 c -1.8,3.7 -4.2,11 -8.5,21.4 4.9,-9.8 7.3,-17.1 8.5,-21.4"
             style="fill:#418251;fill-opacity:1;fill-rule:nonzero;stroke:none"
             id="path102" /><path
             d="m 12113.1,15375.2 c 0,0 4.9,265.9 132.3,270.8 128.1,4.9 128.1,4.9 128.1,4.9 0,0 9.8,199.2 153.2,209.6 9.7,0.7 19.1,1 28.2,1 125.3,0 196.1,-62.3 196.1,-62.3 0,0 61.9,206.5 201,262.9 79,-80.3 85.1,-178.3 85.1,-178.3 0,0 48.5,46.7 135.3,46.7 2.6,0 5.4,-0.1 8.1,-0.1 -173.4,-70.5 -329.6,-156.9 -352.9,-229.8 -50.9,-161.8 -54.6,-192.4 -54.6,-192.4 0,0 -139.5,96.7 -240.2,96.7 -21.5,0 -41.3,-4.4 -57.6,-15.2 -91.9,-61.3 -114.6,-153.2 -114.6,-153.2 0,0 -19.4,118.6 -78.6,118.6 -12.1,0 -25.9,-4.9 -41.5,-16.9 -91.9,-71.1 -127.4,-163 -127.4,-163"
             style="fill:#4d8d4c;fill-opacity:1;fill-rule:nonzero;stroke:none"
             id="path104" /><path
             d="m 12907.2,15239.8 c 0,0 68.7,227.3 232.3,321.7 69.2,40.4 170.9,78.4 256.7,125 0,-1.6 0,-3.2 0.1,-4.8 0,-66.5 -11.7,-120.2 -11.7,-120.2 v 0 0 c 0,0 4.7,0.5 12.6,0.5 6.4,0 15,-0.4 24.8,-1.8 -228,-83.3 -514.8,-320.4 -514.8,-320.4"
             style="fill:#4d8d4c;fill-opacity:1;fill-rule:nonzero;stroke:none"
             id="path106" /><path
             d="m 11508.9,13647.8 c -6.8,0.6 -14.1,1.8 -21.5,3 -100.5,16.6 -213.2,49.7 -247.5,115.8 -66.8,128.1 0,291.1 0,291.1 0,0 -378.1,153.2 -444.3,306.4 -66.8,153.2 -56.4,286.2 -56.4,286.2 0,0 -150.7,138.5 -141.5,316.8 8.6,178.3 141.5,272.7 141.5,272.7 0,0 13.5,80.2 44.8,151.3 0,0 210.8,-506.1 287.3,-730.4 76.6,-224.9 163,-311.9 229.8,-311.9 66.2,0 -76.6,-594.4 207.8,-701"
             style="fill:#add154;fill-opacity:1;fill-rule:nonzero;stroke:none"
             id="path108" /><path
             d="m 11863.7,14010.5 c 30.6,-120.1 50.8,-225.5 39.8,-256.7 -30.6,-84 -68.6,38.6 -129.9,214.4 -45.4,130.6 -169.8,489 -230.4,663.7 20.8,-6.8 42.9,-12.3 58.8,-12.3 46,0 87,72.9 87,72.9 0,0 15.3,-269 76.6,-457.1 36.2,-110.3 74.2,-183.8 98.1,-224.9"
             style="fill:#b26249;fill-opacity:1;fill-rule:nonzero;stroke:none"
             id="path110" /><path
             d="m 12081.8,14168 c -13.5,-209.6 -26.3,-385.4 -40.4,-441.2 -38.6,-149.5 -38.6,142.2 -84,328.5 -46.6,186.2 -30.6,572.3 -50.8,742.6 -4.3,35 -6.8,69.9 -9.8,103 12.8,-33.1 31.2,-59.5 57.6,-61.9 71.7,-4.9 71.7,-4.9 71.7,-4.9 0,0 -66.2,-275.8 -41.1,-418.5 24.5,-137.3 58.2,-291.7 96.8,-247.6"
             style="fill:#b26249;fill-opacity:1;fill-rule:nonzero;stroke:none"
             id="path112" /><path
             d="m 12113.1,13893.5 c -54.6,-38.6 90.7,614 182,1031.3 1.8,-3.1 4.3,-6.1 6.7,-9.2 46,-50.9 81.5,-86.4 81.5,-86.4 0,0 -137.9,-498.8 -153.2,-632.4 l -1.8,-12.9 c -46,-136 -72.3,-259.8 -115.2,-290.4"
             style="fill:#b26249;fill-opacity:1;fill-rule:nonzero;stroke:none"
             id="path114" /><path
             d="m 12611.9,14278.9 c -133,-197.9 -280.7,-497.6 -369.5,-686.9 -20.3,1.2 -39.9,2.4 -59.5,3.7 97.5,194.8 277,543.5 395.3,724.3 3.6,-17.8 7.9,-31.3 14.7,-33.1 6.1,-2.5 12.8,-4.9 19,-8"
             style="fill:#b26249;fill-opacity:1;fill-rule:nonzero;stroke:none"
             id="path116" /><path
             d="M 17464.5,12352.3 H 7675.34 l 619.51,1348.2 h 8550.05 l 98.1,-213.9 521.5,-1134.3"
             style="fill:#f3a277;fill-opacity:1;fill-rule:nonzero;stroke:none"
             id="path118" /><path
             d="M 17464.5,12214.5 H 7675.34 v 137.8 h 9789.16 v -137.8"
             style="fill:#d78560;fill-opacity:1;fill-rule:nonzero;stroke:none"
             id="path120" /><path
             d="M 16882.3,11785.5 H 8272.79 v 429 h 8609.51 v -429"
             style="fill:#b26249;fill-opacity:1;fill-rule:nonzero;stroke:none"
             id="path122" /><path
             d="m 16121.7,9267.6 h -2128.6 c -5.5,0 -10,4.5 -10,10 V 10572 c 0,5.5 4.5,10 10,10 h 2128.6 c 5.5,0 10,-4.5 10,-10 V 9277.6 c 0,-5.5 -4.5,-10 -10,-10"
             style="fill:#f3a277;fill-opacity:1;fill-rule:nonzero;stroke:none"
             id="path124" /><path
             d="m 8755.36,13700.5 -291.07,1125.9 191.49,643.5 1570.22,413.6 513.2,-467.3 451.9,-1715.7 H 8755.36"
             style="fill:#4092dd;fill-opacity:1;fill-rule:nonzero;stroke:none"
             id="path126" /><path
             d="m 10003.9,15240.1 428.9,-1539.6 h 758.3 l -451.9,1715.7 -735.3,-176.1"
             style="fill:#a6aabf;fill-opacity:1;fill-rule:nonzero;stroke:none"
             id="path128" /><path
             d="m 10739.2,15416.2 -178.9,-42.9 -556.4,-132.9 167.9,486.5 53.9,156.9 513.5,-467.6"
             style="fill:#3b62b7;fill-opacity:1;fill-rule:nonzero;stroke:none"
             id="path130" /><path
             d="m 10560.3,15373.3 -556.4,-132.9 167.9,486.5 z"
             style="fill:#233f8e;fill-opacity:1;fill-rule:nonzero;stroke:none"
             id="path132" /><path
             d="m 8464.29,14826.4 1539.61,413.7 428.9,-1539.6 H 8755.36 l -291.07,1125.9"
             style="fill:#efefef;fill-opacity:1;fill-rule:nonzero;stroke:none"
             id="path134" /><path
             d="m 10187,16011.9 c -38.2,125.3 -168.1,198.5 -295.08,166.1 l -1094.63,-279 c -132.57,-33.8 -211.81,-169.6 -176.05,-301.6 l 34.54,-127.5 1570.22,413.6 -39,128.4"
             style="fill:#ffffff;fill-opacity:1;fill-rule:nonzero;stroke:none"
             id="path136" /><path
             d="M 8721.88,13829.9 H 10226 l -398.29,1362.8 176.19,47.4 428.9,-1539.6 H 8755.36 l -33.48,129.4"
             style="fill:#ffffff;fill-opacity:1;fill-rule:nonzero;stroke:none"
             id="path138" /><path
             d="m 10371.6,15328.1 451.9,-1627.6 h 38.3 l -429,1642.3 -61.2,-14.7"
             style="fill:#888ea5;fill-opacity:1;fill-rule:nonzero;stroke:none"
             id="path140" /><path
             d="m 8617.97,15342.8 1339.96,364.5 -130.22,-514.6 176.19,47.4 222.1,643.4 -1570.22,-413.6 -37.81,-127.1"
             style="fill:#3b62b7;fill-opacity:1;fill-rule:nonzero;stroke:none"
             id="path142" /><path
             d="m 9197.91,14416.1 -74.59,290 c -17.02,66.2 -84.86,105.7 -150.81,87.8 l -247.6,-67.2 c -62.93,-17.1 -101.46,-80.4 -87.69,-144.2 l 59.28,-274.3 c 14.1,-65.3 77.83,-107.3 143.34,-94.4 l 262.93,51.5 c 69.17,13.5 112.69,82.5 95.14,150.8"
             style="fill:#ffffff;fill-opacity:1;fill-rule:nonzero;stroke:none"
             id="path144" /><path
             d="m 14017.6,14872.7 h -1110.4 c -101.7,0 -183.8,-82.7 -183.8,-183.8 v -988.4 h 1478 v 988.4 c 0,101.1 -82.1,183.8 -183.8,183.8"
             style="fill:#efefef;fill-opacity:1;fill-rule:nonzero;stroke:none"
             id="path146" /><path
             d="m 14013.9,15071.2 v -198.5 h -1106.7 v 198.5 h 1106.7"
             style="fill:#a6aabf;fill-opacity:1;fill-rule:nonzero;stroke:none"
             id="path148" /><path
             d="m 14097.9,15408.3 h -1263.6 c -33.7,0 -61.3,-27 -61.3,-61.3 v -214.5 c 0,-33.7 27.6,-61.3 61.3,-61.3 h 1263.6 c 33.7,0 61.2,27.6 61.2,61.3 v 214.5 c 0,34.3 -27.5,61.3 -61.2,61.3"
             style="fill:#233f8e;fill-opacity:1;fill-rule:nonzero;stroke:none"
             id="path150" /><path
             d="m 14013.9,15071.2 v -80.2 h -1106.7 v 80.2 h 1106.7"
             style="fill:#888ea5;fill-opacity:1;fill-rule:nonzero;stroke:none"
             id="path152" /><path
             d="m 14201.4,14688.9 v -988.4 h -1478 v 99.8 h 1011.1 c 0,0 -53.9,443.7 -53.9,486 0,42.3 122.5,157.5 160.5,183.8 38.6,27 -30.6,126.8 -30.6,126.8 0,0 0,0 -30.7,7.4 -30.6,7.4 -53.3,268.4 -53.3,268.4 h 291.1 c 101.7,0 183.8,-82.7 183.8,-183.8"
             style="fill:#a6aabf;fill-opacity:1;fill-rule:nonzero;stroke:none"
             id="path154" /><path
             d="m 12939.6,14701.4 h -14.3 c -53.8,0 -97.5,-43.6 -97.5,-97.5 v -249.3 c 0,-53.8 43.7,-97.5 97.5,-97.5 h 14.3 c 53.9,0 97.5,43.7 97.5,97.5 v 249.3 c 0,53.9 -43.6,97.5 -97.5,97.5"
             style="fill:#ffffff;fill-opacity:1;fill-rule:nonzero;stroke:none"
             id="path156" /><path
             d="m 14159.1,15347 v -53.3 H 12773 v 53.3 c 0,34.3 27.6,61.3 61.3,61.3 h 1263.6 c 33.7,0 61.2,-27 61.2,-61.3"
             style="fill:#4092dd;fill-opacity:1;fill-rule:nonzero;stroke:none"
             id="path158" /><path
             d="m 15430,14536.3 c -14.7,100.5 -108.4,169.7 -208.9,154.4 l -12.3,-1.8 -1145.3,-172.2 -8.5,-1.3 c -100.5,-15.3 -169.8,-109 -154.5,-209.5 l 91.3,-605.4 h 1564.5 l -126.3,835.8"
             style="fill:#efefef;fill-opacity:1;fill-rule:nonzero;stroke:none"
             id="path160" /><path
             d="m 15208.8,14688.9 -1145.3,-172.2 -17.7,117 -12.3,79.7 1145.3,172.8 12.3,-79.7 17.7,-117.6"
             style="fill:#a6aabf;fill-opacity:1;fill-rule:nonzero;stroke:none"
             id="path162" /><path
             d="m 15288.3,15182.5 c -4.9,32.8 -35.4,55.4 -68.2,50.4 l -1315.9,-198.2 c -32.7,-4.9 -55.3,-35.5 -50.4,-68.3 l 32.4,-214.6 c 4.9,-32.7 35.5,-55.3 68.2,-50.4 l 1315.9,198.2 c 32.7,5 55.3,35.6 50.4,68.3 l -32.4,214.6"
             style="fill:#f25151;fill-opacity:1;fill-rule:nonzero;stroke:none"
             id="path164" /><path
             d="m 15191,14806.4 -1145.2,-172.5 -12,79.5 1145.2,172.5 12,-79.5"
             style="fill:#888ea5;fill-opacity:1;fill-rule:nonzero;stroke:none"
             id="path166" /><path
             d="m 15421.5,13700.5 h -1121.4 c -40.5,173.4 -69.3,379.9 -17.2,382.9 0,0 266,10.5 546.6,56.4 280.7,46 449.2,112.2 470,91.9 14.7,-15.3 86.4,-356 122,-531.2"
             style="fill:#a6aabf;fill-opacity:1;fill-rule:nonzero;stroke:none"
             id="path168" /><path
             d="m 15345.5,13710.9 c -1.9,-0.6 -15.4,-4.3 -38,-10.4 h -930.2 c -38,131.1 -84,291.6 -58.2,295.9 0,0 913.6,163.6 934.5,112.8 20.2,-51.5 107.2,-393.4 91.9,-398.3"
             style="fill:#ffffff;fill-opacity:1;fill-rule:nonzero;stroke:none"
             id="path170" /><path
             d="M 16943,13486.6 H 8571.22 l -497.58,-1134.3 h -398.3 l 619.51,1348.2 h 8550.05 l 98.1,-213.9"
             style="fill:#ffbb8d;fill-opacity:1;fill-rule:nonzero;stroke:none"
             id="path172" /><path
             d="m 8571.22,12214.5 v -3438 H 16879.9 V 8443.9 H 8272.79 v 3770.6 h 298.43"
             style="fill:#b26249;fill-opacity:1;fill-rule:nonzero;stroke:none"
             id="path174" /><path
             d="m 22499.3,10546.7 240.3,-1147.9 c 0,0 2130,437.8 3190.3,634.2 689.6,127.7 1352.4,1308.9 1730.9,2118.4 203.9,435.2 326,763.1 326,763.1 0,0 -2218.5,-998.5 -3463.6,-1547 -794.7,-349.7 -1398.9,-587.8 -1732.9,-713.8 -189.4,-71.1 -291,-107 -291,-107"
             style="fill:#ffb797;fill-opacity:1;fill-rule:nonzero;stroke:none"
             id="path176" /><path
             d="m 22499.3,10546.7 240.3,-1147.9 c 0,0 2130,437.8 3190.3,634.2 689.6,127.7 1352.4,1308.9 1730.9,2118.4 -315.1,-263.5 -813.6,-699 -1113.1,-1059.8 -464.1,-558.8 -498.2,-645.5 -1184.1,-702.6 -685.8,-57.1 -1317.9,-376.4 -1829.3,-423.7 -511.4,-47.4 -600,106.9 -744,688.4 -189.4,-71.1 -291,-107 -291,-107"
             style="fill:#fc8a70;fill-opacity:1;fill-rule:nonzero;stroke:none"
             id="path178" /><path
             d="m 18263.3,8862.7 1,-0.9 c 176.9,-136.8 416.1,-272.5 600.4,-295.6 351,-43.6 1047.1,-231.8 1544,-32.2 496.9,199.6 1273.3,495.5 1443.1,521.9 169.8,26.4 650.9,40.7 650.9,40.7 0,0 50.2,8.7 109.3,27.4 45.6,14.1 96.4,34.6 132.9,61.9 26,18.9 44.5,41.2 50.1,67.6 6.1,28.1 -1.6,133.2 -18.5,274 -51.4,416.4 -187.7,1144.8 -311.8,1112.4 -15.9,-4.1 -35,-11.3 -58.3,-20.7 -28.8,-11.4 -62.9,-27.3 -101.2,-45.4 -251.7,-119.2 -684.6,-347.5 -1007.6,-334.3 -411.2,17.1 -809.9,-54.4 -1314.4,77.2 -504.5,131.6 -794.4,279.4 -839.7,140.6 -45.5,-139.4 130.9,-302.4 349,-419.2 218.1,-117.4 346.3,-285.8 208.8,-342.9 -137.4,-56.5 -1608.6,-454.6 -1675,-542.5 -30.8,-41.7 77.3,-166.3 237,-290"
             style="fill:#1eb1bc;fill-opacity:1;fill-rule:nonzero;stroke:none"
             id="path180" /><path
             d="m 22305.2,10573.8 c 21.2,-202.6 64.6,-501.3 150.5,-855.6 64,-263.6 116,-457.1 156.3,-594.2 45.6,14.1 96.4,34.6 132.9,61.9 -73.3,179.2 -161.8,436.2 -234.1,754.9 -72.3,318.7 -97.5,537.8 -104.4,678.4 -28.8,-11.4 -62.9,-27.3 -101.2,-45.4"
             style="fill:#009aaa;fill-opacity:1;fill-rule:nonzero;stroke:none"
             id="path182" /><path
             d="m 18264.3,8861.8 c 176.9,-136.8 416.1,-272.5 600.4,-295.6 351,-43.6 1047.1,-231.8 1544,-32.2 496.9,199.6 1273.3,495.5 1443.1,521.9 169.8,26.4 650.9,40.7 650.9,40.7 0,0 50.2,8.7 109.3,27.4 45.6,14.1 96.4,34.6 132.9,61.9 26,18.9 44.5,41.2 50.1,67.6 6.1,28.1 -1.6,133.2 -18.5,274 -90.9,-126.6 -254.4,-243.3 -549.9,-257.2 -669.6,-31.1 -797.5,-139.8 -1029.1,-247 -232.1,-107 -1515.8,-542.7 -1974.8,-444.6 -459.6,98.2 -714.3,79.3 -459.6,98.2 254.5,18.3 705.4,172.6 448.7,144.1 -256.1,-28.6 -694.1,-110.5 -947.5,40.8"
             style="fill:#f47f31;fill-opacity:1;fill-rule:nonzero;stroke:none"
             id="path184" /><path
             d="m 9130.68,10728.5 -474.9,-1072.4 c 0,0 -1991.53,873.2 -2987.29,1286.9 -647.7,269 -1049.08,1562.5 -1250.07,2433.3 -108.45,468.2 -159.32,814.4 -159.32,814.4 0,0 1960.89,-1440 3063.89,-2236.7 704.08,-507.9 1245.16,-867 1545.42,-1060.1 170.36,-109 262.27,-165.4 262.27,-165.4"
             style="fill:#af5432;fill-opacity:1;fill-rule:nonzero;stroke:none"
             id="path186" /><path
             d="m 9130.68,10728.5 -474.9,-1072.4 c 0,0 -1991.53,873.2 -2987.29,1286.9 -647.7,269 -1049.08,1562.5 -1250.07,2433.3 253.08,-323.6 649.55,-853.6 867.08,-1269.1 337.03,-643.4 352.35,-735.3 1011.09,-934.4 658.73,-199.2 1210.23,-643.5 1700.45,-796.7 490.22,-153.1 609.1,-20.8 871.37,517.8 170.36,-109 262.27,-165.4 262.27,-165.4"
             style="fill:#964026;fill-opacity:1;fill-rule:nonzero;stroke:none"
             id="path188" /><path
             d="m 12921.3,8196.5 -1.2,-0.6 c -201.6,-96.8 -463.9,-179.6 -648.9,-163.6 -352.4,30.6 -1072.4,-8 -1516.7,291 -444.2,299.1 -1141.56,750.7 -1302.11,812 -160.55,61.2 -628.1,175.8 -628.1,175.8 0,0 -47.18,19 -101.1,49.7 -41.68,23.3 -87.02,53.9 -117.05,88.2 -21.44,23.9 -34.92,49.6 -34.92,76.6 0,28.8 29.41,129.9 75.36,264.1 137.27,396.5 422.83,1080.3 537.42,1022.7 14.7,-7.3 31.86,-18.3 52.69,-32.4 25.74,-17.2 55.77,-39.9 89.47,-65.6 221.21,-169.1 596.84,-482.9 915.44,-537.4 405.7,-69.3 780.7,-222.4 1301.6,-199.2 520.8,23.3 835.2,107.3 850.5,-38 15.3,-145.8 -191.2,-268.4 -428.9,-337 -237.8,-69.2 -398.3,-207.1 -275.8,-291.7 122.6,-83.9 1478,-780.6 1524.6,-880.5 21.5,-47.2 -110.3,-146.5 -292.3,-234.1"
             style="fill:#fcd554;fill-opacity:1;fill-rule:nonzero;stroke:none"
             id="path190" /><path
             d="m 9326.16,10714.4 c -63.12,-193.6 -167.9,-476.7 -326,-805.2 -117.65,-244.5 -208.95,-422.8 -276.97,-548.4 -41.68,23.3 -87.02,53.9 -117.05,88.2 109.07,159.9 249.41,392.8 386.67,689.4 137.26,296.6 207.72,505.5 243.88,641.6 25.74,-17.2 55.77,-39.9 89.47,-65.6"
             style="fill:#ffa131;fill-opacity:1;fill-rule:nonzero;stroke:none"
             id="path192" /><path
             d="m 12319.2,8030.3 c -16.5,0 -32.5,0.6 -48,2 -352.4,30.6 -1072.4,-8 -1516.7,291 -444.2,299.1 -1141.56,750.7 -1302.11,812 -160.55,61.2 -628.1,175.8 -628.1,175.8 0,0 -47.18,19 -101.1,49.7 30.43,56.2 65.53,122.9 105.56,201.4 74.83,-56.3 173.1,-105 301.93,-138.9 648.32,-170.4 750.65,-303.3 954.72,-456.6 204.7,-153.1 1368.9,-847.4 1838.3,-847.4 313.3,0 526.7,-31.9 561.6,-31.9 17.4,0 -9.9,8 -91.6,31.9 -210.8,61.1 -542.7,251.1 -475.4,251.1 11,0 32.4,-5 66.7,-16.4 193.9,-64.7 492.8,-186 747.5,-186 66.4,0 129.8,8.2 187.6,27.9 -184.7,-88.7 -420.4,-165.6 -600.9,-165.6 M 8606.14,9449 v 0 c -21.44,23.9 -34.92,49.6 -34.92,76.6 0,28.8 29.41,129.9 75.36,264.1 20.55,-46.9 48.98,-94.5 88.06,-139.8 -45.82,-76.1 -89.2,-143.3 -128.5,-200.9"
             style="fill:#fe9747;fill-opacity:1;fill-rule:nonzero;stroke:none"
             id="path194" /><path
             d="m 8723.19,9360.8 c -41.68,23.3 -87.02,53.9 -117.05,88.2 v 0 c 39.3,57.6 82.68,124.8 128.5,200.9 26.27,-30.5 57.36,-60 94.11,-87.7 -40.03,-78.5 -75.13,-145.2 -105.56,-201.4 v 0"
             style="fill:#ff8a3e;fill-opacity:1;fill-rule:nonzero;stroke:none"
             id="path196" /><path
             d="m 20879.9,9055.9 154.7,-1162.5 c 0,0 2156.6,278.9 3228.4,396.3 697.2,76.3 1445.7,1205.2 1883.1,1984.5 235.5,418.8 381.5,736.8 381.5,736.8 0,0 -2286.3,-831.5 -3568.6,-1286.4 -818.4,-289.8 -1438.5,-482.5 -1780.9,-583.5 -194.1,-56.9 -298.2,-85.2 -298.2,-85.2"
             style="fill:#ffbf9f;fill-opacity:1;fill-rule:nonzero;stroke:none"
             id="path198" /><path
             d="m 20879.9,9055.9 154.7,-1162.5 c 0,0 2156.6,278.9 3228.4,396.3 697.2,76.3 1445.7,1205.2 1883.1,1984.5 -333.8,-239.5 -863.1,-636.9 -1188.6,-974.6 -504.1,-522.9 -544.6,-606.8 -1232.8,-613 -688.1,-6.2 -1342.2,-277.7 -1855.7,-287.1 -513.5,-9.4 -590.4,151 -690.9,741.6 -194.1,-56.9 -298.2,-85.2 -298.2,-85.2"
             style="fill:#ff9b80;fill-opacity:1;fill-rule:nonzero;stroke:none"
             id="path200" /><path
             d="m 16530.8,7690.1 1,-0.9 c 166.3,-149.5 394.8,-302.6 576.9,-339.2 346.8,-69.6 1027,-308.8 1537.4,-146.5 510.3,162.3 1306.4,399.9 1477.7,413.6 171.3,13.8 652.2,-7.5 652.2,-7.5 0,0 50.6,5 111,19.2 46.5,10.7 98.6,27.4 137.1,51.9 27.3,16.9 47.5,37.8 55,63.7 8.1,27.6 8.3,132.9 1.8,274.6 -20.4,419.1 -102.4,1155.6 -228.6,1132.5 -16.2,-2.9 -35.7,-8.7 -59.7,-16.4 -29.5,-9.2 -64.7,-22.6 -104.3,-37.8 -259.8,-100.2 -708.4,-295.9 -1029.5,-258.7 -408.8,47.4 -811.7,5.7 -1305.1,174.3 -493.4,168.6 -771.5,337.4 -827,202.3 -55.7,-135.7 108.1,-311.3 317.1,-443.9 208.7,-133.2 324.1,-310.6 182.7,-357.4 -141.2,-46.1 -1637.7,-334.3 -1710.5,-417 -33.8,-39.3 64.8,-171.6 214.8,-306.8"
             style="fill:#3bc6d1;fill-opacity:1;fill-rule:nonzero;stroke:none"
             id="path202" /><path
             d="m 16531.8,7689.2 c 166.3,-149.5 394.8,-302.6 576.9,-339.2 346.8,-69.6 1027,-308.8 1537.4,-146.5 510.3,162.3 1306.4,399.9 1477.7,413.6 171.3,13.8 652.2,-7.5 652.2,-7.5 0,0 50.6,5 111,19.2 46.5,10.7 98.6,27.4 137.1,51.9 27.3,16.9 47.5,37.8 55,63.7 8.1,27.6 8.3,132.9 1.8,274.6 -100,-119.5 -271.7,-223.8 -567.5,-215.8 -670,18.6 -805.6,-80.3 -1044.4,-170.1 -239.5,-89.5 -1551.9,-429 -2002.4,-297.2 -451.1,132 -706.5,132 -451.1,132 255.2,-0.6 716.3,119.9 458.2,110.5 -257.5,-9.6 -700.4,-58.8 -941.9,110.8"
             style="fill:#1eb1bc;fill-opacity:1;fill-rule:nonzero;stroke:none"
             id="path204" /><path
             d="m 20688.3,9097.3 c 6.3,-203.6 27.3,-504.7 86.8,-864.3 44.3,-267.7 81.9,-464.5 111.9,-604.2 46.5,10.7 98.6,27.4 137.1,51.9 -59.8,184.1 -129.1,447 -177.5,770.2 -48.5,323.2 -57.5,543.5 -54,684.2 -29.5,-9.2 -64.7,-22.6 -104.3,-37.8"
             style="fill:#009aaa;fill-opacity:1;fill-rule:nonzero;stroke:none"
             id="path206" /><path
             d="m 20092.8,12862.4 c -22.2,-15.8 -45.5,-30.7 -69.6,-44.8 -66,-38.5 -133.9,-70.1 -203.2,-96.6 -52.5,-20.1 -105.7,-37.3 -159.5,-52.4 -38.4,-10.8 -77.1,-20.5 -116,-29.5 -230.6,-53.1 -462.2,-76.2 -694.3,-83.2 -12.4,-0.3 -22.1,1.3 -30.1,5.6 -1,0.6 -2,1.2 -3,1.9 -7.4,5 -13.3,12.7 -18.5,23.8 -133.9,283.1 -246,575.6 -291.4,896.4 -0.1,0.9 -0.3,1.9 -0.4,2.9 -0.2,1 -0.3,2 -0.5,3 -7.1,51.2 -12.2,102.5 -14.1,154 -3.8,102 5.1,204.7 36.4,307.9 15.2,50 36.7,97 63.5,140.3 138.9,225.2 417.1,349.3 654.2,268.5 38.6,-13.1 75,-31.9 94.8,-40.4 153.3,-96.7 240.4,-224.2 287.8,-383.9 6.9,-23.3 15.1,-28.7 39.4,-24.1 188.2,35.9 360.6,7.8 509.5,-104.4 132.9,-100.1 202.6,-275.3 194.9,-453 -2.9,-66.5 -16.6,-133.4 -42,-196.8 -50.8,-127.2 -133.9,-221.3 -237.9,-295.2"
             style="fill:#ffffff;fill-opacity:1;fill-rule:nonzero;stroke:none"
             id="path208" /><path
             d="m 11855.3,17558.6 c 0.1,-16.5 -0.7,-33.1 -2.1,-49.9 -3.9,-45.9 -12,-90.3 -23,-133.7 -8.4,-32.8 -18.4,-65 -29.7,-96.7 -8,-22.7 -16.7,-45.2 -25.8,-67.5 -54,-132 -123.1,-254.1 -200.4,-370.9 -4.1,-6.2 -8.3,-10.4 -13.2,-12.8 l -2,-0.9 c -5,-1.9 -10.8,-2.1 -18.1,-0.8 -186,32.5 -369.1,79 -542.9,168.1 l -1.5,0.8 -1.7,0.8 c -27.7,14.3 -54.7,29.6 -80.7,46.6 -51.6,33.6 -99.1,73.7 -139,125 -19.4,24.8 -35.1,51.8 -47.1,80 -62.6,146.8 -27,326.9 95.2,415.6 19.9,14.4 41.8,25.9 52.8,32.6 101,41.9 194,40.5 289.2,8.4 13.9,-4.7 19.4,-2.6 25.5,11 47.8,105.1 121.6,180.3 228.6,214.7 95.5,30.6 206,4.1 290.9,-61.5 31.8,-24.6 59.9,-54.6 82.3,-89.1 45,-69.3 62.5,-142.9 62.7,-219.8"
             style="fill:#ffffff;fill-opacity:1;fill-rule:nonzero;stroke:none"
             id="path210" /><path
             d="m 7297.59,14348.4 c 0.03,-8.5 -0.36,-17.2 -1.12,-25.9 -2.05,-23.9 -6.24,-47.1 -11.99,-69.7 -4.34,-17 -9.57,-33.8 -15.44,-50.3 -4.19,-11.8 -8.69,-23.5 -13.44,-35.1 -28.11,-68.8 -64.11,-132.4 -104.33,-193.1 -2.14,-3.3 -4.31,-5.5 -6.88,-6.7 l -1.03,-0.5 c -2.61,-1 -5.65,-1.1 -9.44,-0.4 -96.86,16.9 -192.16,41.1 -282.64,87.5 l -0.81,0.4 -0.88,0.5 c -14.39,7.4 -28.48,15.4 -42.03,24.2 -26.85,17.5 -51.57,38.4 -72.38,65.1 -10.08,12.9 -18.23,26.9 -24.49,41.6 -32.62,76.4 -14.06,170.3 49.55,216.4 10.35,7.5 21.76,13.5 27.52,17 52.55,21.8 101.01,21.1 150.54,4.4 7.25,-2.5 10.11,-1.4 13.31,5.7 24.86,54.7 63.27,93.9 119.02,111.8 49.71,15.9 107.26,2.1 151.44,-32 16.53,-12.8 31.2,-28.5 42.87,-46.4 23.43,-36.1 32.54,-74.4 32.65,-114.5"
             style="fill:#ffffff;fill-opacity:1;fill-rule:nonzero;stroke:none"
             id="path212" /></g></g><path
         d="m 7552.78,15676.7 c 0,-67.7 -54.87,-122.6 -122.56,-122.6 -67.68,0 -122.55,54.9 -122.55,122.6 0,67.7 54.87,122.5 122.55,122.5 67.69,0 122.56,-54.8 122.56,-122.5"
         style="fill:#dcf4ef;fill-opacity:1;fill-rule:nonzero;stroke:none"
         id="path214" /><path
         d="m 7660.01,13386.4 c 0,-63.4 -51.44,-114.9 -114.89,-114.9 -63.45,0 -114.9,51.5 -114.9,114.9 0,63.5 51.45,114.9 114.9,114.9 63.45,0 114.89,-51.4 114.89,-114.9"
         style="fill:#dcf4ef;fill-opacity:1;fill-rule:nonzero;stroke:none"
         id="path216" /><path
         d="m 12684.8,17216.3 c 0,-63.5 -51.5,-114.9 -114.9,-114.9 -63.5,0 -114.9,51.4 -114.9,114.9 0,63.4 51.4,114.9 114.9,114.9 63.4,0 114.9,-51.5 114.9,-114.9"
         style="fill:#dcf4ef;fill-opacity:1;fill-rule:nonzero;stroke:none"
         id="path218" /><path
         d="m 17678.9,10644.2 c 0,-88.8 -72,-160.8 -160.8,-160.8 -88.9,0 -160.9,72 -160.9,160.8 0,88.9 72,160.9 160.9,160.9 88.8,0 160.8,-72 160.8,-160.9"
         style="fill:#dcf4ef;fill-opacity:1;fill-rule:nonzero;stroke:none"
         id="path220" /><path
         d="m 15411.7,7212.7 c 0,-190.4 -154.4,-344.7 -344.7,-344.7 -190.4,0 -344.7,154.3 -344.7,344.7 0,190.3 154.3,344.7 344.7,344.7 190.3,0 344.7,-154.4 344.7,-344.7"
         style="fill:#dcf4ef;fill-opacity:1;fill-rule:nonzero;stroke:none"
         id="path222" /><path
         d="m 21907.1,11471.5 c 0,-122.7 -99.5,-222.2 -222.1,-222.2 -122.7,0 -222.2,99.5 -222.2,222.2 0,122.7 99.5,222.1 222.2,222.1 122.6,0 222.1,-99.4 222.1,-222.1"
         style="fill:#dcf4ef;fill-opacity:1;fill-rule:nonzero;stroke:none"
         id="path224" /><path
         d="m 21907.1,13830.7 c 0,-122.7 -99.5,-222.2 -222.1,-222.2 -122.7,0 -222.2,99.5 -222.2,222.2 0,122.6 99.5,222.1 222.2,222.1 122.6,0 222.1,-99.5 222.1,-222.1"
         style="fill:#dcf4ef;fill-opacity:1;fill-rule:nonzero;stroke:none"
         id="path226" /><path
         d="m 20635.6,16488.6 c 0,-110 -89.2,-199.2 -199.2,-199.2 -110,0 -199.1,89.2 -199.1,199.2 0,110 89.1,199.1 199.1,199.1 110,0 199.2,-89.1 199.2,-199.1"
         style="fill:#dcf4ef;fill-opacity:1;fill-rule:nonzero;stroke:none"
         id="path228" /></g></g></svg>
