<?xml version="1.0" encoding="UTF-8" standalone="no"?>
<svg
   xmlns:dc="http://purl.org/dc/elements/1.1/"
   xmlns:cc="http://creativecommons.org/ns#"
   xmlns:rdf="http://www.w3.org/1999/02/22-rdf-syntax-ns#"
   xmlns:svg="http://www.w3.org/2000/svg"
   xmlns="http://www.w3.org/2000/svg"
   xmlns:sodipodi="http://sodipodi.sourceforge.net/DTD/sodipodi-0.dtd"
   xmlns:inkscape="http://www.inkscape.org/namespaces/inkscape"
   version="1.1"
   id="svg2"
   xml:space="preserve"
   width="4000"
   height="3200"
   viewBox="0 0 4000 3200"
   sodipodi:docname="vecteezy_clothing-donation-concept_6901813.eps"><metadata
     id="metadata8"><rdf:RDF><cc:Work
         rdf:about=""><dc:format>image/svg+xml</dc:format><dc:type
           rdf:resource="http://purl.org/dc/dcmitype/StillImage" /></cc:Work></rdf:RDF></metadata><defs
     id="defs6" /><sodipodi:namedview
     pagecolor="#fff"
     bordercolor="#666666"
     borderopacity="1"
     objecttolerance="10"
     gridtolerance="10"
     guidetolerance="10"
     inkscape:pageopacity="0"
     inkscape:pageshadow="2"
     inkscape:window-width="640"
     inkscape:window-height="480"
     id="namedview4" /><g
     id="g10"
     inkscape:groupmode="layer"
     inkscape:label="ink_ext_XXXXXX"
     transform="matrix(1.3333333,0,0,-1.3333333,0,3200)"><g
       id="g12"
       transform="scale(0.1)"><path
         d="M 30000,0 H 0 V 24000 H 30000 V 0"
         style="fill:none;fill-opacity:1;fill-rule:nonzero;stroke:none"
         id="path14" /><path
         d="m 23180.3,10258.8 c -456.7,1774.7 474.4,4484.1 -1513.3,5099.5 -1987.7,615.5 -4451.2,1838.1 -5683.9,3152.8 -1612.6,1719.9 -3976.2,1071.3 -5099.2,-886.4 C 9760.92,15667 7409.28,16925.3 6321.06,16332.8 4791.44,15499.9 6685.35,11253.5 5795.46,10178.4 4905.58,9103.2 2466.61,7976.9 1936.05,5208.4 H 28064 c -1063.4,3713.3 -4427.1,3275.7 -4883.7,5050.4"
         style="fill:#dfefed;fill-opacity:1;fill-rule:nonzero;stroke:none"
         id="path16" /><path
         d="m 4811.27,12879.9 c 458.46,-355.3 678.65,-2064.3 259.89,-2576.6 -742.97,-909 -1584.27,-727.9 -1485.07,430.7 89.11,1040.6 765.76,2501.9 1225.18,2145.9"
         style="fill:#dfefed;fill-opacity:1;fill-rule:nonzero;stroke:none"
         id="path18" /><path
         d="m 23877.4,11655.3 c -155.5,-484 111.5,-1544.5 702.4,-1876.1 738.3,-414.3 1160.1,-24.4 1028,487.9 -273.8,1061.9 -1424.1,2341.4 -1730.4,1388.2"
         style="fill:#dfefed;fill-opacity:1;fill-rule:nonzero;stroke:none"
         id="path20" /><path
         d="m 10344.6,17885.7 c 29.4,-344.8 -330.9,-611.5 -708.26,-720.1 -377.39,-108.6 -918.6,-177.4 -994.39,86 -75.78,263.3 311.35,790.8 929.65,1078.8 355.97,165.9 744.5,-110.2 773,-444.7"
         style="fill:#dfefed;fill-opacity:1;fill-rule:nonzero;stroke:none"
         id="path22" /><path
         d="m 28063.9,5208.4 c 0,-394.5 -5848.9,-714.3 -13063.9,-714.3 -7215.02,0 -13063.95,319.8 -13063.95,714.3 0,394.6 5848.93,714.4 13063.95,714.4 7215,0 13063.9,-319.8 13063.9,-714.4"
         style="fill:#b6d3cf;fill-opacity:1;fill-rule:nonzero;stroke:none"
         id="path24" /><path
         d="m 24908.2,5236.5 c 0,-243.1 -4399.3,-440.1 -9826.2,-440.1 -5426.81,0 -9826.14,197 -9826.14,440.1 0,243.1 4399.33,440.1 9826.14,440.1 5426.9,0 9826.2,-197 9826.2,-440.1"
         style="fill:#599596;fill-opacity:1;fill-rule:nonzero;stroke:none"
         id="path26" /><path
         d="m 17231,12583.8 c 0,0 -428.7,-1925.6 -449.5,-2822.4 -20.8,-896.8 -20.8,-896.8 -20.8,-896.8 l 762.9,-120.3 c 0,0 188.5,1674.7 276,2058.2 87.4,383.5 121.1,649.2 131.3,561.5 10.2,-87.6 -27,-2415.4 199.8,-2451.9 226.7,-36.5 697,-40.1 697,0 0,40 120.8,1268 166.5,1739.5 45.7,471.4 268.1,1551.2 105.4,1828.8 -162.6,277.5 -1868.6,103.4 -1868.6,103.4"
         style="fill:#1f1c47;fill-opacity:1;fill-rule:nonzero;stroke:none"
         id="path28" /><path
         d="m 16628.1,15110.6 c 0,0 -467.5,-401.9 -545.4,-381.4 -77.9,20.5 -918.7,803.8 -992.5,873.5 -73.8,69.7 -139.4,278.9 -135.3,348.6 4.1,69.7 -135.3,242 -221.5,287.1 -86.1,45.1 -344.5,-201 -360.9,-291.2 -16.4,-90.2 69.8,-114.8 119,-131.3 49.2,-16.3 4.1,-49.2 57.4,-135.3 53.3,-86.1 213.2,-205 274.8,-246 61.5,-41.1 971.9,-1324 1164.7,-1342.8 192.7,-18.8 914.5,559.5 914.5,559.5 l -274.8,459.3"
         style="fill:#d66863;fill-opacity:1;fill-rule:nonzero;stroke:none"
         id="path30" /><path
         d="m 17702.6,17357.9 c 0,0 -168.1,479.9 179.1,458 347.2,-21.9 647.9,5.5 795.6,-207.8 147.6,-213.2 19.1,-929.6 -183.2,-946 -202.3,-16.4 -791.5,695.8 -791.5,695.8"
         style="fill:#252549;fill-opacity:1;fill-rule:nonzero;stroke:none"
         id="path32" /><path
         d="m 17702.6,17357.9 c 0,0 -82,-734 45.1,-889.9 127.1,-155.8 278.9,-135.3 278.9,-135.3 0,0 36.3,-188.3 -3,-201 -39.2,-12.6 -558.9,-352.7 -259.5,-455.2 299.4,-102.5 791.5,77.9 791.5,77.9 l -33.9,377.3 c 0,0 -38.5,268 -38.5,350 0,82 10.9,180.4 10.9,180.4 0,0 -142.2,16.4 -54.7,125.8 87.5,109.4 106.7,172.3 95.7,237.9 -10.9,65.6 -144.9,-114.9 -150.4,-43.8 -5.4,71.1 -55.5,298 -94.7,325.4 -39.2,27.3 -534.1,10.9 -587.4,50.5"
         style="fill:#d66863;fill-opacity:1;fill-rule:nonzero;stroke:none"
         id="path34" /><path
         d="m 20014.5,14545.8 c -76.8,-96.5 -607,-278.9 -667.4,-240.2 -60.3,38.1 -234.9,475.7 -234.9,475.7 0,0 5.3,-1476.3 70.9,-1859.6 65.6,-382.5 32.8,-606.9 -27.6,-661.4 -59.7,-54.4 -1809.7,-21.6 -1990.1,54.5 -131.3,55.8 -135.2,63 -112.9,143 8.5,29.6 20.3,69.6 30.8,126 38.1,206.7 257.3,2263.1 257.3,2263.1 l -0.7,-0.6 c -20.3,-19 -357.6,-332.7 -437,-300.5 -25.6,10.5 -71.5,63 -121.4,132.5 -107.6,150.3 -234.2,380.6 -223.1,436.4 16.4,82 732.9,787.4 792.7,803.8 60.3,16.4 672.5,213.2 672.5,213.2 0,0 11.2,-43.9 -54.4,-109.5 -65.6,-65.7 -202.1,-234.9 60.3,-240.2 262.5,-5.9 519.1,234.9 492.2,349.7 0,0 771,-224.4 918.6,-382.5 147.6,-158.8 650.3,-1106.3 574.2,-1203.4"
         style="fill:#ffa942;fill-opacity:1;fill-rule:nonzero;stroke:none"
         id="path36" /><path
         d="m 19155.5,12260.3 c -59.7,-54.4 -1809.7,-21.6 -1990.1,54.5 -131.3,55.8 -135.2,63 -112.9,143 282.2,-94.5 897,-78.7 1370.7,-82.6 595.8,-5.3 415.4,98.4 360.9,273.6 -55.1,174.5 218.5,355 196.9,568.2 -22.3,213.3 -109.6,432.4 -262.5,436.4 -153.5,3.9 -360.9,55.8 -503.3,12.4 -142.3,-43.9 -333.3,42.7 -333.3,42.7 0,0 125.3,82.7 218.5,137.8 93.2,54.5 49.2,263.8 49.2,263.8 0,0 437,-49.9 672.6,179.1 228.3,221.8 137.1,857.6 131.9,894.4 l 158.1,-402.3 c 0,0 5.3,-1476.3 70.9,-1859.6 65.6,-382.5 32.8,-606.9 -27.6,-661.4"
         style="fill:#ff8243;fill-opacity:1;fill-rule:nonzero;stroke:none"
         id="path38" /><path
         d="m 19925.4,14474.9 c 0,0 213.2,-426.5 135.3,-615.2 -77.9,-188.6 -1304.1,-57.4 -1476.4,-57.4 -172.2,0 -262.4,8.2 -344.5,-8.2 -82,-16.4 -295.2,-158.5 -455.2,-36.2 -159.9,122.3 -143.5,159.3 45.1,167.5 188.7,8.2 315.8,53.3 262.5,102.5 -53.3,49.2 -147.6,127.1 57.4,82 205.1,-45.1 586.5,-65.6 807.9,-49.2 221.5,16.4 504.3,65.6 516.7,82 12.4,16.4 0,172.3 0,172.3 0,0 402,131.2 451.2,159.9"
         style="fill:#d66863;fill-opacity:1;fill-rule:nonzero;stroke:none"
         id="path40" /><path
         d="m 17411.4,15360.7 -70.8,-513.8 -0.7,-0.6 c -20.3,-19 -357.6,-332.7 -437,-300.5 -25.6,10.5 -71.5,63 -121.4,132.5 313,7.2 629.9,682.4 629.9,682.4"
         style="fill:#ff8243;fill-opacity:1;fill-rule:nonzero;stroke:none"
         id="path42" /><path
         d="m 18026.6,16332.7 c 0,0 46.5,-6.8 136.7,61.5 90.2,68.4 144.9,153.1 144.9,153.1 0,0 -151.3,-467.5 -194.6,-426.5 -43.3,41 -87,211.9 -87,211.9"
         style="fill:#b23d3d;fill-opacity:1;fill-rule:nonzero;stroke:none"
         id="path44" /><path
         d="m 14851.9,15736.8 -31.9,7.9 c 0.2,0.7 17.7,72.2 0.7,115.9 -15.7,40.3 -67.2,52.7 -67.7,52.8 l 7.3,32 c 2.8,-0.6 68.9,-16.2 90.9,-72.9 20.8,-53.5 1.5,-132.4 0.7,-135.7"
         style="fill:#1f1c47;fill-opacity:1;fill-rule:nonzero;stroke:none"
         id="path46" /><path
         d="m 14643.3,15254.1 c -107.7,0 -219.1,52.1 -265.4,76.5 113.4,73.7 211.3,138.3 213.4,139.9 11,7.9 20.6,18.1 29.3,29.4 l 226.3,-164.6 c -26.6,-25.4 -97,-81.2 -203.6,-81.2 z m 623.4,-183.6 -628.2,456.9 c 11.7,22.9 19.1,49.2 20.8,76.2 2.7,42.5 -8.5,79 -30.9,99.9 -37.9,35.6 -41.2,72.4 -41.3,73.9 l -32.7,-2.1 c 0.1,-2.1 3.7,-50.8 51.6,-95.7 15,-14 22.7,-41.6 20.6,-73.9 -2.9,-44.9 -23.8,-86.5 -54.5,-108.6 -71.3,-51.4 -521.8,-339.7 -547.7,-350.5 l 5,-15.5 v -16.4 c 12.4,0 171.4,101.1 317.1,195.5 33.9,-19.3 165.5,-88.9 296.8,-88.9 124.8,0 203.9,67.5 230.6,94.4 l 373.4,-271.7 19.4,26.5"
         style="fill:#1f1c47;fill-opacity:1;fill-rule:nonzero;stroke:none"
         id="path48" /><path
         d="m 16438.3,12123.8 c 5.3,-87.9 -393.7,-175.2 -486.9,-175.2 -77.4,0 -52.4,7.9 -85.3,201.5 -7.2,39.4 -16.4,86.6 -29.5,143 -76.8,333.4 -316.9,1530.9 -366.1,1635.2 -15.8,32.8 -7.9,-76.1 10.5,-250 0,0 0,0 0,-0.6 l 0.6,-0.7 c 40.1,-370.7 131.3,-1035.4 154.9,-1247.4 35.4,-311.7 129.3,-535.4 -177.2,-579.4 -306.4,-43.9 -661.4,11.2 -1049.9,-21.6 -388.4,-32.8 -967.8,21.6 -1049.8,54.4 -82.1,32.8 142.4,2017.8 120.1,2105 -17.8,73.5 -540.7,-1303.1 -749.4,-1790 -42,-97.8 -71.5,-160.1 -81.4,-167.3 -60.3,-44 -229.6,-11.2 -448.8,120 -32.1,19.1 -32.8,91.9 -10.5,202.1 128.6,637.2 1029.6,2527.6 1071.5,2599.1 35.5,60.4 430.5,147 645.1,189.7 82,16.4 137.1,26.2 137.1,26.2 49.2,9.2 262.5,-238.8 530.2,-326.8 267.7,-87.2 563,262.5 639.8,262.5 15.7,0 47.9,-8.5 90.5,-23.6 170,-58.4 503.9,-210 565.6,-271.7 65,-64.3 422.6,-1877.3 535.5,-2487.5 20.3,-111.6 32.8,-183.1 33.4,-196.9"
         style="fill:#359d9e;fill-opacity:1;fill-rule:nonzero;stroke:none"
         id="path50" /><path
         d="m 14505.7,15809.1 c 0,0 95.1,-26.3 155.3,32 60.1,58.2 92,205.9 92,205.9 0,0 36.5,-122 -34.6,-205.9 -71.1,-83.9 -198.4,-81.9 -198.4,-81.9 l -14.3,49.9"
         style="fill:#b23d3d;fill-opacity:1;fill-rule:nonzero;stroke:none"
         id="path52" /><path
         d="m 15459.3,11850.2 c -306.4,-43.9 -661.4,11.2 -1049.9,-21.6 -388.4,-32.8 -967.8,21.6 -1049.8,54.4 -82.1,32.8 142.4,2017.8 120.1,2105 0,0 147.6,465.3 153.5,317.6 5.2,-147.6 -223.8,-1757.2 98.4,-2122 322.2,-364.9 448.2,-16.4 781.5,-158.2 334,-142.4 1066.3,-49.2 1072.2,103.7 5.3,150.3 -101,1506.6 -104.3,1548.6 l 0.6,-0.7 c 40.1,-370.7 131.3,-1035.4 154.9,-1247.4 35.4,-311.7 129.3,-535.4 -177.2,-579.4"
         style="fill:#256060;fill-opacity:1;fill-rule:nonzero;stroke:none"
         id="path54" /><path
         d="m 15303.8,15079.9 c -190.9,-177.8 -437.7,-374.7 -599.1,-383.2 -253.9,-14.4 -683,343.8 -798.5,444.9 82,16.4 137.1,26.2 137.1,26.2 49.2,9.2 262.5,-238.8 530.2,-326.8 267.7,-87.2 563,262.5 639.8,262.5 15.7,0 47.9,-8.5 90.5,-23.6"
         style="fill:#63c6aa;fill-opacity:1;fill-rule:nonzero;stroke:none"
         id="path56" /><path
         d="m 12555.8,12233.4 c 71.5,-10.5 128.6,-22.3 174.5,-35.4 -42,-97.8 -71.5,-160.1 -81.4,-167.3 -60.3,-44 -229.6,-11.2 -448.8,120 -32.1,19.1 -32.8,91.9 -10.5,202.1 80.7,-49.2 197.5,-94.4 366.2,-119.4"
         style="fill:#63c6aa;fill-opacity:1;fill-rule:nonzero;stroke:none"
         id="path58" /><path
         d="m 16438.3,12123.8 c 5.3,-87.9 -393.7,-175.2 -486.9,-175.2 -77.4,0 -52.4,7.9 -85.3,201.5 84,4.6 206.7,19.7 355.7,83.3 74.1,31.5 135.2,61 183.1,87.3 20.3,-111.6 32.8,-183.1 33.4,-196.9"
         style="fill:#63c6aa;fill-opacity:1;fill-rule:nonzero;stroke:none"
         id="path60" /><path
         d="m 13691.2,5172.8 h -2741.7 v 4839.3 h 2741.7 V 5172.8"
         style="fill:#b26249;fill-opacity:1;fill-rule:nonzero;stroke:none"
         id="path62" /><path
         d="M 18548.1,5172.8 H 13382 v 4839.3 h 5166.1 V 5172.8"
         style="fill:#d78560;fill-opacity:1;fill-rule:nonzero;stroke:none"
         id="path64" /><path
         d="M 18056.8,6031.8 H 16257 v 1311.7 h 1799.8 V 6031.8"
         style="fill:#eae1da;fill-opacity:1;fill-rule:nonzero;stroke:none"
         id="path66" /><path
         d="m 17969.3,6119.9 h -1624.8 v 1135.5 h 1624.8 V 6119.9"
         style="fill:#ffffff;fill-opacity:1;fill-rule:nonzero;stroke:none"
         id="path68" /><path
         d="m 17767.2,6936 h -1225.6 v 77.8 h 1225.6 V 6936"
         style="fill:#eae1da;fill-opacity:1;fill-rule:nonzero;stroke:none"
         id="path70" /><path
         d="m 17705.9,6687.6 h -1164.3 v 77.8 h 1164.3 v -77.8"
         style="fill:#eae1da;fill-opacity:1;fill-rule:nonzero;stroke:none"
         id="path72" /><path
         d="m 17502.7,6439.3 h -961.1 v 77.8 h 961.1 v -77.8"
         style="fill:#eae1da;fill-opacity:1;fill-rule:nonzero;stroke:none"
         id="path74" /><path
         d="M 13431.8,10012.1 14438.5,8510 h 5212.9 l -1103.3,1502.1 h -5116.3"
         style="fill:#f3a277;fill-opacity:1;fill-rule:nonzero;stroke:none"
         id="path76" /><path
         d="M 13431.8,10012.1 12218.2,8510 H 9860 l 1117,1502.1 h 2454.8"
         style="fill:#d78560;fill-opacity:1;fill-rule:nonzero;stroke:none"
         id="path78" /><path
         d="m 10949.5,8099.1 h 1611.6 l 870.7,1161.9 v 751.1 L 12218.2,8510 h -1268.7 v -410.9"
         style="fill:#874331;fill-opacity:1;fill-rule:nonzero;stroke:none"
         id="path80" /><path
         d="m 13431.8,9261 840.5,-1161.9 h 4262 V 8510 h -4095.8 l -1006.7,1502.1 V 9261"
         style="fill:#b26249;fill-opacity:1;fill-rule:nonzero;stroke:none"
         id="path82" /><path
         d="m 9860,8510 v -130.3 h 2363.4 l 1208.4,1443.4 v 189 L 12190.6,8510 H 9860"
         style="fill:#f3a277;fill-opacity:1;fill-rule:nonzero;stroke:none"
         id="path84" /><path
         d="m 13431.8,9823.1 986.3,-1443.4 h 5233.3 V 8510 h -5212.9 l -1006.7,1502.1 v -189"
         style="fill:#ffbb8d;fill-opacity:1;fill-rule:nonzero;stroke:none"
         id="path86" /><path
         d="m 13397.3,5613 h -2447.8 v -440.2 h 2447.8 V 5613"
         style="fill:#874331;fill-opacity:1;fill-rule:nonzero;stroke:none"
         id="path88" /><path
         d="m 13382,5613 h 5161.3 V 5172.8 H 13382 V 5613"
         style="fill:#b26249;fill-opacity:1;fill-rule:nonzero;stroke:none"
         id="path90" /><path
         d="m 6297.53,6071.8 c 0,0 15.17,-172.2 -51.88,-336.3 -67.05,-164 -112.16,-381.4 80.59,-418.3 192.75,-36.9 1185.21,-57.4 1316.45,0 131.23,57.4 -139.44,180.5 -299.38,237.9 -159.95,57.4 -397.81,127.1 -467.52,209.1 -69.73,82.1 -65.62,307.6 -65.62,307.6 h -512.64"
         style="fill:#605c68;fill-opacity:1;fill-rule:nonzero;stroke:none"
         id="path92" /><path
         d="m 8385.07,6071.8 c 0,0 15.17,-172.2 -51.88,-336.3 -67.05,-164 -112.16,-381.4 80.59,-418.3 192.75,-36.9 1185.21,-57.4 1316.44,0 131.24,57.4 -139.43,180.5 -299.38,237.9 -159.94,57.4 -397.8,127.1 -467.51,209.1 -69.72,82.1 -65.62,307.6 -65.62,307.6 h -512.64"
         style="fill:#4d4756;fill-opacity:1;fill-rule:nonzero;stroke:none"
         id="path94" /><path
         d="m 10385.4,14972.2 c 0,0 103.4,153.4 149.9,128.8 46.5,-24.6 669.8,-486.7 880.4,-579.6 210.5,-93 347.2,-120.3 352.6,-153.1 5.5,-32.8 -23.2,-155.9 -23.2,-155.9 0,0 -518.1,52 -824.3,257 -306.2,205.1 -535.4,502.8 -535.4,502.8"
         style="fill:#256060;fill-opacity:1;fill-rule:nonzero;stroke:none"
         id="path96" /><path
         d="m 11690.3,13851.5 c -13.2,-91.2 -45.3,-405.5 -83.4,-761.1 0.7,-0.7 0.7,-2 0,-2.6 -43.9,-403.6 -95.1,-859.6 -135.1,-1101.8 -15.8,-91.2 -28.9,-152.2 -40.1,-168.6 -65.6,-98.4 -889.7,20.4 -1012.4,61.7 -87.3,28.9 35.4,892.4 114.1,1433.7 0,0.7 0,2 0.7,2.6 0,0.7 0,2 0.7,2.7 v 1.9 c 0.6,2 0.6,2.7 0.6,2.7 31.5,217.2 55.8,381.2 55.8,414 0,9.9 -2,17.7 -6.6,22.3 -45.2,48.6 -307.7,-168.6 -498,-284.8 -208.67,-127.3 -770.35,-570.2 -929.8,-672.5 -158.79,-102.4 -206.04,-61.7 -299.87,192.9 -93.83,253.9 -131.24,521 -131.24,521 0,0 -28.87,233.6 0,233.6 11.16,0 135.17,73.5 284.78,165.3 242.13,147.7 551.19,341.9 551.19,341.9 0,0 410.76,300.5 533.44,386.5 95.8,67.6 179.2,196.8 233,273.6 15.1,21.7 28.2,39.4 38,50.5 44.6,49.3 332,-237.5 671.9,-438.9 340.6,-200.8 706.1,-307.8 726.4,-324.8 20.4,-17.8 -41.3,-118.2 -74.1,-351.8"
         style="fill:#82cc52;fill-opacity:1;fill-rule:nonzero;stroke:none"
         id="path98" /><path
         d="m 9088.55,5963.7 c -1.3,-25.6 -3.28,-41.3 -5.24,-46.6 -32.81,-87.2 -98.43,-98.4 -267.72,-114.8 -169.3,-16.4 -497.38,16.4 -590.56,61 -93.17,44.6 -142.38,2717.2 -169.29,3110.9 -27.56,393.7 -169.94,967.9 -169.94,967.9 0,0 -59.72,-601.7 -92.52,-826.1 -30.84,-212 -662.08,-2828.8 -788.07,-3183.1 -6.56,-19.7 -11.81,-32.2 -15.75,-37.4 -71.52,-98.5 -672.57,60.3 -738.19,82 -65.62,21.7 464.57,3045.9 475.73,3231.6 10.5,185.7 -55.12,1498.1 -65.62,2329.4 -11.16,831.4 98.42,1005.9 98.42,1005.9 l 709.33,-8.5 1149.61,-13.1 c 0,0 65.62,-585.3 147.64,-923.9 82.02,-339.2 344.48,-2318.9 344.48,-2460.6 0,-133.9 4.6,-2783.5 -22.31,-3174.6"
         style="fill:#342d66;fill-opacity:1;fill-rule:nonzero;stroke:none"
         id="path100" /><path
         d="m 7469.13,12535.9 c 87.93,-71.5 143.04,-122.7 143.04,-122.7 0,0 -300.52,-78.7 -507.87,-398.9 -207.35,-320.2 -43.97,-2012.5 0,-2406.2 43.3,-393.7 98.42,-710.6 -109.58,-951.5 -208.01,-240.1 -470.48,-1880.5 -437.67,-2329.4 17.72,-236.2 240.82,-344.5 448.16,-394.3 -6.56,-19.7 -11.81,-32.2 -15.75,-37.4 -71.52,-98.5 -672.57,60.3 -738.19,82 -65.62,21.7 464.57,3045.9 475.73,3231.6 10.5,185.7 -55.12,1498.1 -65.62,2329.4 -11.16,831.4 98.42,1005.9 98.42,1005.9 l 709.33,-8.5"
         style="fill:#1f1c47;fill-opacity:1;fill-rule:nonzero;stroke:none"
         id="path102" /><path
         d="m 9088.55,5963.7 c -1.3,-25.6 -3.28,-41.3 -5.24,-46.6 -32.81,-87.2 -98.43,-98.4 -267.72,-114.8 -169.3,-16.4 -497.38,16.4 -590.56,61 -93.17,44.6 -142.38,2717.2 -169.29,3110.9 -27.56,393.7 -169.94,967.9 -169.94,967.9 l 93.17,1448.8 c 0,0 98.43,-1468.5 237.53,-1804.5 139.77,-335.9 221.79,-492.1 139.77,-959.3 -82.02,-467.8 65.61,-2559.1 246.06,-2616.8 81.37,-26.2 286.09,-40 486.22,-46.6"
         style="fill:#1f1c47;fill-opacity:1;fill-rule:nonzero;stroke:none"
         id="path104" /><path
         d="m 7228.45,16492.6 c 0,0 -225.53,123.1 -315.75,475.8 -90.23,352.6 -61.52,787.4 418.3,812 479.83,24.6 615.16,1.1 725.89,24.6 110.73,23.4 235.13,-281.6 -1.37,-415.6 -236.49,-134 -360.89,-269.3 -431.98,-519.5 -71.08,-250.1 -395.09,-377.3 -395.09,-377.3"
         style="fill:#252549;fill-opacity:1;fill-rule:nonzero;stroke:none"
         id="path106" /><path
         d="m 7213.22,16016.9 c 0,0 33.03,46.5 30.3,199.6 -2.74,153.1 -15.07,276.1 -15.07,276.1 0,0 83.42,54.7 99.82,147.7 16.4,92.9 -71.52,79.3 -115.05,128.5 -43.53,49.2 -81.8,308.9 24.83,248.8 106.62,-60.2 101.15,-131.3 128.5,-79.3 27.34,51.9 10.93,382.7 62.88,404.6 51.95,21.9 284.34,-10.9 426.51,0 142.17,11 199.58,46.5 199.58,46.5 0,0 87.49,-716.3 0,-913.2 -87.48,-196.8 -232.39,-169.5 -232.39,-169.5 0,0 -58.83,-220 90.88,-290.4 149.72,-70.5 316.49,-376.7 250.88,-527.1 -65.62,-150.3 -557.75,-265.2 -697.18,-139.4 -139.44,125.8 -254.49,667.1 -254.49,667.1"
         style="fill:#ff9b80;fill-opacity:1;fill-rule:nonzero;stroke:none"
         id="path108" /><path
         d="m 9561.66,14256.4 -521.66,-334 c 0,0 -131.24,147.6 -219.16,271 -1.97,3.3 -4.59,6.6 -6.56,9.9 -85.96,124 -181.76,326.1 -181.76,326.1 l 535.43,196.8 c 0,0 17.72,-43.9 43.96,-102.3 46.6,-105 118.77,-257.9 156.18,-285.5 57.08,-43.9 193.57,-82 193.57,-82"
         style="fill:#ff9b80;fill-opacity:1;fill-rule:nonzero;stroke:none"
         id="path110" /><path
         d="m 9211.91,14623.9 c -81.36,-124.7 -206.03,-288.8 -354.98,-395.1 -14.44,-10.5 -28.87,-19 -42.65,-25.5 -85.96,124 -181.76,326.1 -181.76,326.1 l 535.43,196.8 c 0,0 17.72,-43.9 43.96,-102.3"
         style="fill:#d66863;fill-opacity:1;fill-rule:nonzero;stroke:none"
         id="path112" /><path
         d="m 9230.95,14699.3 c -4.6,-5.9 -32.81,-21.6 -74.15,-42 -140.42,-68.9 -434.39,-193.5 -472.44,-193.5 -49.22,0 -87.28,27.5 -87.28,27.5 0,0 3.28,-217.2 9.19,-506.6 4.59,-223.7 11.16,-490.8 19.03,-733.6 9.84,-340.5 22.31,-634.5 37.4,-700.7 1.97,-9.2 3.94,-17.8 5.91,-25.6 32.81,-149 37.4,-145 -66.28,-160.8 -109.58,-16.4 -1494.76,-59.7 -1748.04,0 -253.28,60.4 -204.07,5.9 -192.91,252 10.5,246 59.71,639.7 43.31,809 -16.4,169.3 -54.47,743.5 -49.21,858.3 4.59,91.9 -84,980.3 -120.08,1333.3 -8.53,88.6 -14.44,143.7 -14.44,143.7 0,0 25.59,59.8 222.44,147 196.85,88 469.82,109.6 469.82,109.6 0,0 180.45,-333.3 541.34,-404.8 360.89,-70.9 322.84,224.4 268.37,273.6 -51.83,45.9 -103.01,121.4 -108.92,130.6 27.56,-6.6 722.45,-175.9 797.9,-245.5 76.12,-70.8 541.34,-1044.6 519.04,-1071.5"
         style="fill:#ea3f50;fill-opacity:1;fill-rule:nonzero;stroke:none"
         id="path114" /><path
         d="m 8602.33,12364 c -109.58,-16.4 -1494.76,-59.7 -1748.04,0 -253.28,60.4 -204.07,5.9 -192.91,252 10.5,246 59.71,639.7 43.31,809 -16.4,169.3 -54.47,743.5 -49.21,858.3 4.59,91.9 -84,980.3 -120.08,1333.3 179.13,102.4 366.8,87.3 553.8,-105 0,0 222.45,-435 277.56,-905.5 54.47,-470.4 240.16,-612.2 666.67,-672.5 213.92,-30.2 419.95,6.5 572.84,51.1 4.59,-223.7 11.16,-490.8 19.03,-733.6 -194.88,18.4 -487.54,49.9 -832.02,80.8 -547.25,49.2 -995.41,262.4 -979.01,93.1 16.4,-169.3 87.27,-213.2 93.17,-519.7 5.26,-305.7 108.93,-475.7 617.46,-492.1 331.37,-10.5 827.43,103 1143.71,111.6 32.81,-149 37.4,-145 -66.28,-160.8"
         style="fill:#af285c;fill-opacity:1;fill-rule:nonzero;stroke:none"
         id="path116" /><path
         d="m 9156.8,14657.3 c -140.42,-68.9 -434.39,-193.5 -472.44,-193.5 -49.22,0 -87.28,27.5 -87.28,27.5 0,0 -60.36,940.3 -32.81,792.7 26.91,-147.7 213.26,-645.1 426.52,-656.2 47.24,-2.6 104.99,9.2 166.01,29.5"
         style="fill:#af285c;fill-opacity:1;fill-rule:nonzero;stroke:none"
         id="path118" /><path
         d="m 7823.13,16306.7 c 0,0 -142.17,35.6 -254.26,98.4 -112.1,62.9 -144.91,95.7 -144.91,95.7 0,0 262.47,-453.8 295.28,-448.4 32.81,5.5 103.89,254.3 103.89,254.3"
         style="fill:#d66863;fill-opacity:1;fill-rule:nonzero;stroke:none"
         id="path120" /><path
         d="m 10086.6,13474.2 c -208.67,-127.3 -770.35,-570.2 -929.8,-672.5 -158.79,-102.4 -206.04,-61.7 -299.87,192.9 -93.83,253.9 -131.24,521 -131.24,521 0,0 -28.87,233.6 0,233.6 11.16,0 135.17,73.5 284.78,165.3 24.94,-61.6 43.31,-131.9 1.97,-136.4 -74.15,-8.6 209.98,-123.4 199.47,-189 -11.15,-65.6 -276.24,-574.2 0,-467.2 276.25,106.3 1506.59,967.2 1416.69,729.6 -9.9,-26.2 -24.9,-57.7 -44,-92.5 -45.2,48.6 -307.7,-168.6 -498,-284.8"
         style="fill:#53a83f;fill-opacity:1;fill-rule:nonzero;stroke:none"
         id="path122" /><path
         d="m 11471.8,11986 c -15.8,-91.2 -28.9,-152.2 -40.1,-168.6 -65.6,-98.4 -889.7,20.4 -1012.4,61.7 -87.3,28.9 35.4,892.4 114.1,1433.7 0,0.7 0,2 0.7,2.6 -11.2,-101.7 -135.2,-1238.8 233.6,-1309 211.9,-40.7 493.4,-34.1 704.1,-20.4"
         style="fill:#53a83f;fill-opacity:1;fill-rule:nonzero;stroke:none"
         id="path124" /><path
         d="m 6613.32,14220.6 c 0,0 41.01,-512.6 225.56,-582.3 184.54,-69.7 1615.82,-118.9 1734.75,-172.3 118.93,-53.3 221.45,-118.9 369.09,-45.1 147.64,73.8 164.05,131.3 123.04,176.4 -41.01,45.1 -209.16,90.2 -246.07,151.7 -36.91,61.5 16.4,57.4 57.41,77.9 41.02,20.5 94.33,45.1 45.12,73.9 -49.22,28.7 -209.16,-28.8 -287.08,-45.2 -77.92,-16.4 -278.87,-77.9 -340.38,-69.7 -61.52,8.2 -885.84,188.7 -951.45,205.1 -65.62,16.4 -143.54,41 -151.74,53.3 -8.21,12.3 -32.81,270.7 -32.81,270.7 l -545.44,-94.4"
         style="fill:#ff9b80;fill-opacity:1;fill-rule:nonzero;stroke:none"
         id="path126" /><path
         d="m 7213.44,15202.2 c 0,0 138.07,-727.3 88.85,-829.8 -49.21,-102.5 -746.39,-196.9 -775.1,-147.7 -28.7,49.2 -135.33,984.3 -131.23,1189.4 4.1,205 61.52,455.2 360.9,356.7 299.37,-98.4 371.82,-304.8 456.58,-568.6"
         style="fill:#fc5454;fill-opacity:1;fill-rule:nonzero;stroke:none"
         id="path128" /><path
         d="m 11690.3,13851.5 c -13.2,-91.2 -45.3,-405.5 -83.4,-761.1 2.7,268.4 4.6,655.5 -2.6,824.1 -11.1,271 -415.3,243.5 -836.6,549.3 -269,194.8 -388.5,359.5 -439.6,452.7 15.1,21.7 28.2,39.4 38,50.5 44.6,49.3 332,-237.5 671.9,-438.9 340.6,-200.8 706.1,-307.8 726.4,-324.8 20.4,-17.8 -41.3,-118.2 -74.1,-351.8"
         style="fill:#53a83f;fill-opacity:1;fill-rule:nonzero;stroke:none"
         id="path130" /><path
         d="m 10915.3,14972.6 c 0,0 -225.1,103.8 -282,61.4 -57,-42.4 -122.3,-220.5 58,-268.1 180.3,-47.7 278.7,-6.7 295.1,48 16.4,54.7 36.8,116.1 -71.1,158.7"
         style="fill:#ff9b80;fill-opacity:1;fill-rule:nonzero;stroke:none"
         id="path132" /><path
         d="m 19768.3,12079.9 c 0,0 -240.7,45.1 -281.7,233.7 -41,188.7 32.8,328.1 32.8,328.1 0,0 -65.6,332.2 397.8,541.4 463.4,209.1 668.5,-49.2 668.5,-49.2 0,0 180.4,237.8 479.8,82 299.4,-155.9 213.2,-303.5 426.5,-393.7 213.2,-90.3 4.1,-488.1 155.8,-615.2 151.8,-127.1 65.6,-488 -118.9,-504.4 -184.6,-16.4 -352.7,-32.8 -377.3,106.6 -24.6,139.4 73.8,258.4 -49.2,332.2 -123,73.8 -205.1,233.8 -205.1,233.8 0,0 -77.9,-209.2 -219.4,-205.1 -141.5,4.1 -909.6,-90.2 -909.6,-90.2"
         style="fill:#252549;fill-opacity:1;fill-rule:nonzero;stroke:none"
         id="path134" /><path
         d="m 19651.4,12412.1 c 0,0 165.3,-559.8 327.3,-697.2 162,-137.4 354.7,14.7 354.7,14.7 0,0 56.1,-72.1 6.5,-158.3 -49.5,-86.1 -176.7,-254.3 -92.6,-386.5 84.1,-132.2 65.6,-281.9 332.2,-179.4 266.6,102.5 307.6,328.1 348.6,399.9 41,71.7 -22.6,395.7 -22.6,395.7 0,0 -114.8,51.3 -162,182.5 -47.1,131.2 -65.6,186.6 -65.6,186.6 0,0 -77.9,41 -61.5,98.4 16.4,57.4 43.1,168.2 30.8,235.8 -12.3,67.7 -139.5,123.1 -151.8,30.8 -12.3,-92.3 -112.8,-112.8 -153.8,-116.9 -41,-4.1 -278.8,-30.7 -387.5,26.7 -108.7,57.4 -322.4,88.1 -302.7,-32.8"
         style="fill:#ffbf9f;fill-opacity:1;fill-rule:nonzero;stroke:none"
         id="path136" /><path
         d="m 17690.3,11203 c 0,0 -69.7,80.3 -73.8,148.4 -4.1,68.2 57.4,174 159.9,180.6 102.5,6.5 324,-23 504.4,0 180.5,22.9 426.6,-5.8 492.2,-26.3 65.6,-20.5 237.8,20.3 295.3,34.8 57.4,14.4 282.9,-23.9 196.8,-168.8 -86.1,-144.8 -1308.2,-225.3 -1574.8,-168.7"
         style="fill:#ffa942;fill-opacity:1;fill-rule:nonzero;stroke:none"
         id="path138" /><path
         d="m 17559.1,11054.6 c 0,0 -94.4,209.2 24.6,217.4 118.9,8.2 512.6,-8.2 635.6,28.7 123.1,36.9 270.7,32.8 389.6,0 119,-32.8 365,41 438.9,49.2 73.8,8.2 287,-16.4 319.8,-69.7 32.8,-53.3 41,-106.7 0,-119 -41,-12.3 -233.7,-61.5 -270.6,-65.6 -36.9,-4.1 -1537.9,-41 -1537.9,-41"
         style="fill:#ea3f50;fill-opacity:1;fill-rule:nonzero;stroke:none"
         id="path140" /><path
         d="m 17490,11050.5 c 0,0 -41.7,-246.7 159.3,-252.5 200.9,-5.9 1320.5,104.9 1468.2,55.7 147.6,-49.3 200.9,45.1 209.1,106.6 8.2,61.5 -36.9,200.9 -77.9,200.9 -41,0 -225.6,-53.3 -336.3,-49.2 -110.7,4.1 -528.4,20.5 -668.2,8.2 -139.7,-12.3 -311.9,-32.8 -410.4,-32.8 -98.4,0 -343,59.7 -343.8,-36.9"
         style="fill:#342d66;fill-opacity:1;fill-rule:nonzero;stroke:none"
         id="path142" /><path
         d="m 17571.4,10853.7 c 0,0 -143.6,-53.4 -49.2,-180.5 94.3,-127.1 356.7,-114.8 496.2,-77.9 139.4,36.9 643.9,58.6 762.8,56.3 118.9,-2.4 508.5,-23.5 570,38 61.5,61.5 45.1,127.1 -16.4,164.1 -61.5,36.9 -557.7,86.1 -828.4,86.1 -270.7,0 -492.1,-61.5 -606.9,-77.9 -114.9,-16.4 -281.7,20.6 -328.1,-8.2"
         style="fill:#359d9e;fill-opacity:1;fill-rule:nonzero;stroke:none"
         id="path144" /><path
         d="m 23116,6317.9 c 0,0 176.4,41 291.2,110.7 114.8,69.7 262.5,192.8 373.2,106.6 110.7,-86.1 180.4,-414.2 155.8,-496.2 -24.6,-82 14,-159.9 5,-303.5 -9.1,-143.5 -33.7,-311.7 -169,-356.8 -135.4,-45.1 -315.8,-77.9 -311.7,45.1 4.1,123.1 114.8,344.5 90.2,459.4 -24.6,114.8 -172.2,139.4 -250.1,127.1 -78,-12.3 -184.6,307.6 -184.6,307.6"
         style="fill:#48486d;fill-opacity:1;fill-rule:nonzero;stroke:none"
         id="path146" /><path
         d="m 19232.3,5900.9 c 0,0 27.2,-218.7 -132.7,-287 -159.8,-68.4 -725.8,-218.8 -731.3,-306.3 -5.4,-87.4 112.1,-174.9 360.9,-155.8 248.8,19.1 432,84.8 467.6,54.7 35.5,-30.1 -16.4,-57.3 144.9,-57.3 161.3,-0.1 317.1,-8.3 344.5,90.1 27.3,98.4 -35.6,292.5 -57.5,382.8 -21.8,90.2 -13.6,300.7 -13.6,300.7 l -382.8,-21.9"
         style="fill:#48486d;fill-opacity:1;fill-rule:nonzero;stroke:none"
         id="path148" /><path
         d="m 23313,5858.7 c -7.8,-12.4 -47.2,-34.8 -110.2,-63 -458,-209.3 -2188.3,-772.9 -2498.1,-585.3 -353,213.3 -324.1,660.8 -143.7,1284.2 169.3,584.6 320.3,977 338.6,1024.2 1.3,3.3 2,4.6 2,4.6 0,0 -750.7,57.8 -1124,168 -373.4,110.9 -483.6,160.1 -483.6,160.1 0,0 426.5,-1972.4 381.2,-2005.2 -39.4,-28.9 -398.9,-104.4 -532.1,-24.3 -19.1,11.8 -33.5,26.2 -42,44.6 -65.7,147.6 -685.1,2009.8 -660.1,2358.3 24.2,348.4 118.7,430.4 442.9,471.8 323.5,40.6 951.4,85.9 1307.7,57 357,-28.2 345.2,-73.4 357,-28.2 7.2,25.6 3.3,97.8 -0.7,154.9 -3.3,41.3 -7.2,74.8 -7.2,74.8 l 1631.9,475.1 c 0,0 0,-184.4 123.4,-536.8 122.7,-353 311.6,-799.9 -61.7,-1370.1 -373.4,-569.5 -906.2,-1418.6 -816.3,-1418.6 90.6,0 1665.4,397.6 1734.9,319.5 69.6,-78 225.7,-463.2 160.1,-565.6"
         style="fill:#342d66;fill-opacity:1;fill-rule:nonzero;stroke:none"
         id="path150" /><path
         d="m 21151.6,8241.3 -250,-717.9 c 0,0 -750.7,57.8 -1124,168 -373.4,110.9 -483.6,160.1 -483.6,160.1 0,0 426.5,-1972.4 381.2,-2005.2 -39.4,-28.9 -398.9,-104.4 -532.1,-24.3 46.5,12.4 90.5,23.6 129.9,32.1 369.4,82.7 -89.9,1115.5 -73.5,1378 16.4,262.5 -114.8,517.1 -98.4,650.3 16.4,133.2 541.3,-34.8 1099.1,-116.8 557.7,-82.1 951.4,475.7 951.4,475.7"
         style="fill:#1f1c47;fill-opacity:1;fill-rule:nonzero;stroke:none"
         id="path152" /><path
         d="m 23313,5858.7 c -7.8,-12.4 -47.2,-34.8 -110.2,-63 -20.4,131.3 -53.8,291.4 -107,370.8 -98.4,146.9 -1559,-312.4 -1816.9,-139.8 -257.9,172.6 586,1345.2 616.8,1706 30.2,360.9 92.5,459.4 207.3,599.1 114.9,139.1 8.6,418 -106.9,639.1 -114.2,221.8 -171.9,49.9 -737.5,-59 -335.3,-64.3 -572.9,-52.5 -710.7,-31.5 -3.3,41.3 -7.2,74.8 -7.2,74.8 l 1631.9,475.1 c 0,0 0,-184.4 123.4,-536.8 122.7,-353 311.6,-799.9 -61.7,-1370.1 -373.4,-569.5 -906.2,-1418.6 -816.3,-1418.6 90.6,0 1665.4,397.6 1734.9,319.5 69.6,-78 225.7,-463.2 160.1,-565.6"
         style="fill:#1f1c47;fill-opacity:1;fill-rule:nonzero;stroke:none"
         id="path154" /><path
         d="m 22267.1,9381.7 c -12.5,-53.8 -500.7,-279.5 -914.7,-353 -414.1,-73.5 -877.3,-184.4 -910.1,-61.7 -15.8,59.1 -29.5,162.7 -50.5,278.9 -23,126 -54.5,265.7 -105.7,377.3 -98.4,213.2 -180.4,406.1 -213.2,524.9 0,0 -393.7,-541.3 -537.5,-541.3 -143,0 -516.4,303.8 -656.1,541.3 -139.1,238.2 -336,492.1 -336,492.1 l 496.1,12.5 c 0,0 360.9,-369.4 418.6,-286.7 57.1,81.3 360.9,868.7 442.9,930.4 82.1,61.7 439,274.9 439,274.9 0,0 -148.3,-442.9 106.3,-442.9 254.6,0 422.6,287.4 459.3,418.7 36.8,131.2 0,253.9 0,253.9 0,0 651.6,82 779.6,-28.9 89.2,-77.4 150.2,-120.7 178.4,-240.1 12.5,-49.9 18.4,-113.5 18.4,-198.8 0,0 5.9,-36.1 16.4,-98.5 v -0.6 c 30.2,-189 100.4,-618.8 168,-1036.8 89.9,-557.7 213.3,-762.4 200.8,-815.6"
         style="fill:#896dcc;fill-opacity:1;fill-rule:nonzero;stroke:none"
         id="path156" /><path
         d="m 21898.3,11234.7 v -0.6 c -96.4,-337.9 -274.3,-916.7 -467.8,-1303.2 -180.5,-360.2 -686.4,-574.8 -1038.7,-685 -23,126 -54.5,265.7 -105.7,377.3 -98.4,213.2 -180.4,406.1 -213.2,524.9 0,0 747.3,-392.4 1168.6,127.3 282.8,348.4 500,1010.5 622,1256.6 12.5,-49.9 18.4,-113.5 18.4,-198.8 0,0 5.9,-36.1 16.4,-98.5"
         style="fill:#615ebc;fill-opacity:1;fill-rule:nonzero;stroke:none"
         id="path158" /><path
         d="m 21791.4,11675.2 c 0,0 -273.4,147.7 -421.1,-43.7 -147.6,-191.4 -464.8,-1230.3 -546.8,-1257.7 -82,-27.3 -1025.2,213.3 -1058.1,147.7 -32.8,-65.6 -168.1,-393.7 -90.2,-438.8 77.9,-45.2 1148.3,-299.4 1406.7,-188.7 258.4,110.7 771,1283.6 799.7,1439.5 28.7,155.8 20.5,277.5 -90.2,341.7"
         style="fill:#af88e2;fill-opacity:1;fill-rule:nonzero;stroke:none"
         id="path160" /><path
         d="m 20042.5,10505.2 53.8,292.8 -180.1,-273.6 z"
         style="fill:#615ebc;fill-opacity:1;fill-rule:nonzero;stroke:none"
         id="path162" /><path
         d="m 19752.9,10494.5 c 0,0 -540.5,103 -610.8,114.5 -70.4,11.5 -150.4,101.1 -246.1,166.7 -95.7,65.7 -191.4,85.5 -153.1,22.3 38.3,-63.3 90.2,-115.2 49.2,-115.2 -41,0 -248.8,-35.6 -352.7,10.9 -103.9,46.5 -177.7,117.6 -194.1,-8.2 -16.4,-125.8 158.6,-314.4 377.3,-347.2 218.7,-32.8 333.6,-2.7 500.3,-41 166.8,-38.3 531.4,-111.9 531.4,-111.9 0,0 61.5,219.3 98.6,309.1"
         style="fill:#ffbf9f;fill-opacity:1;fill-rule:nonzero;stroke:none"
         id="path164" /><path
         d="m 20333.4,11729.6 c 0,0 80,71.4 145.6,161.6 65.6,90.3 106.7,188.7 106.7,188.7 0,0 -119,-705.4 -143.6,-635.7 -24.6,69.7 -108.7,285.4 -108.7,285.4"
         style="fill:#ff9b80;fill-opacity:1;fill-rule:nonzero;stroke:none"
         id="path166" /><path
         d="m 14997.4,5198.6 c -58.4,-78.1 -138.5,-135.8 -227.1,-172.6 -290,-120 -1935.7,-76.7 -2170.6,-60.3 -235.5,16.4 -711.3,82 -754.6,432.4 -43.9,349.7 196.9,645 508.6,951.4 311.6,305.8 519,803.8 535.4,896.4 16.4,93.1 -32.8,126 -32.8,126 0,0 -234.9,158.8 -328.1,191.6 -24.9,8.5 -30.8,38.7 -23.6,77.4 19,105.6 139.1,276.2 259.2,255.9 164,-27.6 190.9,-5.3 289.3,65.6 98.5,70.9 158.8,152.9 262.5,38.1 104.3,-114.9 98.4,-169.3 0,-322.2 -44,-69.6 -69.5,-175.2 -70.2,-280.2 -0.7,-102.4 23,-204.1 74.8,-269 13.1,-16.4 28.2,-30.2 44.6,-41.4 153.6,-104.3 1192.3,-514.4 1542,-1055.7 242.8,-375.4 223.1,-656.2 90.6,-833.4"
         style="fill:#eae1da;fill-opacity:1;fill-rule:nonzero;stroke:none"
         id="path168" /><path
         d="m 14997.4,5198.6 c -58.4,-78.1 -138.5,-135.8 -227.1,-172.6 -290,-120 -1935.7,-76.7 -2170.6,-60.3 -235.5,16.4 -711.3,82 -754.6,432.4 -43.9,349.7 196.9,645 508.6,951.4 311.6,305.8 519,803.8 535.4,896.4 16.4,93.1 -32.8,126 -32.8,126 0,0 -234.9,158.8 -328.1,191.6 -24.9,8.5 -30.8,38.7 -23.6,77.4 28.9,-53.2 88.6,-100.4 204.1,-121.4 328,-60.4 151.5,-143.7 344.4,-152.9 76.8,-3.9 141.8,11.8 192.3,31.5 -0.7,-102.4 23,-204.1 74.8,-269 -94.5,-5.3 -204.7,-21 -302.5,-57.8 -232.3,-88.6 -63,-416 -286.7,-716.5 -224.5,-300.5 -847.8,-831.4 -470.5,-1071.5 327.4,-209.4 1983.6,-304.5 2736.9,-84.7"
         style="fill:#c6b9b0;fill-opacity:1;fill-rule:nonzero;stroke:none"
         id="path170" /><path
         d="m 13121.6,5577.3 c -68,43.5 -133.6,90.2 -197,139.9 58,51.2 114.7,103.8 170.4,157.7 62,-46.9 124,-93.9 186,-140.8 25.3,-19.1 49.8,23.6 24.8,42.5 -58.3,44.2 -116.7,88.4 -175.1,132.6 0.8,0.7 1.6,1.4 2.4,2.2 56.2,55.7 108.8,115.5 161.3,175.5 65.8,-63.1 134.6,-122.5 205.6,-179.6 -117,-120.1 -243.6,-229.7 -378.4,-330 z m 716.2,148 c -92.3,57.6 -179.8,121.1 -265,187.3 46.4,49.2 91.9,99.2 135.3,151.6 20.1,24.2 -14.6,59.2 -34.8,34.8 -44.6,-53.9 -91.3,-105.5 -139.1,-156.1 -71.5,57.5 -141,117.4 -207.3,181 67.1,76.8 134.7,152.9 209.4,220.9 23.5,21.3 -11.4,56 -34.8,34.8 -75,-68.3 -142.9,-144.8 -210.3,-221.9 -51.6,51.1 -101.9,103.8 -150.2,158.7 -21,23.8 -55.7,-11.1 -34.8,-34.8 49,-55.7 100,-109.2 152.4,-161 -52.1,-59.6 -104.5,-119.1 -160.3,-174.4 -2.4,-2.4 -4.9,-4.6 -7.3,-7 -15.6,11.8 -31.2,23.6 -46.7,35.4 -25.3,19.1 -49.8,-23.6 -24.9,-42.5 12,-9 23.9,-18.1 35.9,-27.1 -55.6,-53.7 -112.2,-106.1 -170,-157.1 -83.9,68.4 -163.5,142.4 -238.8,221.9 -21.9,23 -56.6,-11.8 -34.8,-34.8 74.5,-78.6 153.3,-151.9 236.1,-219.9 -74.3,-64.3 -150.2,-126.7 -227.8,-187.2 -25,-19.5 10.1,-54.1 34.8,-34.8 79.1,61.7 156.5,125.3 232.1,190.9 61.8,-48.8 125.7,-94.6 191.7,-137.6 -30.5,-21.9 -60,-44.9 -91.4,-65.8 -26.3,-17.4 -1.7,-60.1 24.8,-42.5 38,25.3 74,52.9 110.8,79.6 62.4,-38.8 126.6,-75 192.7,-108.6 28.2,-14.4 53.1,28.1 24.9,42.4 -59.6,30.4 -117.4,63.1 -174,97.6 132.6,99.8 257.2,208.6 372.6,327.5 88,-68.6 178.5,-134.2 274,-193.8 27,-16.8 51.7,25.8 24.8,42.5"
         style="fill:#c6b9b0;fill-opacity:1;fill-rule:nonzero;stroke:none"
         id="path172" /><path
         d="m 14826.8,5786 c -1.7,-56.7 -5.5,-112.3 -11.4,-166.7 -39.1,33.3 -78.6,65.5 -118.4,96.7 4.9,52.9 9.8,105.9 14.8,158.9 2,21.6 -24.3,32.1 -26.3,10.8 -4.6,-49.9 -9.2,-99.8 -13.9,-149.7 -0.5,0.5 -1.1,0.9 -1.7,1.3 -40.7,31.3 -82.4,59.3 -124.1,87.1 11.3,58.5 20.2,118.6 27.3,179.8 86.8,-64.4 171.3,-137.4 253.7,-218.2 z m -260.8,494.4 c -1.6,-76.9 -7.3,-151.2 -14.9,-224.3 -35.1,25.3 -70.4,49.8 -106.2,72.3 -16.5,10.4 -23.3,-20.7 -6.6,-31.2 36.8,-23.2 73.1,-48.2 109.2,-74.2 -7.2,-61.7 -16.1,-122.3 -27.5,-181.3 -53.4,35.6 -106.6,71.6 -158,114.2 -16.1,13.4 -22.7,-17.9 -6.7,-31.2 51.6,-42.7 105.1,-78.9 158.8,-114.7 -9.7,-46.2 -20.4,-91.6 -32.7,-136 -5.3,-19.3 20.1,-38.5 25.4,-19.3 12.4,45 23.3,91.2 33.1,138 41.4,-27.6 82.9,-55.4 123.4,-86.5 1.7,-1.4 3.4,-2.8 5.2,-4.1 -1.3,-13.3 -2.5,-26.6 -3.8,-40 -2,-21.5 24.3,-32.1 26.3,-10.7 0.9,10.2 1.9,20.4 2.8,30.6 39.7,-31.1 79,-63.2 118.1,-96.5 -9,-72.5 -21.6,-142.9 -38,-211.1 -4.7,-19.8 20.7,-39 25.4,-19.3 16.2,67.5 28.7,137.2 37.8,208.8 49.5,-42.9 98.7,-87.3 147.4,-133.3 15.6,-14.8 22.1,16.6 6.6,31.2 -49.6,46.9 -99.7,92.1 -150.3,135.8 5.9,53.1 9.8,107.3 11.8,162.6 18.3,-18.4 36.8,-36 54.9,-55.2 15.1,-16 28.1,9.1 12.9,25.3 -21.9,23.2 -44.3,44.7 -66.5,66.8 1.1,51.9 0.5,104.6 -1.8,158.3 -1,22.9 -27.2,33.8 -26.2,10.8 2,-48.4 2.5,-95.9 1.8,-142.8 -81.5,79.1 -165.1,150.9 -250.9,214.4 7.9,75.5 13.8,152.3 15.5,231.8 0.5,22.4 -25.8,33.1 -26.3,10.8"
         style="fill:#c6b9b0;fill-opacity:1;fill-rule:nonzero;stroke:none"
         id="path174" /><path
         d="m 4695.21,8189.5 c 0,-34 -27.51,-61.5 -61.44,-61.5 -33.94,0 -61.45,27.5 -61.45,61.5 0,33.9 27.51,61.4 61.45,61.4 33.93,0 61.44,-27.5 61.44,-61.4"
         style="fill:#ffffff;fill-opacity:1;fill-rule:nonzero;stroke:none"
         id="path176" /><path
         d="m 5554.35,6682.6 c 0,-62.1 -50.28,-112.3 -112.3,-112.3 -62.03,0 -112.31,50.2 -112.31,112.3 0,62 50.28,112.3 112.31,112.3 62.02,0 112.3,-50.3 112.3,-112.3"
         style="fill:#ffffff;fill-opacity:1;fill-rule:nonzero;stroke:none"
         id="path178" /><path
         d="m 6188.06,9139 c 0,-35.9 -29.12,-65.1 -65.04,-65.1 -35.92,0 -65.03,29.2 -65.03,65.1 0,35.9 29.11,65 65.03,65 35.92,0 65.04,-29.1 65.04,-65"
         style="fill:#ffffff;fill-opacity:1;fill-rule:nonzero;stroke:none"
         id="path180" /><path
         d="m 9673.07,9708.4 c 0,-32.3 -26.18,-58.5 -58.48,-58.5 -32.29,0 -58.47,26.2 -58.47,58.5 0,32.3 26.18,58.5 58.47,58.5 32.3,0 58.48,-26.2 58.48,-58.5"
         style="fill:#ffffff;fill-opacity:1;fill-rule:nonzero;stroke:none"
         id="path182" /><path
         d="m 9455.36,11618.1 c 0,-40.8 -33.06,-73.8 -73.82,-73.8 -40.77,0 -73.82,33 -73.82,73.8 0,40.8 33.05,73.8 73.82,73.8 40.76,0 73.82,-33 73.82,-73.8"
         style="fill:#ffffff;fill-opacity:1;fill-rule:nonzero;stroke:none"
         id="path184" /><path
         d="m 11042.3,10852.8 c 0,-51.3 -41.6,-92.8 -92.8,-92.8 -51.3,0 -92.9,41.5 -92.9,92.8 0,51.3 41.6,92.9 92.9,92.9 51.2,0 92.8,-41.6 92.8,-92.9"
         style="fill:#ffffff;fill-opacity:1;fill-rule:nonzero;stroke:none"
         id="path186" /><path
         d="m 10115.4,15644.8 c 0,-42.7 -34.7,-77.4 -77.4,-77.4 -42.82,0 -77.49,34.7 -77.49,77.4 0,42.8 34.67,77.5 77.49,77.5 42.7,0 77.4,-34.7 77.4,-77.5"
         style="fill:#ffffff;fill-opacity:1;fill-rule:nonzero;stroke:none"
         id="path188" /><path
         d="m 11989,15429.1 c 0,-39.1 -31.7,-70.8 -70.7,-70.8 -39.1,0 -70.8,31.7 -70.8,70.8 0,39.1 31.7,70.8 70.8,70.8 39,0 70.7,-31.7 70.7,-70.8"
         style="fill:#ffffff;fill-opacity:1;fill-rule:nonzero;stroke:none"
         id="path190" /><path
         d="m 12740.5,18195 c 0,-39.1 -31.7,-70.8 -70.8,-70.8 -39.1,0 -70.8,31.7 -70.8,70.8 0,39.1 31.7,70.7 70.8,70.7 39.1,0 70.8,-31.6 70.8,-70.7"
         style="fill:#ffffff;fill-opacity:1;fill-rule:nonzero;stroke:none"
         id="path192" /><path
         d="m 13395.3,16231.7 c 0,-22 -17.9,-39.9 -39.9,-39.9 -22.1,0 -40,17.9 -40,39.9 0,22.1 17.9,40 40,40 22,0 39.9,-17.9 39.9,-40"
         style="fill:#ffffff;fill-opacity:1;fill-rule:nonzero;stroke:none"
         id="path194" /><path
         d="m 11827.6,17134.6 c 0,-16.4 -13.3,-29.7 -29.7,-29.7 -16.5,0 -29.8,13.3 -29.8,29.7 0,16.5 13.3,29.8 29.8,29.8 16.4,0 29.7,-13.3 29.7,-29.8"
         style="fill:#ffffff;fill-opacity:1;fill-rule:nonzero;stroke:none"
         id="path196" /><path
         d="m 14016.1,19138.2 c 0,-17.7 -14.4,-32.1 -32.1,-32.1 -17.8,0 -32.1,14.4 -32.1,32.1 0,17.8 14.3,32.2 32.1,32.2 17.7,0 32.1,-14.4 32.1,-32.2"
         style="fill:#ffffff;fill-opacity:1;fill-rule:nonzero;stroke:none"
         id="path198" /><path
         d="m 14970.2,17159.9 c 0,-20.8 -17,-37.8 -37.9,-37.8 -20.8,0 -37.8,17 -37.8,37.8 0,20.9 17,37.9 37.8,37.9 20.9,0 37.9,-17 37.9,-37.9"
         style="fill:#ffffff;fill-opacity:1;fill-rule:nonzero;stroke:none"
         id="path200" /><path
         d="m 15326.9,18446.4 c 0,-38.1 -30.9,-69 -69.1,-69 -38.1,0 -69.1,30.9 -69.1,69 0,38.2 31,69.1 69.1,69.1 38.2,0 69.1,-30.9 69.1,-69.1"
         style="fill:#ffffff;fill-opacity:1;fill-rule:nonzero;stroke:none"
         id="path202" /><path
         d="m 20296,15413.4 c 0,-44.6 -36.2,-80.9 -80.9,-80.9 -44.7,0 -80.9,36.3 -80.9,80.9 0,44.7 36.2,81 80.9,81 44.7,0 80.9,-36.3 80.9,-81"
         style="fill:#ffffff;fill-opacity:1;fill-rule:nonzero;stroke:none"
         id="path204" /><path
         d="m 22157.1,13963.4 c 0,-61 -49.4,-110.4 -110.4,-110.4 -61,0 -110.5,49.4 -110.5,110.4 0,61 49.5,110.4 110.5,110.4 61,0 110.4,-49.4 110.4,-110.4"
         style="fill:#ffffff;fill-opacity:1;fill-rule:nonzero;stroke:none"
         id="path206" /><path
         d="m 22809.8,9245.9 c 0,-37 -29.9,-67 -66.9,-67 -36.9,0 -66.9,30 -66.9,67 0,36.9 30,66.9 66.9,66.9 37,0 66.9,-30 66.9,-66.9"
         style="fill:#ffffff;fill-opacity:1;fill-rule:nonzero;stroke:none"
         id="path208" /><path
         d="m 23192.3,7355.4 c 0,-73.2 -59.3,-132.5 -132.5,-132.5 -73.3,0 -132.6,59.3 -132.6,132.5 0,73.3 59.3,132.6 132.6,132.6 73.2,0 132.5,-59.3 132.5,-132.6"
         style="fill:#ffffff;fill-opacity:1;fill-rule:nonzero;stroke:none"
         id="path210" /><path
         d="m 24908.2,8088.6 c 0,-31.7 -25.7,-57.4 -57.4,-57.4 -31.7,0 -57.5,25.7 -57.5,57.4 0,31.7 25.8,57.4 57.5,57.4 31.7,0 57.4,-25.7 57.4,-57.4"
         style="fill:#ffffff;fill-opacity:1;fill-rule:nonzero;stroke:none"
         id="path212" /><path
         d="m 26354.7,6326.5 c 0,-39.3 -31.8,-71.1 -71.1,-71.1 -39.2,0 -71.1,31.8 -71.1,71.1 0,39.3 31.9,71.1 71.1,71.1 39.3,0 71.1,-31.8 71.1,-71.1"
         style="fill:#ffffff;fill-opacity:1;fill-rule:nonzero;stroke:none"
         id="path214" /></g></g></svg>
