<?xml version="1.0" encoding="UTF-8" standalone="no"?>
<svg
   xmlns:dc="http://purl.org/dc/elements/1.1/"
   xmlns:cc="http://creativecommons.org/ns#"
   xmlns:rdf="http://www.w3.org/1999/02/22-rdf-syntax-ns#"
   xmlns:svg="http://www.w3.org/2000/svg"
   xmlns="http://www.w3.org/2000/svg"
   xmlns:sodipodi="http://sodipodi.sourceforge.net/DTD/sodipodi-0.dtd"
   xmlns:inkscape="http://www.inkscape.org/namespaces/inkscape"
   version="1.1"
   id="svg2"
   xml:space="preserve"
   width="2829.3333"
   height="2829.3333"
   viewBox="0 0 2829.3333 2829.3333"
   sodipodi:docname="vecteezy_green-coin-money-dollar_6061664.eps"><metadata
     id="metadata8"><rdf:RDF><cc:Work
         rdf:about=""><dc:format>image/svg+xml</dc:format><dc:type
           rdf:resource="http://purl.org/dc/dcmitype/StillImage" /></cc:Work></rdf:RDF></metadata><defs
     id="defs6" /><sodipodi:namedview
     pagecolor="#ffffff"
     bordercolor="#666666"
     borderopacity="1"
     objecttolerance="10"
     gridtolerance="10"
     guidetolerance="10"
     inkscape:pageopacity="0"
     inkscape:pageshadow="2"
     inkscape:window-width="640"
     inkscape:window-height="480"
     id="namedview4" /><g
     id="g10"
     inkscape:groupmode="layer"
     inkscape:label="ink_ext_XXXXXX"
     transform="matrix(1.3333333,0,0,-1.3333333,0,2829.3333)"><g
       id="g12"
       transform="scale(0.1)"><path
         d="m 16684.7,4693.4 c 11.2,11.5 22.5,22.9 33.7,34.5 41.9,43.5 83.3,87.6 124.3,132 7.6,8.2 15.3,16.2 22.8,24.5 1382.5,1509.6 2226.4,3520.7 2226.4,5729 0,4686.3 -3799,8485.3 -8485.3,8485.3 -2365.23,0 -4504.04,-968.1 -6042.9,-2529.2 l -2.63,-2.7 c -47.45,-48.2 -94.26,-96.9 -140.55,-146.2 l -5.66,-6 c -45.15,-48.2 -89.74,-96.9 -133.79,-146.1 l -8.57,-9.7 c -42.97,-48.1 -85.41,-96.8 -127.26,-145.9 l -10.72,-12.7 c -40.92,-48.2 -81.26,-96.8 -121.11,-145.8 -4.39,-5.5 -8.77,-11 -13.16,-16.4 -38.74,-48 -77.03,-96.5 -114.74,-145.4 -5.11,-6.6 -10.23,-13.3 -15.34,-20 -36.69,-47.8 -72.94,-96.1 -108.66,-144.7 -5.74,-7.9 -11.44,-15.7 -17.19,-23.6 -34.79,-47.7 -69.1,-95.8 -102.9,-144.3 -6.23,-9 -12.43,-17.9 -18.61,-26.9 -32.94,-47.6 -65.39,-95.5 -97.29,-143.8 -6.73,-10.1 -13.41,-20.3 -20.08,-30.4 -31.04,-47.4 -61.58,-95 -91.7,-143 -7.16,-11.4 -14.27,-22.8 -21.34,-34.2 -29.18,-47.1 -57.92,-94.4 -86.23,-142.1 -7.5,-12.6 -14.96,-25.2 -22.36,-37.8 -27.43,-46.7 -54.43,-93.8 -81.03,-141.2 -7.69,-13.7 -15.44,-27.5 -23.09,-41.3 -25.73,-46.5 -51.01,-93.3 -75.91,-140.3 -7.94,-14.9 -15.88,-29.9 -23.72,-44.9 -24.07,-46.1 -47.6,-92.4 -70.85,-139 -8.13,-16.3 -16.26,-32.5 -24.26,-48.9 -22.41,-45.6 -44.34,-91.5 -65.92,-137.6 -8.18,-17.5 -16.47,-35 -24.56,-52.6 -20.8,-45.3 -41.11,-90.8 -61.19,-136.5 -8.18,-18.7 -16.46,-37.3 -24.55,-56.1 -19.3,-44.9 -38.06,-90 -56.62,-135.2 -8.14,-19.9 -16.37,-39.8 -24.36,-59.7 -17.83,-44.5 -35.12,-89.2 -52.17,-134 -8.04,-21.1 -16.19,-42.1 -24.08,-63.2 -16.36,-44.2 -32.25,-88.5 -47.94,-133 -7.79,-22 -15.69,-44 -23.34,-66.2 -15,-43.8 -29.52,-87.9 -43.84,-132 -7.55,-23.2 -15.26,-46.3 -22.61,-69.6 -13.68,-43.3 -26.75,-87 -39.76,-130.6 -7.25,-24.3 -14.65,-48.5 -21.68,-72.8 -12.37,-43 -24.16,-86.3 -35.9,-129.6 -6.82,-25.3 -13.89,-50.5 -20.51,-75.9 -11.16,-42.7 -21.63,-85.6 -32.11,-128.5 -6.44,-26.3 -13.06,-52.5 -19.25,-78.9 -9.89,-42.3 -19.14,-84.9 -28.4,-127.5 -5.95,-27.2 -12.13,-54.4 -17.78,-81.7 -8.72,-42.1 -16.76,-84.6 -24.9,-126.9 -5.36,-28 -11.01,-55.9 -16.08,-84 -7.6,-42 -14.47,-84.3 -21.43,-126.5 -4.78,-28.8 -9.85,-57.4 -14.28,-86.3 -6.53,-41.9 -12.23,-84.2 -18.13,-126.4 -4.04,-29.3 -8.47,-58.4 -12.27,-87.8 -5.41,-42.1 -9.99,-84.4 -14.82,-126.7 -3.35,-29.8 -7.1,-59.4 -10.18,-89.3 -4.39,-42.7 -7.94,-85.6 -11.69,-128.4 -2.58,-29.6 -5.6,-59.2 -7.89,-88.9 -3.41,-44.1 -5.9,-88.5 -8.62,-132.8 -1.76,-28.7 -3.95,-57.3 -5.41,-86.1 -2.49,-47.7 -3.95,-95.7 -5.6,-143.7 -0.88,-25.5 -2.25,-50.9 -2.93,-76.5 -1.76,-69.9 -2.63,-140 -2.73,-210.4 l -0.09,-10.9 c 0,-785.6 107.23,-1546.2 307.04,-2268.2 10.57,-38.2 21.42,-76.3 32.54,-114.3 26.94,-92.2 55.4,-183.8 85.36,-274.6 14.67,-44.7 29.76,-89.1 45.21,-133.4 139.44,-400.7 308.11,-787.5 503.38,-1158.2 67.63,-128.4 138.37,-254.8 212.29,-379.2 27.33,-46 55.1,-91.8 83.31,-137.3 1496.22,-2412.8 4168.28,-4020.1 7216.14,-4020.1 76.8,0 153.3,1.1 229.5,3.2 24.8,0.6 49.5,1.9 74.3,2.8 51.3,1.8 102.6,3.7 153.7,6.4 29.5,1.5 58.9,3.7 88.3,5.6 46.2,2.9 92.4,5.9 138.4,9.5 31.1,2.5 62.1,5.5 93.1,8.3 44.1,4 88.1,8.1 132,12.8 31.8,3.4 63.3,7.1 94.9,10.8 43.1,5.1 86.2,10.4 129.1,16.1 31.6,4.3 63.2,8.7 94.7,13.3 42.7,6.2 85.3,12.7 127.8,19.5 31.2,5 62.3,10.1 93.3,15.5 43,7.4 85.8,15.2 128.6,23.2 30.1,5.7 60.2,11.3 90.2,17.3 43.8,8.8 87.5,18.1 131.2,27.5 28.5,6.1 57,12.2 85.5,18.6 46,10.4 91.7,21.5 137.5,32.7 25.6,6.3 51.3,12.2 76.8,18.8 52.2,13.2 104.1,27.3 155.9,41.6 18.6,5.1 37.4,9.9 56,15.1 142.3,40.2 283,84 422.1,131.3 14.9,5 29.6,10.5 44.5,15.6 53.9,18.7 107.8,37.7 161.4,57.5 21.1,7.8 42,16 63,24 47.1,17.8 94.1,35.7 140.8,54.3 23.1,9.3 46,18.8 69,28.3 44.3,18.1 88.6,36.4 132.5,55.3 23.8,10.2 47.3,20.6 71,31 43,19 85.9,38.2 128.5,57.8 23.6,10.8 47.1,21.8 70.6,32.9 42.5,20.1 84.8,40.4 127,61.2 22.8,11.2 45.7,22.5 68.4,34 42.8,21.5 85.4,43.5 127.9,65.8 21.3,11.2 42.7,22.4 63.9,33.8 44.3,23.7 88.2,47.9 132,72.4 19,10.6 38,21 56.8,31.7 47.4,27 94.5,54.6 141.3,82.5 14.8,8.8 29.6,17.3 44.4,26.2 55.7,33.7 111.1,68 166.1,102.9 5.4,3.4 10.9,6.7 16.2,10.2 185.2,118.2 365.5,243.4 540.6,375.2 9.8,7.4 19.4,15 29.2,22.4 47.3,36 94.4,72.3 141,109.3 13.3,10.6 26.5,21.4 39.8,32.1 42.8,34.4 85.4,69 127.6,104.3 14.5,12.1 28.9,24.4 43.4,36.7 40.5,34.3 80.7,68.9 120.6,104 15,13.1 29.8,26.3 44.7,39.6 39.2,35 78.1,70.3 116.7,106 14.4,13.4 28.9,26.8 43.3,40.3 38.9,36.5 77.4,73.4 115.5,110.6 13.4,13 26.7,26 40,39.1 39.6,39 78.7,78.5 117.5,118.4"
         style="fill:#347933;fill-opacity:1;fill-rule:nonzero;stroke:none"
         id="path14" /><path
         d="m 10606.6,17567.1 c 2574.6,0 4821.2,-1399.9 6023.1,-3479.5 l -2,4.7 c 3.7,-6.4 7.1,-13.2 10.8,-19.6 31.6,-55.1 62.1,-110.9 92.3,-166.9 12.6,-23.5 25.7,-46.7 38.1,-70.4 30.5,-58.1 59.6,-117.1 88.4,-176.2 10.9,-22.2 22.3,-44 32.9,-66.4 30.3,-63.8 59.1,-128.4 87.5,-193.3 8,-18.3 16.6,-36.2 24.5,-54.5 35.7,-83.5 70,-167.8 102.4,-252.9 l 2.1,-5.5 c 25.8,-67.7 50.6,-135.8 74.2,-204.4 l 1.4,-3.7 c 22.6,-65.6 44,-131.7 64.8,-198.2 3.3,-10.9 6.6,-21.8 10,-32.7 20.1,-65.8 39.5,-131.7 57.7,-198.3 l 2.9,-11 c 18.9,-69.4 36.8,-139.2 53.5,-209.5 l 1.6,-6.6 c 33.6,-141.5 62.6,-284.7 87.4,-429.4 2.3,-13.6 4.5,-27.3 6.8,-40.9 9.6,-58.5 18.5,-117.2 26.6,-176.1 2,-14.2 4.1,-28.3 6,-42.5 9.4,-71.5 18.1,-143.2 25.3,-215.4 l 0.3,-3 c 6.9,-68.5 12.5,-137.3 17.3,-206.2 1.4,-20.3 2.6,-40.7 3.8,-61.1 3.3,-52.4 5.9,-105 8,-157.8 0.8,-20.9 1.7,-41.7 2.4,-62.6 2.1,-70.8 3.5,-141.8 3.6,-213 v -0.8 c 0,-702.2 -104.5,-1380 -298.1,-2019 -10.3,-34 -20.9,-67.8 -31.7,-101.5 -58.7,-183.7 -124.8,-364 -198.1,-540.6 -12.8,-31.1 -25.9,-62 -39.2,-92.8 -30.8,-71.3 -62.8,-142 -95.9,-212.1 -15.6,-33.1 -31.5,-66 -47.7,-98.8 -32.8,-66.7 -66.6,-132.8 -101.5,-198.3 -23.8,-44.8 -48.1,-89.2 -73,-133.4 -94.3,-168.2 -194.9,-332.2 -302.4,-491.4 -31.2,-46.2 -63,-92 -95.3,-137.5 -64.7,-90.9 -131.4,-180.1 -200.3,-267.7 -34.4,-43.8 -69.3,-87.1 -104.7,-130.1 -70.9,-85.8 -143.8,-170 -218.6,-252.3 -74.8,-82.3 -151.6,-162.8 -230.2,-241.5 -78.7,-78.6 -159.2,-155.4 -241.5,-230.2 -123.5,-112.3 -251,-220.1 -382.4,-323.3 -87.6,-68.9 -176.8,-135.6 -267.7,-200.2 -227.2,-161.6 -464.6,-309.9 -710.9,-443.7 -98.5,-53.5 -198.5,-104.7 -299.8,-153.5 -101.4,-48.9 -204.1,-95.3 -308,-139.3 -831.9,-351.9 -1746.6,-546.5 -2706.7,-546.5 -78.8,0 -157.1,1.9 -235.3,4.4 -20,0.7 -40.1,1.5 -60.1,2.3 -72.6,3 -145,6.9 -217,12.2 -5.7,0.4 -11.4,0.6 -17.1,1.1 -77.15,5.8 -153.84,13.2 -230.28,21.5 -18.95,2.1 -37.81,4.3 -56.66,6.5 -68.89,8.1 -137.45,16.9 -205.66,27 -8.43,1.2 -16.9,2.3 -25.28,3.5 -75.96,11.5 -151.43,24.5 -226.51,38.4 -16.8,3.1 -33.57,6.4 -50.33,9.6 -67.04,13 -133.74,26.7 -200.05,41.6 -9.35,2.1 -18.75,4 -28.05,6.1 -75.04,17.1 -149.52,35.6 -223.64,55.1 -13.69,3.6 -27.33,7.4 -41.02,11.1 -66.85,18 -133.4,37 -199.42,57 -8.72,2.6 -17.49,5.1 -26.16,7.8 -74.54,22.8 -148.4,46.9 -221.82,72.2 -9.51,3.3 -18.86,6.7 -28.31,10 -68.06,23.8 -135.64,48.5 -202.68,74.3 -7.21,2.8 -14.42,5.4 -21.58,8.2 -74.11,28.8 -147.63,58.8 -220.52,90 l -12.42,5.5 c -70.5,30.4 -140.36,62 -209.64,94.6 -4.73,2.2 -9.51,4.4 -14.18,6.6 -147.14,69.8 -291.35,144.5 -432.55,224 l -5.65,3.1 c -75.03,42.4 -148.99,86.4 -222.27,131.5 -20.36,12.5 -40.39,25.5 -60.6,38.2 -53.6,33.7 -106.8,68 -159.42,103.1 -21.73,14.5 -43.36,29.2 -64.89,43.9 -53.07,36.3 -105.54,73.3 -157.47,111 -17.83,12.9 -35.76,25.7 -53.45,38.8 -66.11,48.8 -131.39,98.7 -195.66,149.8 l -7.06,5.5 c -71.53,57.1 -141.88,115.6 -211.12,175.4 l -3.36,2.9 c -64.94,56.2 -128.62,113.8 -191.47,172.4 -9.89,9.2 -19.69,18.6 -29.53,27.9 -55.83,52.6 -110.83,106.2 -164.91,160.7 -8.82,8.9 -17.74,17.7 -26.51,26.7 -136.27,138.6 -266.16,283.4 -390.5,433 -107.18,129.1 -210.33,261.6 -308.11,398.3 l -5.26,7.4 c -44.53,62.4 -87.65,125.9 -130.14,189.8 -11.69,17.6 -23.33,35.2 -34.83,52.9 -40.64,62.3 -80.58,125 -119.22,188.7 -6.09,10 -11.84,20.1 -17.88,30.1 -33.52,55.9 -66.12,112.3 -98.12,169.2 -12.58,22.3 -25.05,44.8 -37.42,67.3 -32.79,59.8 -65,120.1 -96.08,181.1 -11.11,21.7 -21.78,43.8 -32.64,65.7 -23.98,48.2 -47.36,96.6 -70.22,145.4 -13.34,28.5 -26.6,57 -39.55,85.7 -4.14,9.2 -8.52,18.1 -12.62,27.3 l 2.53,-4.2 c -387.43,865.7 -603.94,1824.6 -603.94,2834.5 0,3840.4 3113.22,6953.7 6953.63,6953.7 z m 506.1,-14906.3 c 2289.7,0 4367.3,907.4 5893.7,2381.6 1298.7,1490.6 2085.5,3438.8 2085.5,5571 0,4686.3 -3799,8485.3 -8485.3,8485.3 -2290.84,0 -4369.32,-908.2 -5895.99,-2383.8 -1297.4,-1490.2 -2083.22,-3437.7 -2083.22,-5568.8 0,-4686.3 3799.02,-8485.3 8485.31,-8485.3"
         style="fill:#a0da78;fill-opacity:1;fill-rule:nonzero;stroke:none"
         id="path16" /><path
         d="m 11112.7,2660.8 c -4686.29,0 -8485.31,3799 -8485.31,8485.3 0,2131.1 785.82,4078.6 2083.22,5568.8 l 0.19,0.2 -0.78,-0.7 c -49.31,-47.7 -98.13,-96 -146.32,-144.9 l -2.63,-2.7 c -47.4,-48.2 -94.26,-96.9 -140.55,-146.2 l -5.66,-6 c -45.11,-48.2 -89.74,-96.8 -133.74,-146 l -8.66,-9.8 c -42.93,-48.1 -85.31,-96.7 -127.12,-145.8 l -10.96,-13 c -40.78,-48 -81.07,-96.5 -120.78,-145.5 -4.58,-5.6 -9.07,-11.2 -13.54,-16.8 -38.69,-47.9 -76.89,-96.2 -114.49,-145 -5.17,-6.7 -10.29,-13.4 -15.45,-20.1 -36.69,-47.9 -72.94,-96.2 -108.7,-144.8 -5.71,-7.8 -11.35,-15.6 -17.05,-23.4 -34.74,-47.7 -69.04,-95.8 -102.81,-144.2 -6.33,-9.1 -12.66,-18.2 -18.94,-27.3 -32.8,-47.5 -65.1,-95.2 -96.91,-143.3 -6.87,-10.4 -13.65,-20.7 -20.47,-31 -30.88,-47.2 -61.33,-94.7 -91.3,-142.4 -7.26,-11.6 -14.52,-23.2 -21.67,-34.8 -29.15,-46.9 -57.75,-94.1 -86,-141.6 -7.5,-12.7 -15.06,-25.4 -22.56,-38.2 -27.33,-46.6 -54.23,-93.5 -80.73,-140.7 -7.84,-13.9 -15.69,-27.9 -23.44,-41.9 -25.67,-46.3 -50.81,-92.9 -75.66,-139.7 -7.99,-15.1 -15.98,-30.2 -23.87,-45.3 -24.02,-46 -47.55,-92.3 -70.74,-138.8 -8.15,-16.3 -16.32,-32.6 -24.37,-49 -22.36,-45.6 -44.24,-91.5 -65.77,-137.5 -8.28,-17.6 -16.57,-35.2 -24.7,-52.8 -20.76,-45.2 -41.02,-90.5 -61,-136.1 -8.28,-18.8 -16.61,-37.6 -24.75,-56.6 -19.25,-44.7 -37.95,-89.7 -56.42,-134.8 -8.24,-20 -16.52,-40 -24.6,-60.1 -17.79,-44.4 -35.03,-89 -52.08,-133.8 -8.04,-21 -16.19,-42.1 -24.03,-63.2 -16.41,-44 -32.25,-88.4 -47.94,-132.8 -7.79,-22.2 -15.78,-44.3 -23.43,-66.6 -14.96,-43.6 -29.38,-87.4 -43.66,-131.3 -7.59,-23.4 -15.35,-46.7 -22.8,-70.2 -13.63,-43.2 -26.65,-86.7 -39.61,-130.2 -7.3,-24.4 -14.72,-48.7 -21.82,-73.2 -12.33,-42.9 -24.03,-85.9 -35.72,-129 -6.91,-25.6 -14.03,-51 -20.7,-76.6 -11.07,-42.4 -21.5,-85.1 -31.92,-127.7 -6.47,-26.6 -13.2,-53 -19.44,-79.6 -9.84,-42.2 -19,-84.5 -28.25,-126.9 -5.95,-27.4 -12.18,-54.8 -17.93,-82.3 -8.67,-42 -16.67,-84.1 -24.71,-126.3 -5.4,-28.2 -11.1,-56.3 -16.22,-84.7 -7.56,-41.7 -14.37,-83.6 -21.29,-125.5 -4.82,-29.1 -9.94,-58 -14.47,-87.2 -6.44,-41.6 -12.08,-83.5 -17.93,-125.3 -4.14,-29.7 -8.57,-59.2 -12.42,-88.9 -5.36,-41.7 -9.94,-83.6 -14.67,-125.5 -3.46,-30.2 -7.25,-60.3 -10.33,-90.5 -4.39,-42.2 -7.84,-84.6 -11.54,-127 -2.68,-30.1 -5.71,-60.1 -8.04,-90.3 -3.32,-43.4 -5.8,-87.1 -8.48,-130.8 -1.8,-29.3 -4.09,-58.6 -5.55,-88.1 -2.44,-46.6 -3.85,-93.4 -5.46,-140.2 -0.98,-26.7 -2.34,-53.2 -3.07,-80 -1.71,-66.3 -2.39,-132.9 -2.58,-199.6 0,-7.2 -0.3,-14.4 -0.3,-21.6 0,-1903.8 627.04,-3661.2 1685.75,-5076.9 48.38,-64.7 97.64,-128.6 147.77,-191.8 291.4,-367.4 612.67,-710.2 960.04,-1024.6 289.52,-261.9 597.13,-504.2 920.84,-724.7 129.45,-88.2 261.49,-172.9 396,-254 201.71,-121.6 408.87,-235 621.09,-339.9 1131.7,-559.2 2406.04,-873.4 3753.84,-873.4 76.8,0 153.3,1.1 229.5,3.2 24.8,0.6 49.5,1.9 74.3,2.8 51.3,1.8 102.6,3.7 153.7,6.4 29.5,1.5 58.9,3.7 88.3,5.6 46.2,2.9 92.4,5.9 138.4,9.5 31.1,2.5 62.1,5.5 93.1,8.3 44.1,4 88.2,8.1 132,12.8 31.7,3.4 63.3,7.1 94.9,10.8 43.1,5.1 86.2,10.4 129.1,16.1 31.6,4.3 63.2,8.7 94.7,13.3 42.7,6.2 85.3,12.7 127.8,19.5 31.2,5 62.3,10.1 93.3,15.5 43,7.4 85.8,15.2 128.6,23.2 30.1,5.7 60.2,11.3 90.1,17.3 44,8.8 87.7,18.1 131.4,27.5 28.4,6.1 56.9,12.2 85.4,18.6 45.9,10.4 91.7,21.5 137.4,32.7 25.7,6.3 51.4,12.2 76.9,18.8 52.2,13.2 104,27.3 155.8,41.5 18.7,5.2 37.5,10 56.1,15.2 142.3,40.2 283,84 422.1,131.3 14.8,5 29.4,10.4 44.1,15.5 54.2,18.7 108.2,37.8 161.8,57.6 21.1,7.8 41.9,16 62.9,23.9 47.1,17.8 94.2,35.8 140.9,54.4 23.1,9.3 46,18.8 69,28.2 44.3,18.2 88.6,36.5 132.6,55.4 23.7,10.2 47.3,20.6 70.9,31 42.9,18.9 85.9,38.1 128.5,57.7 23.6,10.9 47.2,22 70.6,33.1 42.5,20 84.8,40.3 127,61.1 22.8,11.2 45.6,22.5 68.4,34 42.8,21.5 85.3,43.5 127.7,65.7 21.5,11.3 42.9,22.5 64.3,33.9 44.2,23.7 88.1,47.9 131.8,72.4 18.9,10.6 37.9,21 56.8,31.7 47.4,27 94.4,54.6 141.2,82.4 14.8,8.8 29.7,17.4 44.5,26.3 55.8,33.7 111.1,68 166,102.9 5.5,3.4 11,6.7 16.4,10.2 185.1,118.2 365.4,243.4 540.5,375.2 9.8,7.4 19.4,15 29.1,22.4 47.4,36 94.5,72.4 141.1,109.3 13.4,10.6 26.5,21.3 39.8,32 42.7,34.4 85.3,69.1 127.5,104.3 14.6,12.2 29.1,24.6 43.7,36.9 40.4,34.3 80.5,68.8 120.4,103.8 14.9,13.2 29.8,26.4 44.7,39.7 39.2,35 78.1,70.3 116.6,106 14.5,13.4 29,26.8 43.4,40.3 38.9,36.5 77.4,73.4 115.6,110.6 13.3,13 26.6,25.9 39.8,39 39.7,39.1 78.8,78.6 117.6,118.5 11.2,11.5 22.6,22.9 33.7,34.5 41.9,43.5 83.3,87.6 124.3,132 7.6,8.2 15.3,16.2 22.8,24.5 45,49.2 89.5,99 133.4,149.2 l 9.7,10.8 -2.2,-2 C 15480,3568.2 13402.4,2660.8 11112.7,2660.8"
         style="fill:#8ac95d;fill-opacity:1;fill-rule:nonzero;stroke:none"
         id="path18" /><path
         d="m 10606.6,15914.2 c 1366.3,0 2611.7,-517 3551.6,-1365.9 v -0.1 c 134.2,-121.1 262,-249 383.1,-383.1 l 2.5,-2.7 c 28.7,-31.8 56.9,-63.9 84.8,-96.4 4.2,-4.9 8.3,-9.9 12.5,-14.8 24.4,-28.6 48.5,-57.3 72.3,-86.4 5.9,-7.3 11.7,-14.6 17.6,-21.9 21.9,-27 43.5,-54.2 64.8,-81.7 6.8,-8.7 13.4,-17.5 20.2,-26.3 20.1,-26.2 40.1,-52.6 59.7,-79.3 7.3,-9.8 14.4,-19.7 21.6,-29.6 18.8,-25.9 37.5,-52 55.8,-78.2 7.4,-10.6 14.7,-21.1 22,-31.7 17.9,-26 35.5,-52.1 53,-78.4 7.3,-11 14.6,-22.1 21.8,-33.2 17,-26.1 33.8,-52.4 50.4,-78.8 7.1,-11.5 14.3,-22.9 21.4,-34.4 16.4,-26.6 32.5,-53.4 48.4,-80.2 6.8,-11.5 13.7,-22.9 20.3,-34.4 16.1,-27.5 31.7,-55.2 47.2,-83 6.2,-11.1 12.5,-22.2 18.7,-33.4 15.8,-28.9 31.4,-58.1 46.7,-87.4 5.4,-10.1 10.8,-20.2 16.1,-30.4 16.3,-31.6 32.2,-63.5 48,-95.5 3.9,-8 8,-16 11.9,-24.1 18.3,-37.6 36,-75.5 53.4,-113.6 l 3.5,-7.5 c 37.5,-82.7 73,-166.5 106.4,-251.4 2,-5.4 4,-10.7 6,-16 14.1,-36.2 27.9,-72.6 41.2,-109.2 4.4,-12 8.5,-24.2 12.8,-36.3 10.7,-30.1 21.3,-60.2 31.5,-90.5 4.9,-14.8 9.6,-29.8 14.5,-44.7 9,-27.7 18,-55.5 26.6,-83.4 5,-16.7 9.9,-33.4 14.8,-50.1 7.9,-26.4 15.6,-52.9 23,-79.5 5,-17.7 9.7,-35.5 14.5,-53.4 6.9,-25.8 13.7,-51.7 20.3,-77.7 4.6,-18.5 9.1,-37 13.5,-55.6 6.1,-25.5 12.1,-51.1 17.9,-76.7 4.3,-19.1 8.4,-38.2 12.5,-57.4 5.4,-25.4 10.6,-50.9 15.6,-76.4 3.8,-19.5 7.6,-39.1 11.3,-58.6 4.6,-25.4 9.1,-50.9 13.5,-76.3 3.4,-19.9 6.7,-39.8 9.8,-59.8 4.1,-25.5 7.8,-51.1 11.5,-76.7 2.9,-20 5.8,-40.1 8.4,-60.2 3.4,-25.9 6.5,-51.9 9.5,-77.9 2.4,-20 4.8,-39.9 6.9,-59.9 2.8,-26.6 5.2,-53.4 7.5,-80.1 1.8,-19.6 3.8,-39.1 5.3,-58.8 2.2,-27.8 3.9,-55.8 5.7,-83.8 1.1,-18.6 2.5,-37.2 3.5,-55.9 1.6,-30.8 2.7,-61.8 3.8,-92.7 0.5,-16.1 1.3,-32 1.8,-48 1.2,-45.8 1.8,-91.7 1.9,-137.8 v -3.6 c 0,-1508.4 -630.1,-2869.7 -1641.4,-3835 -34.9,-33.3 -70.2,-65.9 -106,-98.2 -59.4,-53.7 -119.8,-106.2 -181.6,-157.1 -98.2,-81.1 -199.3,-158.6 -303.2,-232.5 -103.9,-73.9 -210.7,-144.2 -319.9,-210.6 -52.6,-31.9 -105.9,-62.5 -159.5,-92.7 -33.7,-18.9 -67.6,-37.4 -101.7,-55.6 -50,-26.6 -100.3,-52.4 -151.2,-77.4 -205,-100.8 -417.3,-189.1 -636.2,-263.2 -164.2,-55.5 -332,-103.3 -503,-142.8 -85.5,-19.7 -171.7,-37.4 -258.8,-52.9 -304.5,-54.4 -618.1,-82.8 -938.3,-82.8 -74,0 -147.7,1.9 -221,5 -10.1,0.4 -20.3,0.6 -30.5,1.1 -69.7,3.3 -139,8 -207.9,14 -12.6,1 -25.1,2.1 -37.6,3.3 -68.5,6.4 -136.69,13.9 -204.46,22.9 -10.87,1.4 -21.68,3 -32.54,4.5 -70.22,9.8 -140.08,20.5 -209.41,33 l -9.45,1.8 c -68.99,12.5 -137.49,26.6 -205.51,41.7 -7.69,1.7 -15.4,3.3 -23.09,5 -66.9,15.3 -133.21,32 -199.17,49.7 -11.06,3 -22.12,5.9 -33.19,9 -64.94,17.9 -129.44,37 -193.37,57.4 -10.03,3.2 -19.98,6.4 -29.96,9.7 -65.72,21.3 -131.06,43.6 -195.66,67.5 l -12.72,4.8 c -65.47,24.3 -130.28,49.9 -194.5,76.7 l -12.18,4.9 c -63.81,26.9 -126.91,55.1 -189.47,84.4 -8.43,3.9 -16.9,7.8 -25.28,11.8 -61.19,29 -121.61,59.1 -181.45,90.3 -8.18,4.3 -16.27,8.6 -24.35,12.9 -61.05,32.2 -121.47,65.4 -181.05,100 l -11.11,6.5 c -124.24,72.4 -245.22,149.8 -362.77,231.8 -5.07,3.5 -10.14,6.9 -15.21,10.5 -56.71,39.8 -112.54,80.8 -167.55,122.7 -5.51,4.2 -11,8.5 -16.51,12.7 -55.65,42.8 -110.55,86.5 -164.48,131.5 l -7.12,6 c -112.3,93.9 -220.66,192.4 -324.78,295.2 l -4.14,4 c -51.15,50.6 -101.19,102.3 -150.25,154.9 l -8.63,9.3 c -49.11,53 -97.19,106.8 -144.11,161.7 l -2.83,3.4 c -72.35,84.7 -142.02,171.7 -208.96,261 -66.95,89.2 -131.11,180.6 -192.45,274 l -2.44,3.8 c -30.15,46 -59.29,92.7 -88.03,139.7 -7.89,12.9 -15.69,25.8 -23.44,38.7 -25.24,42.1 -49.98,84.5 -74.1,127.3 -3.31,6 -6.83,11.9 -10.19,17.8 -26.06,46.8 -51.2,94.2 -75.91,141.8 -7.84,15.1 -15.49,30.3 -23.19,45.4 -19.63,38.8 -38.78,77.8 -57.43,117.1 -5.46,11.5 -11.16,22.9 -16.57,34.5 -21.93,46.9 -42.97,94.4 -63.53,142.1 -7.7,17.8 -15.16,35.7 -22.66,53.7 -14.86,35.6 -29.33,71.3 -43.4,107.3 -6.54,16.5 -13.22,32.9 -19.5,49.5 -17.83,46.8 -34.93,94.1 -51.5,141.6 -7.21,20.7 -14.13,41.5 -21.09,62.3 -10.92,32.8 -21.54,65.6 -31.87,98.6 -6.47,20.9 -13.15,41.6 -19.43,62.6 -13.99,46.7 -27.24,93.7 -39.9,140.8 -6.34,23.6 -12.28,47.3 -18.33,71 -7.65,30.1 -15.05,60.4 -22.21,90.8 -5.75,24.6 -11.64,49.2 -17.1,73.9 -9.85,44.8 -19.2,89.8 -27.92,135 l 0.14,-0.2 c -62.99,326.7 -96.47,664 -96.47,1009.1 0,2927.5 2373.25,5300.8 5300.78,5300.8 z M 4256.91,7778.9 c 1203.02,-2075.7 3447.7,-3472.6 6019.59,-3472.6 3840.4,0 6953.6,3113.2 6953.6,6953.6 0,1007.2 -215.2,1963.7 -600.4,2827.7 -1201.9,2079.6 -3448.5,3479.5 -6023.1,3479.5 -3840.41,0 -6953.63,-3113.3 -6953.63,-6953.7 0,-1009.9 216.51,-1968.8 603.94,-2834.5"
         style="fill:#6bc857;fill-opacity:1;fill-rule:nonzero;stroke:none"
         id="path20" /><path
         d="m 10276.5,4306.3 c -2571.89,0 -4816.57,1396.9 -6019.59,3472.6 l -2.53,4.2 c 4.1,-9.2 8.48,-18.1 12.62,-27.3 12.95,-28.7 26.21,-57.2 39.55,-85.7 22.86,-48.8 46.24,-97.2 70.22,-145.4 10.86,-21.9 21.53,-44 32.64,-65.7 31.08,-61 63.29,-121.3 96.08,-181.1 12.32,-22.5 24.84,-45 37.42,-67.3 32,-56.9 64.6,-113.3 98.12,-169.2 6.04,-10 11.84,-20.1 17.88,-30.1 38.64,-63.7 78.58,-126.4 119.22,-188.7 11.5,-17.7 23.14,-35.3 34.83,-52.9 42.49,-63.9 85.61,-127.4 130.14,-189.8 l 5.26,-7.4 c 97.78,-136.7 200.93,-269.2 308.11,-398.3 124.34,-149.6 254.32,-294.4 390.5,-433 8.77,-9 17.69,-17.8 26.51,-26.7 54.08,-54.5 109.08,-108.1 164.91,-160.7 9.84,-9.3 19.64,-18.7 29.53,-27.9 62.85,-58.6 126.53,-116.2 191.47,-172.4 l 3.36,-2.9 c 69.24,-59.8 139.59,-118.3 211.12,-175.4 l 7.06,-5.5 c 64.27,-51.1 129.55,-101 195.66,-149.8 17.69,-13.1 35.62,-25.9 53.45,-38.8 51.93,-37.7 104.4,-74.7 157.47,-111 21.53,-14.7 43.16,-29.4 64.89,-43.9 52.62,-35.1 105.82,-69.4 159.42,-103.1 20.21,-12.7 40.24,-25.7 60.6,-38.2 73.28,-45.1 147.24,-89.1 222.27,-131.5 l 5.65,-3.1 c 141.2,-79.5 285.41,-154.2 432.55,-224 4.67,-2.2 9.45,-4.4 14.18,-6.6 69.28,-32.6 139.14,-64.2 209.64,-94.6 l 12.42,-5.5 c 72.89,-31.2 146.41,-61.2 220.52,-90 7.16,-2.8 14.37,-5.4 21.58,-8.2 67.04,-25.8 134.62,-50.5 202.68,-74.3 9.45,-3.3 18.8,-6.7 28.31,-10 73.42,-25.3 147.28,-49.4 221.82,-72.2 8.67,-2.7 17.44,-5.2 26.16,-7.8 66.02,-20 132.57,-39 199.42,-57 13.69,-3.7 27.33,-7.5 41.02,-11.1 74.12,-19.5 148.6,-38 223.64,-55.1 9.3,-2.1 18.7,-4 28.05,-6.1 66.31,-14.9 133.01,-28.6 200.05,-41.6 16.76,-3.2 33.53,-6.5 50.33,-9.6 75.08,-13.9 150.55,-26.9 226.51,-38.4 8.38,-1.2 16.85,-2.3 25.28,-3.5 68.21,-10.1 136.77,-18.9 205.66,-27 18.85,-2.2 37.71,-4.4 56.66,-6.5 76.44,-8.3 153.13,-15.7 230.28,-21.5 5.7,-0.5 11.4,-0.7 17.1,-1.1 72,-5.3 144.4,-9.2 217,-12.2 20,-0.8 40.1,-1.6 60.1,-2.3 78.2,-2.5 156.5,-4.4 235.3,-4.4 960.1,0 1874.8,194.6 2706.7,546.5 103.9,44 206.6,90.4 308,139.3 101.3,48.8 201.3,100 299.8,153.5 246.3,133.8 483.7,282.1 710.9,443.7 90.9,64.6 180.1,131.3 267.7,200.2 131.4,103.2 258.9,211 382.4,323.3 82.3,74.8 162.8,151.6 241.5,230.2 78.6,78.7 155.4,159.2 230.2,241.5 74.8,82.3 147.7,166.5 218.6,252.3 35.4,43 70.3,86.3 104.7,130.1 68.9,87.6 135.6,176.8 200.3,267.7 32.3,45.5 64.1,91.3 95.3,137.5 107.5,159.2 208.1,323.2 302.4,491.4 24.9,44.2 49.2,88.6 73,133.4 34.9,65.5 68.7,131.6 101.5,198.3 16.2,32.8 32.1,65.7 47.7,98.8 33.1,70.1 65.1,140.8 95.9,212.1 13.3,30.8 26.4,61.7 39.2,92.8 73.3,176.6 139.4,356.9 198.1,540.6 10.8,33.7 21.4,67.5 31.7,101.5 193.6,639 298.1,1316.8 298.1,2019 v 0.8 c -0.1,71.2 -1.5,142.2 -3.6,213 -0.7,20.9 -1.6,41.7 -2.4,62.6 -2.1,52.8 -4.7,105.4 -8,157.8 -1.2,20.4 -2.4,40.8 -3.8,61.1 -4.8,68.9 -10.4,137.7 -17.3,206.2 l -0.3,3 c -7.2,72.2 -15.9,143.9 -25.3,215.4 -1.9,14.2 -4,28.3 -6,42.5 -8.1,58.9 -17,117.6 -26.6,176.1 -2.3,13.6 -4.5,27.3 -6.8,40.9 -24.8,144.7 -53.8,287.9 -87.4,429.4 l -1.6,6.6 c -16.7,70.3 -34.6,140.1 -53.5,209.5 l -2.9,11 c -18.2,66.6 -37.6,132.5 -57.7,198.3 -3.4,10.9 -6.7,21.8 -10,32.7 -20.8,66.5 -42.2,132.6 -64.8,198.2 l -1.4,3.7 c -23.6,68.6 -48.4,136.7 -74.2,204.4 l -2.1,5.5 c -32.5,85.1 -66.7,169.4 -102.4,252.9 -7.9,18.3 -16.5,36.2 -24.5,54.5 -28.4,64.9 -57.2,129.5 -87.5,193.3 -10.6,22.4 -22,44.2 -32.9,66.4 -28.8,59.1 -57.9,118.1 -88.4,176.2 -12.4,23.7 -25.5,46.9 -38.1,70.4 -30.2,56 -60.7,111.8 -92.3,166.9 -3.7,6.4 -7.1,13.2 -10.8,19.6 l 2,-4.7 c 385.2,-864 600.4,-1820.5 600.4,-2827.7 0,-3840.4 -3113.2,-6953.6 -6953.6,-6953.6"
         style="fill:#347933;fill-opacity:1;fill-rule:nonzero;stroke:none"
         id="path22" /><path
         d="m 14541.3,14165.1 c -121.1,134.1 -248.9,262 -383.1,383.1 134.2,-121.1 262,-249 383.1,-383.1"
         style="fill:#a0da78;fill-opacity:1;fill-rule:nonzero;stroke:none"
         id="path24" /><path
         d="M 5402.29,9604.3 C 6254.52,8834.7 7357.91,8337.9 8574.77,8251.9 l 596.92,691 c 149.47,-129.1 328.87,-237.4 522.78,-321.4 l 62.8,72.7 c 78.1,-67.4 164.33,-129.2 256.43,-184.9 125.5,-34.5 253.5,-59.3 380.8,-72.5 485.2,136.8 941.9,341 1359.8,601.6 49.2,133.7 49.2,302.9 -134.4,457.1 -30.2,25.3 -62.6,49.1 -97,71.6 -106.1,32.5 -216.4,63.4 -328.6,94.7 -359.4,100.2 -754.7,210.5 -1127.7,411 -323.36,109.6 -652.18,254.3 -950.74,483.7 -684.78,526.2 -962.74,1387.2 -691.7,2142.3 218.81,609.7 745.29,1092.3 1423.29,1312.7 v 1110.2 H 11344.2 V 14873 h 585.5 v -1018.4 c 52,-25 103.3,-51.7 154,-80 388.5,-116.2 757.3,-315.4 1079.1,-591.7 l -975.1,-1135.5 c -163.6,140.5 -350.1,240.2 -544.5,296.5 l -41.1,-47.8 c -34.1,29.2 -69.4,56.1 -105.2,81.9 -180.9,31.3 -365.3,25.6 -542,-21.2 -268.7,-70.9 -469.2,-225.1 -536.4,-412.3 -49.7,-138.5 30.5,-323.5 194.9,-449.9 21.6,-16.5 44.4,-32.2 67.9,-47.5 106.3,-32.6 216.9,-63.5 329.5,-94.9 359.8,-100.3 753.3,-210.6 1124.5,-410.1 353.8,-119.6 713.2,-280.8 1032.8,-549.2 10.7,-9 20.9,-18.5 31.4,-27.7 662.6,884.9 1055,1983.7 1055,3174.2 0,345 -33.4,682.2 -96.3,1008.9 -939.9,848.9 -2185.3,1365.9 -3551.6,1365.9 -2927.53,0 -5300.78,-2373.3 -5300.78,-5300.8 0,-345.1 33.48,-682.4 96.47,-1009.1"
         style="fill:#a0da78;fill-opacity:1;fill-rule:nonzero;stroke:none"
         id="path26" /><path
         d="m 6573.3,7174.2 c -72.29,84.7 -142.02,171.7 -208.96,261 66.94,-89.3 136.61,-176.3 208.96,-261"
         style="fill:#a0da78;fill-opacity:1;fill-rule:nonzero;stroke:none"
         id="path28" /><path
         d="m 10828.4,8437.5 c 375.4,43.6 658.4,193.3 841,445.2 30.1,41.4 62.6,94.9 84.9,155.7 -417.9,-260.6 -874.6,-464.8 -1359.8,-601.6 147.4,-15.2 293.8,-15.5 433.9,0.7"
         style="fill:#c1e68f;fill-opacity:1;fill-rule:nonzero;stroke:none"
         id="path30" /><path
         d="m 13199.5,10365.2 c 767.6,-671.3 882,-1762 267.2,-2609.8 -362.8,-500.3 -900.6,-845 -1537,-993.1 V 5856.5 H 10433 v 248.6 h -585.55 v 827.3 c -144.89,55.1 -286.19,118.8 -422.31,190.7 -454.56,150.1 -879.96,383.2 -1231.87,687.2 l 381.5,441.6 c -1216.86,86 -2320.25,582.8 -3172.48,1352.4 l -0.14,0.2 c 8.72,-45.2 18.07,-90.2 27.92,-135 5.46,-24.7 11.35,-49.3 17.1,-73.9 7.16,-30.4 14.56,-60.7 22.21,-90.8 6.05,-23.7 11.99,-47.4 18.33,-71 12.66,-47.1 25.91,-94.1 39.9,-140.8 6.28,-21 12.96,-41.7 19.43,-62.6 10.33,-33 20.95,-65.8 31.87,-98.6 6.96,-20.8 13.88,-41.6 21.09,-62.3 16.57,-47.5 33.67,-94.8 51.5,-141.6 6.28,-16.6 12.96,-33 19.5,-49.5 14.07,-36 28.54,-71.7 43.4,-107.3 7.5,-18 14.96,-35.9 22.66,-53.7 20.56,-47.7 41.6,-95.2 63.53,-142.1 5.41,-11.6 11.11,-23 16.57,-34.5 18.65,-39.3 37.8,-78.3 57.43,-117.1 7.7,-15.1 15.35,-30.3 23.19,-45.4 24.71,-47.6 49.85,-95 75.91,-141.8 3.36,-5.9 6.88,-11.8 10.19,-17.8 24.12,-42.8 48.86,-85.2 74.1,-127.3 7.75,-12.9 15.55,-25.8 23.44,-38.7 28.74,-47 57.88,-93.7 88.03,-139.7 l 2.44,-3.8 c 61.34,-93.4 125.5,-184.8 192.45,-274 66.94,-89.3 136.67,-176.3 208.96,-261 l 2.83,-3.4 c 46.92,-54.9 95,-108.7 144.11,-161.7 l 8.63,-9.3 c 49.06,-52.6 99.1,-104.3 150.25,-154.9 l 4.14,-4 c 104.12,-102.8 212.48,-201.3 324.78,-295.2 l 7.12,-6 c 53.93,-45 108.83,-88.7 164.48,-131.5 5.51,-4.2 11,-8.5 16.51,-12.7 55.01,-41.9 110.84,-82.9 167.55,-122.7 5.07,-3.6 10.14,-7 15.21,-10.5 117.55,-82 238.53,-159.4 362.77,-231.8 l 11.11,-6.5 c 59.58,-34.6 120,-67.8 181.05,-100 8.08,-4.3 16.17,-8.6 24.35,-12.9 59.84,-31.2 120.26,-61.3 181.45,-90.3 8.38,-4 16.85,-7.9 25.28,-11.8 62.56,-29.3 125.66,-57.5 189.47,-84.4 l 12.18,-4.9 c 64.22,-26.8 129.03,-52.4 194.5,-76.7 l 12.72,-4.8 c 64.6,-23.9 129.94,-46.2 195.66,-67.5 9.98,-3.3 19.93,-6.5 29.96,-9.7 63.93,-20.4 128.43,-39.5 193.37,-57.4 11.07,-3.1 22.13,-6 33.19,-9 65.96,-17.7 132.27,-34.4 199.17,-49.7 7.69,-1.7 15.4,-3.3 23.09,-5 68.02,-15.1 136.52,-29.2 205.51,-41.7 l 9.45,-1.8 c 69.33,-12.5 139.19,-23.2 209.41,-33 10.86,-1.5 21.67,-3.1 32.54,-4.5 67.77,-9 135.96,-16.5 204.46,-22.9 12.5,-1.2 25,-2.3 37.6,-3.3 68.9,-6 138.2,-10.7 207.9,-14 10.2,-0.5 20.4,-0.7 30.5,-1.1 73.3,-3.1 147,-5 221,-5 320.2,0 633.8,28.4 938.3,82.8 87.1,15.5 173.3,33.2 258.8,52.9 171,39.5 338.8,87.3 503,142.8 218.9,74.1 431.2,162.4 636.2,263.2 50.9,25 101.2,50.8 151.2,77.4 34.1,18.2 68,36.7 101.7,55.6 53.6,30.2 106.9,60.8 159.5,92.7 109.2,66.4 216,136.7 319.9,210.6 103.9,73.9 205,151.4 303.2,232.5 61.8,50.9 122.2,103.4 181.6,157.1 35.8,32.3 71.1,64.9 106,98.2 1011.3,965.3 1641.4,2326.6 1641.4,3835 v 3.6 c -0.1,46.1 -0.7,92 -1.9,137.8 -0.5,16 -1.3,31.9 -1.8,48 -1.1,30.9 -2.2,61.9 -3.8,92.7 -1,18.7 -2.4,37.3 -3.5,55.9 -1.8,28 -3.5,56 -5.7,83.8 -1.5,19.7 -3.5,39.2 -5.3,58.8 -2.3,26.7 -4.7,53.5 -7.5,80.1 -2.1,20 -4.5,39.9 -6.9,59.9 -3,26 -6.1,52 -9.5,77.9 -2.6,20.1 -5.5,40.2 -8.4,60.2 -3.7,25.6 -7.4,51.2 -11.5,76.7 -3.1,20 -6.4,39.9 -9.8,59.8 -4.4,25.4 -8.9,50.9 -13.5,76.3 -3.7,19.5 -7.5,39.1 -11.3,58.6 -5,25.5 -10.2,51 -15.6,76.4 -4.1,19.2 -8.2,38.3 -12.5,57.4 -5.8,25.6 -11.8,51.2 -17.9,76.7 -4.4,18.6 -8.9,37.1 -13.5,55.6 -6.6,26 -13.4,51.9 -20.3,77.7 -4.8,17.9 -9.5,35.7 -14.5,53.4 -7.4,26.6 -15.1,53.1 -23,79.5 -4.9,16.7 -9.8,33.4 -14.8,50.1 -8.6,27.9 -17.6,55.7 -26.6,83.4 -4.9,14.9 -9.6,29.9 -14.5,44.7 -10.2,30.3 -20.8,60.4 -31.5,90.5 -4.3,12.1 -8.4,24.3 -12.8,36.3 -13.3,36.6 -27.1,73 -41.2,109.2 -2,5.3 -4,10.6 -6,16 -33.4,84.9 -68.9,168.7 -106.4,251.4 l -3.5,7.5 c -17.4,38.1 -35.1,76 -53.4,113.6 -3.9,8.1 -8,16.1 -11.9,24.1 -15.8,32 -31.7,63.9 -48,95.5 -5.3,10.2 -10.7,20.3 -16.1,30.4 -15.3,29.3 -30.9,58.5 -46.7,87.4 -6.2,11.2 -12.5,22.3 -18.7,33.4 -15.5,27.8 -31.1,55.5 -47.2,83 -6.6,11.5 -13.5,22.9 -20.3,34.4 -15.9,26.8 -32,53.6 -48.4,80.2 -7.1,11.5 -14.3,22.9 -21.4,34.4 -16.6,26.4 -33.4,52.7 -50.4,78.8 -7.2,11.1 -14.5,22.2 -21.8,33.2 -17.5,26.3 -35.1,52.4 -53,78.4 -7.3,10.6 -14.6,21.1 -22,31.7 -18.3,26.2 -37,52.3 -55.8,78.2 -7.2,9.9 -14.3,19.8 -21.6,29.6 -19.6,26.7 -39.6,53.1 -59.7,79.3 -6.8,8.8 -13.4,17.6 -20.2,26.3 -21.3,27.5 -42.9,54.7 -64.8,81.7 -5.9,7.3 -11.7,14.6 -17.6,21.9 -23.8,29.1 -47.9,57.8 -72.3,86.4 -4.2,4.9 -8.3,9.9 -12.5,14.8 -27.9,32.5 -56.1,64.6 -84.8,96.4 l -2.5,2.7 c -121.1,134.1 -248.9,262 -383.1,383.1 v 0.1 c 62.9,-326.7 96.3,-663.9 96.3,-1008.9 0,-1190.5 -392.4,-2289.3 -1055,-3174.2"
         style="fill:#c1e68f;fill-opacity:1;fill-rule:nonzero;stroke:none"
         id="path32" /><path
         d="m 12881.1,8004.1 c -362.8,-500.3 -900.6,-845 -1536.9,-993.1 V 6105.1 H 10433 v -248.6 h 1496.7 v 905.8 c 636.4,148.1 1174.2,492.8 1537,993.1 614.8,847.8 500.4,1938.5 -267.2,2609.8 -10.5,9.2 -20.7,18.7 -31.4,27.7 -319.6,268.4 -679,429.6 -1032.8,549.2 154.3,-82.9 304.8,-180.9 447.2,-300.5 796.3,-668.8 921.9,-1778.1 298.6,-2637.5"
         style="fill:#96c56c;fill-opacity:1;fill-rule:nonzero;stroke:none"
         id="path34" /><path
         d="m 10066.6,10072.8 c 373,-200.5 768.3,-310.8 1127.7,-411 112.2,-31.3 222.5,-62.2 328.6,-94.7 -236.1,154.2 -566.7,246.5 -914.2,343.4 -174.5,48.6 -357.4,99.8 -542.1,162.3"
         style="fill:#96c56c;fill-opacity:1;fill-rule:nonzero;stroke:none"
         id="path36" /><path
         d="M 11929.7,13854.6 V 14873 h -585.5 v -807.9 c 200.7,-48.1 396.8,-119.3 585.5,-210.5"
         style="fill:#96c56c;fill-opacity:1;fill-rule:nonzero;stroke:none"
         id="path38" /><path
         d="m 10369.3,12605.5 c -268.7,-70.9 -469.23,-225.1 -536.42,-412.3 -49.69,-138.5 30.5,-323.5 195.02,-449.9 168.5,-129.6 398.3,-217.9 653.4,-296.2 -23.5,15.3 -46.3,31 -67.9,47.5 -164.4,126.4 -244.6,311.4 -194.9,449.9 67.2,187.2 267.7,341.4 536.4,412.3 176.7,46.8 361.1,52.5 542,21.2 -337.4,241.8 -750,327.3 -1127.6,227.5"
         style="fill:#96c56c;fill-opacity:1;fill-rule:nonzero;stroke:none"
         id="path40" /><path
         d="m 11643.2,12343.9 c 194.4,-56.3 380.9,-156 544.5,-296.5 l 975.1,1135.5 c -321.8,276.3 -690.6,475.5 -1079.1,591.7 173.2,-96.5 339,-210.4 493.5,-343.1 l -934,-1087.6"
         style="fill:#96c56c;fill-opacity:1;fill-rule:nonzero;stroke:none"
         id="path42" /><path
         d="m 9757.27,8694.2 -62.8,-72.7 c 102.99,-44.6 210.08,-82.2 319.23,-112.2 -92.1,55.7 -178.33,117.5 -256.43,184.9"
         style="fill:#96c56c;fill-opacity:1;fill-rule:nonzero;stroke:none"
         id="path44" /><path
         d="m 9425.14,7123.1 c 136.12,-71.9 277.42,-135.6 422.31,-190.7 v 76.8 c -142.7,29.9 -283.8,68.2 -422.31,113.9"
         style="fill:#96c56c;fill-opacity:1;fill-rule:nonzero;stroke:none"
         id="path46" /><path
         d="m 9425.14,7123.1 c 138.51,-45.7 279.61,-84 422.31,-113.9 v -76.8 -827.3 h 585.55 911.2 V 7011 c 636.3,148.1 1174.1,492.8 1536.9,993.1 623.3,859.4 497.7,1968.7 -298.6,2637.5 -142.4,119.6 -292.9,217.6 -447.2,300.5 -371.2,199.5 -764.7,309.8 -1124.5,410.1 -112.6,31.4 -223.2,62.3 -329.5,94.9 -255.1,78.3 -484.9,166.6 -653.4,296.2 -164.52,126.4 -244.71,311.4 -195.02,449.9 67.19,187.2 267.72,341.4 536.42,412.3 377.6,99.8 790.2,14.3 1127.6,-227.5 35.8,-25.8 71.1,-52.7 105.2,-81.9 l 41.1,47.8 934,1087.6 c -154.5,132.7 -320.3,246.6 -493.5,343.1 -50.7,28.3 -102,55 -154,80 -188.7,91.2 -384.8,162.4 -585.5,210.5 v 807.9 248.7 H 9847.45 v -1110.2 c -678,-220.4 -1204.48,-703 -1423.29,-1312.7 -271.04,-755.1 6.92,-1616.1 691.7,-2142.3 298.56,-229.4 627.38,-374.1 950.74,-483.7 184.7,-62.5 367.6,-113.7 542.1,-162.3 347.5,-96.9 678.1,-189.2 914.2,-343.4 34.4,-22.5 66.8,-46.3 97,-71.6 183.6,-154.2 183.6,-323.4 134.4,-457.1 -22.3,-60.8 -54.8,-114.3 -84.9,-155.7 -182.6,-251.9 -465.6,-401.6 -841,-445.2 -140.1,-16.2 -286.5,-15.9 -433.9,-0.7 -127.3,13.2 -255.3,38 -380.8,72.5 -109.15,30 -216.24,67.6 -319.23,112.2 -193.91,84 -373.31,192.3 -522.78,321.4 l -596.92,-691 -381.5,-441.6 c 351.91,-304 777.31,-537.1 1231.87,-687.2"
         style="fill:#347933;fill-opacity:1;fill-rule:nonzero;stroke:none"
         id="path48" /></g></g></svg>
